<svg width="240" height="280" viewBox="0 0 240 280" fill="none" xmlns="http://www.w3.org/2000/svg">
<path fill-rule="evenodd" clip-rule="evenodd" d="M131.927 113.703C124.494 117.605 118.951 123.727 115.244 130.964C107.415 124.732 98.5545 120.389 89.8476 118.812C81.1773 137.513 80.9219 152.536 84.8805 164.261C79.1187 162.004 72.8772 160.204 66.4712 159.448C76.4896 194.204 127.955 203.094 127.955 203.094C129.207 203.194 130.378 203.305 131.679 203.399C132.003 203.43 132.335 203.466 132.657 203.469C132.829 203.47 132.991 203.446 133.158 203.43L133.17 203.434L134.055 203.393L134.056 203.391C137.086 203.236 140.167 202.599 143.476 201.701C157.575 198.036 190.673 186.757 198.505 159.584C192.347 160.31 186.368 161.898 180.671 164.079C184.618 152.36 184.237 137.497 175.574 118.812C166.448 120.465 157.15 125.153 149.052 131.876C145.357 124.241 139.67 117.768 131.927 113.703Z" fill="url(#paint0_linear_40_92)"/>
<path fill-rule="evenodd" clip-rule="evenodd" d="M89.8472 118.816C96.7971 120.074 103.846 123.099 110.385 127.446C115.254 119.952 122.411 113.126 132.29 107.676C142.348 113.224 149.581 120.199 154.45 127.852C161.157 123.29 168.423 120.113 175.585 118.816C182.711 134.186 184.207 146.957 182.301 157.517L182.301 157.514C191.619 154.111 199.981 153.083 205.045 155.154C196.84 199.042 149.623 204.847 135.827 205.604C133.503 205.731 131.787 205.731 129.461 205.603C115.632 204.84 68.4699 199.014 60.2701 155.154C65.2928 153.099 73.5632 154.095 82.7905 157.433C82.8797 157.464 83.0581 157.543 83.1389 157.559C81.2228 146.99 82.7119 134.206 89.8472 118.816V118.816ZM84.5136 164.119C79.0783 161.958 73.1772 160.368 66.8208 159.619C75.5376 189.86 115.743 200.45 125.803 202.65C128.237 203.182 130.168 203.274 132.657 203.469C134.98 203.288 136.92 203.207 139.193 202.719C148.691 200.679 189.682 190.19 198.494 159.619C192.046 160.379 186.066 162.004 180.567 164.214C171.854 189.519 142.861 200.015 134.158 202.642L132.716 203.06L131.286 202.645C122.605 200.026 93.6412 189.546 84.8957 164.28C84.7695 164.22 84.6432 164.171 84.5136 164.119ZM149.2 131.802C145.515 124.342 139.902 118.023 132.302 114.033C124.869 117.936 119.333 124.066 115.638 131.312C122.391 136.787 128.344 143.677 132.717 151.414C136.961 143.906 142.691 137.195 149.2 131.802ZM136.082 158.294V158.295V158.294ZM136.082 158.295L136.074 158.311L136.068 158.326L136.061 158.339L136.054 158.354L136.048 158.368L136.045 158.375C135.915 158.657 135.789 158.94 135.664 159.224C135.586 159.399 135.51 159.575 135.435 159.751C135.312 160.036 135.192 160.321 135.074 160.607C134.985 160.82 134.899 161.033 134.813 161.248C134.713 161.495 134.617 161.743 134.52 161.991C134.422 162.246 134.325 162.501 134.23 162.757C134.157 162.953 134.085 163.15 134.014 163.348C133.892 163.685 133.774 164.023 133.658 164.362L133.657 164.365L133.609 164.508L133.561 164.651L133.553 164.675C133.411 165.097 133.275 165.521 133.143 165.945L133.099 166.089C132.966 166.521 132.838 166.954 132.715 167.388C129.643 178.266 129.955 189.081 135.128 198.746C135.564 198.601 136.103 198.393 136.541 198.228C167.875 186.433 187.125 157.99 172.65 124.236C159.134 126.919 143.984 141.148 136.129 158.192V158.19L136.088 158.28L136.081 158.294V158.295L136.082 158.295ZM129.348 158.299C121.509 141.207 106.326 126.924 92.782 124.236C71.7244 173.34 120.849 195.045 129.133 198.304C123.199 184.73 124.185 170.727 129.348 158.299ZM180.601 164.112C180.802 163.524 180.99 162.927 181.169 162.323C180.991 162.928 180.802 163.524 180.601 164.112ZM181.258 162.015C181.405 161.499 181.543 160.977 181.675 160.451C181.545 160.978 181.405 161.499 181.258 162.015ZM181.84 159.759C181.935 159.35 182.024 158.937 182.108 158.522C182.024 158.938 181.935 159.35 181.84 159.759Z" fill="#F36F97"/>
<path d="M71.9796 239.056V208.845H90.0944V212.091H75.638V222.299H88.7373V225.544H75.638V239.056H71.9796ZM96.3601 239.056V208.845H114.593V212.091H100.018V222.299H113.649V225.544H100.018V235.811H114.829V239.056H96.3601ZM121.187 208.845H125.553L135.82 233.923H136.174L146.441 208.845H150.808V239.056H147.385V216.103H147.09L137.649 239.056H134.345L124.904 216.103H124.609V239.056H121.187V208.845ZM158.143 239.056V208.845H176.375V212.091H161.801V222.299H175.431V225.544H161.801V235.811H176.611V239.056H158.143Z" fill="#BC416F"/>
<path fill-rule="evenodd" clip-rule="evenodd" d="M68 244H164V252H68V244Z" fill="#A1CFEF"/>
<g filter="url(#filter0_d_40_92)">
<path fill-rule="evenodd" clip-rule="evenodd" d="M94.0326 110.997C92.0568 111.763 90.2066 112.4 88.7621 112.746C86.4097 113.309 83.5841 113.85 81.5776 114.772C73.6656 118.408 64.3124 119.389 55.6769 119.978C55.0503 120.021 53.9104 119.923 53.3974 120.017C52.2024 120.235 53.1745 120.155 52.1094 120.931C51.4261 120.57 51.6385 120.672 51.0885 120.047C50.1645 120.235 50.8742 120.182 50.5576 120.289C49.5525 120.629 49.858 120.126 48.4126 120.328C44.4245 120.883 44.3765 123.336 42.8597 126.05C40.2413 130.736 41.8128 130.568 40.978 134.894C40.7726 135.957 40.5928 136.865 39.609 137.249C36.591 135.842 39.0368 128.073 37.0578 127.792C35.3948 127.556 36.0437 130.563 35.6926 132.712C35.4046 134.475 35.6261 137.122 34.8365 138.393L33.519 138.578C32.7438 136.629 32.923 132.73 32.8878 130.278C32.3882 130.558 28.7353 134.086 28.846 132.058C28.928 130.543 30.8957 130.021 31.3624 128.743C29.3484 129.339 26.5776 130.306 24.7278 131.375C23.8696 131.87 23.2761 132.13 22.032 131.958C22.1196 130.142 26.7374 127.867 28.0458 127.044C29.1249 126.365 30.6716 125.704 31.6194 125.005C32.6944 124.213 33.5382 123.169 34.4772 122.254C36.4326 120.347 37.98 118.392 40.2535 116.815C42.3548 115.358 45.296 113.845 48.0554 113.328C48.0725 112.526 47.919 112.524 48.2029 112.018C48.2422 111.949 49.063 111.39 49.1372 111.375C50.3104 111.135 50.0912 111.803 50.8334 112.536C53.1665 111.743 55.3216 111.377 57.8913 110.476C60.2781 109.64 62.339 108.76 64.6544 107.795C66.8821 106.868 69.0398 105.971 71.2913 105.301C73.9698 104.504 76.2662 104.152 79.0298 103.575C82.4688 102.857 87.7038 99.0909 91.2804 97.1898L94.0326 95.8193C99.888 93.3392 100.253 91.6754 102.429 89.6549L107.762 104.984L94.0326 110.997Z" fill="white"/>
<path fill-rule="evenodd" clip-rule="evenodd" d="M158.877 88.0316C158.831 90.2944 163.342 93.5528 161.994 97.8977C160.646 102.243 158.32 104.158 156.079 108.941C153.838 113.724 153.502 112.651 151.649 128.401C149.796 144.151 148.954 152.117 148.594 158.09C148.234 164.065 149.037 168.771 147.229 174.745C146.997 175.511 146.67 176.632 146.274 178.003L145.972 179.056L138.37 167.891C138.456 168.093 142.554 175.429 145.509 180.677C145.509 180.677 145.796 181.391 148.19 186.09C148.973 187.627 149.849 189.187 150.785 190.844C146.387 193.677 141.417 196.326 136.393 198.273C135.333 198.732 133.005 199.482 132.29 199.471C130.412 198.879 128.937 198.227 127.033 197.434C126.996 197.418 126.5 196.979 126.407 196.881C120.357 190.501 113.304 182.448 109.015 175.502C102.367 164.737 104.859 150.577 113.028 141.435C115.937 138.179 122.245 129.502 123.33 120.639C122.787 120.385 122.349 120.126 122.149 119.848C121.579 119.059 120.906 117.827 120.284 117.273C118.499 119.53 120.523 118.456 117.903 118.767C115.677 119.032 118.472 119.141 113.925 118.962C114.272 118.099 114.422 118.451 114.802 117.443C114.516 116.919 114.156 116.477 113.524 116.244L113.261 116.168C113.554 115.435 113.227 114.601 113.177 113.364C112.903 113.231 112.875 113.518 112.453 113.364C112.499 113.292 112.626 113.023 112.643 112.963L112.672 111.478C112.299 112.114 112.342 113.526 112.364 114.426C112.373 114.821 112.304 114.512 112.441 115.065C112.444 115.078 112.539 115.401 112.702 115.739C111.449 114.853 111.678 114.437 111.675 112.854H110.797C110.399 111.235 110.561 109.802 109.148 108.883C107.428 107.763 107.812 106.795 107.762 104.984C107.317 105.065 94.6612 111.334 88.7625 112.746C86.4097 113.309 83.5841 113.85 81.5776 114.773C73.6652 118.408 64.3124 119.389 55.6769 119.978C55.0502 120.021 53.9104 119.923 53.3979 120.017C52.2024 120.235 53.1745 120.155 52.1094 120.931C51.4261 120.57 51.6385 120.672 51.0885 120.047C50.1645 120.235 50.8742 120.182 50.5576 120.289C49.5525 120.629 49.858 120.126 48.4127 120.328C44.4245 120.883 44.3765 123.336 42.8597 126.05C40.2413 130.736 41.8128 130.568 40.978 134.894C40.7726 135.957 40.5932 136.865 39.609 137.249C36.591 135.842 39.0368 128.073 37.0578 127.792C35.3948 127.556 36.0437 130.563 35.6927 132.712C35.4047 134.475 35.6257 137.122 34.8369 138.394L33.519 138.578C32.7438 136.629 32.9234 132.73 32.8878 130.278C32.3882 130.558 28.7353 134.086 28.846 132.058C28.9277 130.543 30.8957 130.021 31.3624 128.743C29.3484 129.339 26.5776 130.306 24.7278 131.375C23.8692 131.87 23.2761 132.129 22.032 131.958C22.1196 130.142 26.7374 127.867 28.0458 127.044C29.1249 126.365 30.6716 125.704 31.6195 125.005C32.694 124.213 33.5382 123.169 34.4772 122.254C36.4326 120.347 37.98 118.392 40.2535 116.815C42.3548 115.358 45.296 113.845 48.0554 113.328C48.0725 112.526 47.9194 112.524 48.2029 112.018C48.2422 111.949 49.063 111.39 49.1372 111.375C50.3104 111.136 50.0912 111.803 50.8334 112.536C53.1665 111.743 55.3216 111.377 57.8913 110.476C60.2781 109.64 62.339 108.76 64.6544 107.795C66.8821 106.868 69.0398 105.971 71.2913 105.301C73.9698 104.504 76.2662 104.152 79.0298 103.575C82.4688 102.857 87.7038 99.0909 91.2804 97.1899L97.4097 94.1379C98.8066 93.4416 101.684 90.7748 102.429 89.6549L101.878 89.1107C101.241 88.5112 101.595 88.6092 100.582 88.5899C99.5821 88.5717 98.5628 88.368 97.9796 87.5551C99.7712 87.8136 103.042 88.3196 104.199 86.6173C105.406 84.8409 105.892 84.8648 106.69 82.7479C106.968 82.0101 107.8 81.3177 107.654 80.5611C107.423 79.3652 106.634 80.5691 107.765 77.9743C108.237 76.89 107.748 76.1265 108.308 74.9616C108.774 73.9915 109.294 73.7953 109.47 72.5356L109.863 69.6027C110.158 68.4809 110.089 67.544 110.319 66.5117C110.694 64.8313 111.756 62.8312 111.996 61.0243C112.243 59.1739 112.484 59.972 112.863 58.6061C113.398 56.6797 113.291 55.0523 113.974 53.06C114.303 52.1008 114.592 51.1484 114.852 50.304C113.825 50.7047 114.896 50.2809 114.151 50.7171L111.764 51.7085C111.895 48.9944 112.692 49.9257 112.365 47.1319C110.65 47.3175 106.602 48.5541 104.593 48.5544C103.502 48.5548 103.284 47.9557 102.799 47.7445C103.731 46.1053 104.633 46.8752 105.478 45.6015C106.7 43.7589 109.653 40.2403 111.757 39.3653C112.49 39.0607 112.797 38.9647 113.504 38.5992C110.405 36.9332 105.927 38.7379 104.843 36.6293C106.388 34.6597 112.065 35.4221 114.037 35.6881C119.212 36.3867 128.443 34.3439 133.486 33.0516C135.033 32.6544 136.297 32.3275 137.919 31.8671C138.964 31.57 140.694 31.4781 141.547 30.6951L141.906 30.2847C142.869 31.1788 145.21 30.1059 146.537 29.8575C152.092 28.8173 157.487 28.0396 163.335 28.032C168.706 28.0253 167.393 29.8711 168.187 35.4115C168.696 38.9647 169.157 42.9135 168.76 46.9731C168 54.7367 167.133 60.1172 164.878 67.7303C164.032 70.5872 158.91 86.4321 158.877 88.0316ZM116.187 186.939C115.794 188.094 115.326 189.461 114.816 190.943C118.186 193.146 120.935 194.487 124.346 196.216C121.647 193.316 118.824 190.147 116.187 186.939ZM108.878 44.9045C109.24 44.3501 108.991 44.6287 109.463 44.2261C110.8 43.0869 112.205 42.8273 113.079 42.3115C112.929 43.7696 111.468 44.1264 108.878 44.9045ZM150.169 54.392C148.183 51.6439 148.884 50.9692 147.171 48.4425C146.559 47.5389 146.618 47.4017 146.11 46.436C145.695 45.6476 145.392 45.5252 144.732 44.7859C143.697 43.6279 142.498 43.3059 141.613 41.9829C143.571 40.2149 142.13 40.4568 143.437 40.4568C146.956 40.4568 147.463 40.5396 151.104 41.1968C152.526 41.4539 154.828 42.0163 156.202 42.1263C156.181 44.1124 155.334 45.5267 154.815 47.4761C153.917 50.8513 153.508 55.4161 153.585 58.6451C153.614 59.8477 152.744 62.4239 151.84 63.08C151.742 62.3293 151.538 60.4891 151.954 59.9017L152.35 59.506C153.121 58.7833 153.216 58.992 152.928 58.0547C152.364 58.56 152.086 58.7444 151.822 59.7411C151.517 59.2796 151.669 58.4901 151.534 57.5792L151.579 56.1517C151.843 55.5329 151.178 55.7865 150.169 54.392Z" fill="url(#paint1_linear_40_92)"/>
<path fill-rule="evenodd" clip-rule="evenodd" d="M94.0327 110.997C92.0568 111.763 90.2067 112.401 88.7622 112.746C86.4098 113.309 83.5842 113.85 81.5776 114.773C73.6656 118.408 64.3124 119.389 55.677 119.978C55.0507 120.021 53.9104 119.923 53.3979 120.017C52.2024 120.235 53.1745 120.155 52.1091 120.931C51.4264 120.571 51.6386 120.672 51.0886 120.047C50.1646 120.235 50.8747 120.182 50.5576 120.289C49.5526 120.629 49.858 120.126 48.4127 120.327C44.4246 120.883 44.3766 123.336 42.8598 126.05C40.2414 130.736 41.8128 130.567 40.978 134.894C40.7727 135.957 40.5928 136.865 39.6091 137.248C36.5911 135.842 39.0368 128.073 37.0579 127.792C35.3948 127.556 36.0438 130.563 35.6927 132.712C35.4047 134.475 35.6262 137.122 34.837 138.394L33.5191 138.578C32.7439 136.629 32.9235 132.73 32.8879 130.278C32.3883 130.558 28.7354 134.086 28.846 132.058C28.9278 130.543 30.8958 130.021 31.3624 128.743C29.3484 129.339 26.5772 130.306 24.7279 131.374C23.8696 131.87 23.2757 132.13 22.0316 131.957C22.1196 130.142 26.7375 127.867 28.0459 127.044C29.1249 126.366 30.6716 125.704 31.6195 125.005C32.6944 124.213 33.5387 123.169 34.4772 122.254C36.4327 120.347 37.98 118.391 40.2535 116.815C42.3548 115.358 45.296 113.845 48.0555 113.328C48.0725 112.526 47.9191 112.524 48.203 112.018C48.2423 111.949 49.0631 111.39 49.1372 111.375C50.3104 111.136 50.0912 111.803 50.8335 112.536C53.167 111.743 55.3216 111.377 57.8913 110.476C60.2785 109.64 62.3391 108.76 64.6544 107.795C66.8822 106.868 69.0395 105.971 71.2914 105.301C73.9699 104.504 76.2663 104.152 79.0299 103.575C82.4688 102.857 87.7039 99.0909 91.2804 97.1899L94.0327 95.8193V110.997Z" fill="url(#paint2_linear_40_92)"/>
<path fill-rule="evenodd" clip-rule="evenodd" d="M114.897 48.212C114.897 48.212 113.819 51.4473 113.133 57.0345C112.447 62.6219 111.858 65.1704 111.27 67.6207C111.057 68.5081 110.874 69.3635 110.709 70.1873L110.687 70.2176C108.893 72.6819 106.962 75.4039 106.419 77.0801C105.291 80.5603 105.978 82.1772 105.978 82.1772C105.978 82.1772 106.223 80.6577 106.811 78.8939C107.023 78.2593 108.224 77.0279 109.675 75.4923C108.571 80.4835 106.857 83.7955 99.6056 85.5591C106.162 86.4424 111.043 78.7672 112.83 71.9349C116.115 67.8429 115.489 66.7257 114.882 61.0344C114.521 57.6661 114.265 53.8095 115.437 50.4669C114.741 51.2889 114.324 52.4228 114.073 53.7241C114.292 51.5573 114.573 49.4589 114.897 48.212L114.897 48.212ZM109.816 107.069C109.816 107.069 110.957 108.375 111.053 109.723C111.15 111.072 110.103 113.673 110 114.389C109.897 115.105 110.42 113.805 111.11 112.677C111.8 111.55 112.105 109.771 111.474 108.707C110.843 107.643 109.816 107.069 109.816 107.069ZM112.569 109.521C112.569 109.521 113.709 110.826 113.806 112.174C113.902 113.523 112.855 116.124 112.752 116.84C112.649 117.556 113.173 116.256 113.862 115.128C114.553 114 114.857 112.222 114.226 111.158C113.595 110.094 112.569 109.521 112.569 109.521ZM116.157 114.657C116.393 114.987 116.759 115.592 116.803 116.211C116.869 117.132 116.154 118.909 116.084 119.397C116.013 119.887 116.37 118.998 116.842 118.228C117.313 117.458 117.521 116.243 117.09 115.517C116.81 115.044 116.415 114.713 116.174 114.539C116.417 112.664 116.019 110.465 114.825 109.32C113.401 107.955 111.578 107.512 111.578 107.512C111.578 107.512 113.889 109.03 114.613 111.061C115.337 113.092 114.841 117.536 114.989 118.68C115.136 119.825 115.385 117.603 115.963 115.575C116.046 115.284 116.111 114.975 116.157 114.657ZM119.862 65.8821C119.862 65.8821 121.528 68.0875 121.528 70.244C121.528 72.4007 119.567 76.4195 119.322 77.5468C119.077 78.6743 120.057 76.6646 121.283 74.9492C122.508 73.234 123.194 70.4399 122.312 68.6759C121.43 66.9112 119.862 65.8821 119.862 65.8821ZM116.677 58.7755C116.677 58.7755 115.501 62.8925 116.776 65.6368C118.05 68.3815 117.56 70.6364 116.776 73.1845C115.991 75.7335 113.148 79.5564 113.148 79.5564C113.148 79.5564 117.069 77.2524 118.148 74.9983C119.226 72.7435 120.401 69.8521 118.882 66.0291C117.363 62.2061 116.529 60.8825 116.677 58.7755H116.677ZM129.13 42.6988C129.13 42.6988 134.913 41.3265 135.305 39.9541C135.697 38.5819 141.089 40.5423 144.323 45.7376C147.558 50.9325 147.754 52.7951 149.127 54.7559C150.499 56.7164 151.186 61.8135 151.087 62.4995C150.989 63.1857 147.755 70.1453 147.558 72.988C147.363 75.8305 144.912 75.3407 144.03 68.3811C143.147 61.4211 142.657 60.1471 143.246 58.3824C143.833 56.6184 145.794 53.4815 143.735 51.7172C141.677 49.9525 140.77 49.796 139.912 51.2265C139.054 52.6579 136.971 47.3057 129.13 42.6988ZM132.171 46.4727C132.171 46.4727 138.64 53.4323 140.012 56.7651C141.385 60.0979 134.719 70.9784 131.191 71.8609C127.661 72.7435 125.603 71.1749 125.603 71.1749C125.603 71.1749 127.563 73.1845 130.651 72.7435C133.739 72.302 139.032 67.9396 140.355 61.6176C141.678 55.2949 139.619 51.3252 132.171 46.4727ZM120.606 40.6405C120.606 40.6405 115.998 44.5613 115.705 46.4727C115.41 48.3844 115.166 49.7072 115.166 49.7072C115.166 49.7072 115.166 47.6489 117.763 45.9337C120.361 44.2183 124.527 40.2481 120.606 40.6405ZM130.188 40.9341C130.188 40.9341 131.071 39.2187 130.703 38.7043C130.335 38.1899 130.335 38.1899 130.335 38.1899L134.305 38.5572C134.305 38.5572 132.614 39.8317 130.188 40.9341ZM126.978 42.6497C126.978 42.6497 129.38 40.052 129.012 39.1208C128.644 38.1899 127.762 38.1404 127.762 38.1404C127.762 38.1404 130.36 37.8712 130.09 39.4393C129.82 41.0079 129.355 40.7872 126.978 42.6497ZM125.091 43.0663C125.091 43.0663 127.591 39.1453 126.169 38.7533C124.748 38.3611 124.748 38.3611 124.748 38.3611C124.748 38.3611 127.051 37.8467 127.493 39.0229C127.933 40.1987 127.248 41.6205 125.091 43.0663ZM118.23 54.3881C118.23 54.3881 117.739 47.6243 121.562 45.2716C125.385 42.9196 126.464 39.6355 124.993 39.2436C123.522 38.8513 122.003 39.0965 121.366 39.8804C120.729 40.6647 123.081 38.8021 124.062 40.0279C125.042 41.2528 121.317 44.0463 120.68 44.7817C120.043 45.5168 116.955 47.6243 118.23 54.3881ZM113.574 64.5491V61.1512C113.574 60.6123 113.619 59.5548 113.702 58.2512C113.688 59.192 113.693 60.138 113.688 61.0533C113.681 62.5935 113.666 63.6809 113.574 64.5491Z" fill="white"/>
</g>
<defs>
<filter id="filter0_d_40_92" x="5.03162" y="11.032" width="180.878" height="205.439" filterUnits="userSpaceOnUse" color-interpolation-filters="sRGB">
<feFlood flood-opacity="0" result="BackgroundImageFix"/>
<feColorMatrix in="SourceAlpha" type="matrix" values="0 0 0 0 0 0 0 0 0 0 0 0 0 0 0 0 0 0 127 0" result="hardAlpha"/>
<feOffset/>
<feGaussianBlur stdDeviation="8.5"/>
<feComposite in2="hardAlpha" operator="out"/>
<feColorMatrix type="matrix" values="0 0 0 0 0 0 0 0 0 0 0 0 0 0 0 0 0 0 0.25 0"/>
<feBlend mode="normal" in2="BackgroundImageFix" result="effect1_dropShadow_40_92"/>
<feBlend mode="normal" in="SourceGraphic" in2="effect1_dropShadow_40_92" result="shape"/>
</filter>
<linearGradient id="paint0_linear_40_92" x1="132.488" y1="203.469" x2="132.488" y2="113.703" gradientUnits="userSpaceOnUse">
<stop offset="0.641873" stop-color="#F1DAEE"/>
<stop offset="0.880045" stop-color="white"/>
</linearGradient>
<linearGradient id="paint1_linear_40_92" x1="99.1013" y1="28.13" x2="91.8346" y2="199.37" gradientUnits="userSpaceOnUse">
<stop stop-color="#35B6FA"/>
<stop offset="1" stop-color="#FEFEFE"/>
</linearGradient>
<linearGradient id="paint2_linear_40_92" x1="39" y1="125.5" x2="93.5" y2="97" gradientUnits="userSpaceOnUse">
<stop offset="0.180031" stop-color="white"/>
<stop offset="0.820708" stop-color="#8CD6FC"/>
</linearGradient>
</defs>
</svg>
