<svg width="240" height="280" fill="none" xmlns="http://www.w3.org/2000/svg"><path fill-rule="evenodd" clip-rule="evenodd" d="M131.927 113.703c-7.433 3.902-12.976 10.024-16.683 17.261-7.829-6.232-16.69-10.575-25.396-12.152-8.67 18.701-8.926 33.724-4.968 45.449-5.761-2.257-12.003-4.057-18.409-4.813 10.019 34.756 61.484 43.646 61.484 43.646 1.252.1 2.423.211 3.724.305.324.031.656.067.978.07.172.001.334-.023.501-.039l.012.004.885-.041.001-.002c3.03-.155 6.111-.792 9.42-1.69 14.099-3.665 47.197-14.944 55.029-42.117-6.158.726-12.137 2.314-17.834 4.495 3.947-11.719 3.566-26.582-5.097-45.267-9.126 1.653-18.424 6.341-26.522 13.064-3.695-7.635-9.382-14.108-17.125-18.173z" fill="url(#prefix__paint0_linear_40_92)"/><path fill-rule="evenodd" clip-rule="evenodd" d="M89.847 118.816c6.95 1.258 13.999 4.283 20.538 8.63 4.869-7.494 12.026-14.32 21.905-19.77 10.058 5.548 17.291 12.523 22.16 20.176 6.707-4.562 13.973-7.739 21.135-9.036 7.126 15.37 8.622 28.141 6.716 38.701v-.003c9.318-3.403 17.68-4.431 22.744-2.36-8.205 43.888-55.422 49.693-69.218 50.45-2.324.127-4.04.127-6.366-.001-13.829-.763-60.991-6.589-69.19-50.449 5.022-2.055 13.292-1.059 22.52 2.279.089.031.267.11.348.126-1.916-10.569-.427-23.353 6.708-38.743zm-5.333 45.303a69.896 69.896 0 00-17.693-4.5c8.717 30.241 48.922 40.831 58.982 43.031 2.434.532 4.365.624 6.854.819 2.323-.181 4.263-.262 6.536-.75 9.498-2.04 50.489-12.529 59.301-43.1a69.875 69.875 0 00-17.927 4.595c-8.713 25.305-37.706 35.801-46.409 38.428l-1.442.418-1.43-.415c-8.681-2.619-37.645-13.099-46.39-38.365-.127-.06-.253-.109-.382-.161zm64.686-32.317c-3.685-7.46-9.298-13.779-16.898-17.769-7.433 3.903-12.969 10.033-16.664 17.279 6.753 5.475 12.706 12.365 17.079 20.102 4.244-7.508 9.974-14.219 16.483-19.612zm-13.118 26.492v.001-.001zm0 .001l-.008.016-.006.015-.007.013-.007.015-.006.014-.003.007a53.648 53.648 0 00-.61 1.376 57.588 57.588 0 00-.622 1.497c-.1.247-.196.495-.293.743a70.772 70.772 0 00-.506 1.357c-.122.337-.24.675-.356 1.014l-.001.003-.048.143-.048.143-.008.024c-.142.422-.278.846-.41 1.27l-.044.144a60.22 60.22 0 00-.384 1.299c-3.072 10.878-2.76 21.693 2.413 31.358.436-.145.975-.353 1.413-.518 31.334-11.795 50.584-40.238 36.109-73.992-13.516 2.683-28.666 16.912-36.521 33.956v-.002l-.041.09-.007.014v.001h.001zm-6.734.004c-7.839-17.092-23.022-31.375-36.566-34.063-21.058 49.104 28.067 70.809 36.351 74.068-5.934-13.574-4.948-27.577.215-40.005zm51.253 5.813zm.657-2.097zm.582-2.256z" fill="#F36F97"/><path d="M71.98 239.056v-30.211h18.114v3.246H75.638v10.208h13.1v3.245h-13.1v13.512H71.98zm24.38 0v-30.211h18.233v3.246h-14.575v10.208h13.631v3.245h-13.631v10.267h14.811v3.245H96.36zm24.827-30.211h4.366l10.267 25.078h.354l10.267-25.078h4.367v30.211h-3.423v-22.953h-.295l-9.441 22.953h-3.304l-9.441-22.953h-.295v22.953h-3.422v-30.211zm36.956 30.211v-30.211h18.232v3.246h-14.574v10.208h13.63v3.245h-13.63v10.267h14.81v3.245h-18.468z" fill="#BC416F"/><path fill-rule="evenodd" clip-rule="evenodd" d="M68 244h96v8H68v-8z" fill="#A1CFEF"/><g filter="url(#prefix__filter0_d_40_92)" fill-rule="evenodd" clip-rule="evenodd"><path d="M94.033 110.997c-1.976.766-3.826 1.403-5.27 1.749-2.353.563-5.179 1.104-7.185 2.026-7.912 3.636-17.266 4.617-25.901 5.206-.627.043-1.767-.055-2.28.039-1.195.218-.222.138-1.288.914-.683-.361-.47-.259-1.02-.884-.925.188-.215.135-.531.242-1.005.34-.7-.163-2.145.039-3.988.555-4.036 3.008-5.553 5.722-2.619 4.686-1.047 4.518-1.882 8.844-.205 1.063-.385 1.971-1.369 2.355-3.018-1.407-.572-9.176-2.551-9.457-1.663-.236-1.014 2.771-1.365 4.92-.288 1.763-.067 4.41-.856 5.681l-1.318.185c-.775-1.949-.596-5.848-.631-8.3-.5.28-4.153 3.808-4.042 1.78.082-1.515 2.05-2.037 2.516-3.315-2.014.596-4.784 1.563-6.634 2.632-.858.495-1.452.755-2.696.583.088-1.816 4.705-4.091 6.014-4.914 1.079-.679 2.626-1.34 3.573-2.039 1.075-.792 1.92-1.836 2.858-2.751 1.956-1.907 3.503-3.862 5.777-5.439 2.1-1.457 5.042-2.97 7.801-3.487.017-.802-.136-.804.148-1.31.04-.069.86-.628.934-.643 1.173-.24.954.428 1.696 1.161 2.334-.793 4.489-1.159 7.058-2.06 2.387-.836 4.448-1.716 6.763-2.681 2.228-.927 4.386-1.824 6.637-2.494 2.679-.797 4.975-1.149 7.739-1.726 3.439-.718 8.674-4.484 12.25-6.385l2.753-1.37c5.855-2.48 6.22-4.145 8.396-6.165l5.333 15.329-13.73 6.013z" fill="#fff"/><path d="M158.877 88.032c-.046 2.262 4.465 5.52 3.117 9.866-1.348 4.345-3.674 6.26-5.915 11.043-2.241 4.783-2.577 3.71-4.43 19.46-1.853 15.75-2.695 23.716-3.055 29.689-.36 5.975.443 10.681-1.365 16.655a294.38 294.38 0 00-.955 3.258l-.302 1.053-7.602-11.165c.086.202 4.184 7.538 7.139 12.786 0 0 .287.714 2.681 5.413.783 1.537 1.659 3.097 2.595 4.754-4.398 2.833-9.368 5.482-14.392 7.429-1.06.459-3.388 1.209-4.103 1.198-1.878-.592-3.353-1.244-5.257-2.037a9.472 9.472 0 01-.626-.553c-6.05-6.38-13.103-14.433-17.392-21.379-6.648-10.765-4.156-24.925 4.013-34.067 2.909-3.256 9.217-11.933 10.302-20.796-.543-.254-.981-.513-1.181-.791-.57-.789-1.243-2.021-1.865-2.575-1.785 2.257.239 1.183-2.381 1.494-2.226.265.569.374-3.978.195.347-.863.497-.511.877-1.519-.286-.524-.646-.966-1.278-1.199l-.263-.076c.293-.733-.034-1.567-.084-2.804-.274-.133-.302.154-.724 0 .046-.072.173-.341.19-.401l.029-1.485c-.373.636-.33 2.048-.308 2.948.009.395-.06.086.077.639.003.013.098.336.261.674-1.253-.886-1.024-1.302-1.027-2.885h-.878c-.398-1.619-.236-3.052-1.649-3.971-1.72-1.12-1.336-2.088-1.386-3.899-.445.081-13.1 6.35-19 7.762-2.352.563-5.178 1.104-7.184 2.027-7.913 3.635-17.266 4.616-25.901 5.205-.627.043-1.767-.055-2.28.039-1.195.218-.222.138-1.288.914-.683-.361-.47-.259-1.02-.884-.925.188-.215.135-.531.242-1.005.34-.7-.163-2.145.039-3.988.555-4.036 3.008-5.553 5.722-2.619 4.686-1.047 4.518-1.882 8.844-.205 1.063-.385 1.971-1.369 2.355-3.018-1.407-.572-9.176-2.551-9.457-1.663-.236-1.014 2.771-1.365 4.92-.288 1.763-.067 4.41-.856 5.682l-1.318.184c-.775-1.949-.596-5.848-.631-8.3-.5.28-4.153 3.808-4.042 1.78.082-1.515 2.05-2.037 2.516-3.315-2.014.596-4.784 1.563-6.634 2.632-.859.495-1.452.754-2.696.583.088-1.816 4.705-4.091 6.014-4.914 1.079-.679 2.626-1.34 3.573-2.039 1.075-.792 1.92-1.836 2.858-2.751 1.956-1.907 3.503-3.862 5.777-5.439 2.1-1.457 5.042-2.97 7.801-3.487.017-.802-.136-.804.148-1.31.04-.069.86-.628.934-.643 1.173-.239.954.428 1.696 1.161 2.334-.793 4.489-1.159 7.058-2.06 2.387-.836 4.448-1.716 6.763-2.681 2.228-.927 4.386-1.824 6.637-2.494 2.679-.797 4.975-1.149 7.739-1.726 3.439-.718 8.674-4.484 12.25-6.385l6.13-3.052c1.397-.696 4.274-3.363 5.019-4.483l-.551-.544c-.637-.6-.283-.502-1.296-.521-1-.018-2.02-.222-2.602-1.035 1.791.259 5.062.765 6.219-.938 1.207-1.776 1.693-1.752 2.491-3.87.278-.737 1.11-1.43.964-2.186-.231-1.196-1.02.008.111-2.587.472-1.084-.017-1.848.543-3.012.466-.97.986-1.167 1.162-2.426l.393-2.933c.295-1.122.226-2.059.456-3.091.375-1.68 1.437-3.68 1.677-5.488.247-1.85.488-1.052.867-2.418.535-1.926.428-3.554 1.111-5.546.329-.96.618-1.912.878-2.756-1.027.4.044-.023-.701.413l-2.387.992c.131-2.715.928-1.783.601-4.577-1.715.186-5.763 1.422-7.772 1.422-1.091 0-1.309-.598-1.794-.81.932-1.639 1.834-.869 2.679-2.142 1.222-1.843 4.175-5.362 6.279-6.237.733-.304 1.04-.4 1.747-.766-3.099-1.666-7.577.139-8.661-1.97 1.545-1.97 7.222-1.207 9.194-.94 5.175.698 14.406-1.345 19.449-2.637 1.547-.398 2.811-.724 4.433-1.185 1.045-.297 2.775-.389 3.628-1.172l.359-.41c.963.894 3.304-.18 4.631-.427 5.555-1.04 10.95-1.818 16.798-1.826 5.371-.007 4.058 1.84 4.852 7.38.509 3.553.97 7.502.573 11.561-.76 7.764-1.627 13.144-3.882 20.757-.846 2.857-5.968 18.702-6.001 20.302zm-42.69 98.907c-.393 1.155-.861 2.522-1.371 4.004 3.37 2.203 6.119 3.544 9.53 5.273-2.699-2.9-5.522-6.069-8.159-9.277zm-7.309-142.034c.362-.555.113-.276.585-.679 1.337-1.14 2.742-1.399 3.616-1.914-.15 1.458-1.611 1.814-4.201 2.593zm41.291 9.487c-1.986-2.748-1.285-3.423-2.998-5.95-.612-.903-.553-1.04-1.061-2.006-.415-.788-.718-.91-1.378-1.65-1.035-1.158-2.234-1.48-3.119-2.803 1.958-1.768.517-1.526 1.824-1.526 3.519 0 4.026.083 7.667.74 1.422.257 3.724.82 5.098.93-.021 1.985-.868 3.4-1.387 5.35-.898 3.374-1.307 7.94-1.23 11.168.029 1.203-.841 3.779-1.745 4.435-.098-.75-.302-2.59.114-3.178l.396-.396c.771-.723.866-.514.578-1.451-.564.505-.842.69-1.106 1.686-.305-.461-.153-1.25-.288-2.162l.045-1.427c.264-.62-.401-.366-1.41-1.76z" fill="url(#prefix__paint1_linear_40_92)"/><path d="M94.033 110.997c-1.976.766-3.826 1.404-5.27 1.749-2.353.563-5.179 1.104-7.185 2.027-7.912 3.635-17.266 4.616-25.901 5.205-.626.043-1.767-.055-2.28.039-1.195.218-.222.138-1.288.914-.683-.36-.47-.259-1.02-.884-.924.188-.214.135-.531.242-1.005.34-.7-.163-2.145.038-3.988.556-4.036 3.009-5.553 5.723-2.619 4.686-1.047 4.517-1.882 8.844-.205 1.063-.385 1.971-1.369 2.354-3.018-1.406-.572-9.175-2.551-9.456-1.663-.236-1.014 2.771-1.365 4.92-.288 1.763-.067 4.41-.856 5.682l-1.318.184c-.775-1.949-.596-5.848-.631-8.3-.5.28-4.153 3.808-4.042 1.78.082-1.515 2.05-2.037 2.516-3.315-2.014.596-4.785 1.563-6.634 2.631-.858.496-1.452.756-2.696.583.088-1.815 4.706-4.09 6.014-4.913 1.079-.678 2.626-1.34 3.573-2.039 1.075-.792 1.92-1.836 2.858-2.751 1.956-1.907 3.503-3.863 5.777-5.439 2.1-1.457 5.042-2.97 7.802-3.487.017-.802-.137-.804.147-1.31.04-.069.86-.628.934-.643 1.173-.239.954.428 1.697 1.161 2.333-.793 4.488-1.159 7.057-2.06 2.388-.836 4.448-1.716 6.763-2.681 2.228-.927 4.386-1.824 6.637-2.494 2.679-.797 4.975-1.149 7.739-1.726 3.439-.718 8.674-4.484 12.25-6.385l2.753-1.37v15.177z" fill="url(#prefix__paint2_linear_40_92)"/><path d="M114.897 48.212s-1.078 3.235-1.764 8.822c-.686 5.588-1.275 8.136-1.863 10.587a69.042 69.042 0 00-.561 2.566l-.022.03c-1.794 2.465-3.725 5.187-4.268 6.863-1.128 3.48-.441 5.097-.441 5.097s.245-1.52.833-3.283c.212-.635 1.413-1.866 2.864-3.402-1.104 4.992-2.818 8.303-10.07 10.067 6.557.883 11.438-6.792 13.225-13.624 3.285-4.092 2.659-5.21 2.052-10.9-.361-3.369-.617-7.225.555-10.568-.696.822-1.113 1.956-1.364 3.257.219-2.167.5-4.265.824-5.512zm-5.081 58.857s1.141 1.306 1.237 2.654c.097 1.349-.95 3.95-1.053 4.666-.103.716.42-.584 1.11-1.712.69-1.127.995-2.906.364-3.97s-1.658-1.638-1.658-1.638zm2.753 2.452s1.14 1.305 1.237 2.653c.096 1.349-.951 3.95-1.054 4.666-.103.716.421-.584 1.11-1.712.691-1.128.995-2.906.364-3.97s-1.657-1.637-1.657-1.637zm3.588 5.136c.236.33.602.935.646 1.554.066.921-.649 2.698-.719 3.186-.071.49.286-.399.758-1.169.471-.77.679-1.985.248-2.711a3.372 3.372 0 00-.916-.978c.243-1.875-.155-4.074-1.349-5.219-1.424-1.365-3.247-1.808-3.247-1.808s2.311 1.518 3.035 3.549c.724 2.031.228 6.475.376 7.619.147 1.145.396-1.077.974-3.105.083-.291.148-.6.194-.918zm3.705-48.775s1.666 2.206 1.666 4.362c0 2.157-1.961 6.175-2.206 7.303-.245 1.127.735-.882 1.961-2.598 1.225-1.715 1.911-4.51 1.029-6.273-.882-1.765-2.45-2.794-2.45-2.794zm-3.185-7.107s-1.176 4.117.099 6.862c1.274 2.745.784 5 0 7.547-.785 2.55-3.628 6.372-3.628 6.372s3.921-2.304 5-4.558c1.078-2.255 2.253-5.146.734-8.969-1.519-3.823-2.353-5.146-2.205-7.253zM129.13 42.7s5.783-1.372 6.175-2.745c.392-1.372 5.784.588 9.018 5.784 3.235 5.194 3.431 7.057 4.804 9.018 1.372 1.96 2.059 7.057 1.96 7.743-.098.687-3.332 7.646-3.529 10.489-.195 2.843-2.646 2.353-3.528-4.607-.883-6.96-1.373-8.234-.784-9.999.587-1.764 2.548-4.9.489-6.665-2.058-1.764-2.965-1.921-3.823-.49-.858 1.43-2.941-3.921-10.782-8.528zm3.041 3.774s6.469 6.96 7.841 10.292c1.373 3.333-5.293 14.213-8.821 15.096-3.53.882-5.588-.686-5.588-.686s1.96 2.01 5.048 1.569c3.088-.442 8.381-4.804 9.704-11.126 1.323-6.323-.736-10.293-8.184-15.145zm-11.565-5.832s-4.608 3.92-4.901 5.832c-.295 1.911-.539 3.234-.539 3.234s0-2.058 2.597-3.773c2.598-1.716 6.764-5.686 2.843-5.293zm9.582.293s.883-1.715.515-2.23l-.368-.514 3.97.367s-1.691 1.275-4.117 2.377zm-3.21 1.716s2.402-2.598 2.034-3.53c-.368-.93-1.25-.98-1.25-.98s2.598-.269 2.328 1.3c-.27 1.568-.735 1.347-3.112 3.21zm-1.887.416s2.5-3.92 1.078-4.313l-1.421-.392s2.303-.514 2.745.662c.44 1.176-.245 2.597-2.402 4.043zm-6.861 11.322s-.491-6.764 3.332-9.116c3.823-2.352 4.902-5.636 3.431-6.028-1.471-.393-2.99-.148-3.627.636-.637.785 1.715-1.078 2.696.148.98 1.225-2.745 4.018-3.382 4.754-.637.735-3.725 2.842-2.45 9.606zm-4.656 10.161v-3.398c0-.539.045-1.596.128-2.9-.014.941-.009 1.887-.014 2.802-.007 1.54-.022 2.628-.114 3.496z" fill="#fff"/></g><defs><linearGradient id="prefix__paint0_linear_40_92" x1="132.488" y1="203.469" x2="132.488" y2="113.703" gradientUnits="userSpaceOnUse"><stop offset=".642" stop-color="#F1DAEE"/><stop offset=".88" stop-color="#fff"/></linearGradient><linearGradient id="prefix__paint1_linear_40_92" x1="99.101" y1="28.13" x2="91.835" y2="199.37" gradientUnits="userSpaceOnUse"><stop stop-color="#35B6FA"/><stop offset="1" stop-color="#FEFEFE"/></linearGradient><linearGradient id="prefix__paint2_linear_40_92" x1="39" y1="125.5" x2="93.5" y2="97" gradientUnits="userSpaceOnUse"><stop offset=".18" stop-color="#fff"/><stop offset=".821" stop-color="#8CD6FC"/></linearGradient><filter id="prefix__filter0_d_40_92" x="5.032" y="11.032" width="180.878" height="205.439" filterUnits="userSpaceOnUse" color-interpolation-filters="sRGB"><feFlood flood-opacity="0" result="BackgroundImageFix"/><feColorMatrix in="SourceAlpha" values="0 0 0 0 0 0 0 0 0 0 0 0 0 0 0 0 0 0 127 0" result="hardAlpha"/><feOffset/><feGaussianBlur stdDeviation="8.5"/><feComposite in2="hardAlpha" operator="out"/><feColorMatrix values="0 0 0 0 0 0 0 0 0 0 0 0 0 0 0 0 0 0 0.25 0"/><feBlend in2="BackgroundImageFix" result="effect1_dropShadow_40_92"/><feBlend in="SourceGraphic" in2="effect1_dropShadow_40_92" result="shape"/></filter></defs></svg>