<svg width="70" height="70" fill="none" xmlns="http://www.w3.org/2000/svg"><path fill-rule="evenodd" clip-rule="evenodd" d="M25.428.177c-8.686 1.194-16.29 6.357-16.29 11.06v1.333l.98-1.802c2.844-5.231 11.232-8.158 19.36-6.756 3.441.594 6.003 1.995 9.722 5.316l3.446 3.077L39.2 10.89c-1.896-.834-4.559-2.176-5.918-2.982-3.197-1.896-5.935-2.623-9.783-2.598-4.847.032-10.148 1.445-10.148 2.706 0 .757 2.451 2.607 4.704 3.55 2.56 1.073 6.238 1.723 12.72 2.249 6.72.545 11.463 1.902 13.882 3.97.917.785 1.219 1.674.34 1.006-1.026-.78-5.115-1.835-9.818-2.532-6.388-.946-14.825-2.367-16.389-2.76-2.12-.533-4.56-2.046-5.465-3.388l-.859-1.273-.687.831c-1.86 2.25 1.75 6.393 7.26 8.336 3.762 1.327 6.625 1.798 10.945 1.801 6.366.005 11.183 1.21 13.75 3.44 1.609 1.396 2.89 3.956 3.716 7.425.403 1.692.848 3.375.988 3.74.502 1.295 2.184 3.032 3.907 4.034 1.992 1.158 1.87 1.338-.236.348-1.714-.805-2.79-1.846-3.849-3.72-1.044-1.847-1.054-1.313-.014.715 1.29 2.515 3.273 3.821 7.153 4.71 3.228.74 6.42 1.944 6.853 2.586.116.172-.133.213-.555.09-.422-.122-2.21-.437-3.976-.699-3.842-.57-5.49-1.16-7.291-2.61-1.65-1.327-3.337-4.65-3.597-7.081-.261-2.444-1.84-5.928-3.487-7.69-2.474-2.65-4.88-3.386-12.762-3.903-3.054-.201-6.573-.606-7.82-.901-4.48-1.06-8.845-3.718-11.386-6.934-1.408-1.782-1.393-1.243.028 1.028 1.223 1.953 4.245 4.292 6.98 5.4 2.722 1.105 6.18 1.699 12.209 2.099 3.06.203 6.435.607 7.5.896 2.305.628 4.683 2.133 5.924 3.75.813 1.06.706 1.014-1.1-.462-3.018-2.467-4.415-2.797-13.101-3.088-7.14-.24-7.56-.294-9.574-1.229-4.621-2.144-8.016-4.854-9.695-7.738l-.614-1.053-.015 1.205c-.008.663.325 1.85.74 2.637 1.39 2.632 3.785 4.378 13.59 9.91 1.522.859 3.117 3.328 3.843 5.947.482 1.742.523 2.738.215 5.265-.21 1.728-.24 3.674-.066 4.367.366 1.459 1.387 2.997 2.173 3.273.303.107.553.634.554 1.17.007 3.292 2.326 5.998 5.972 6.97 2.554.68 4.29.457 5.86-.753 2.806-2.165 2.119-6.118-1.064-6.118-.423 0-.874.157-1.003.348-.13.194.012.26.326.15.79-.278 1.18 1.091.647 2.27-.797 1.764-3.592 2.673-5.437 1.767-.907-.445-2.22-2.916-2.232-4.204-.006-.653.279-1.005 1.045-1.292l1.053-.395-1.052.19c-1.013.182-1.043.146-.807-.99.134-.648.67-2.521 1.192-4.162.52-1.641 1.114-3.616 1.317-4.388.53-2.013-.216-4.745-1.826-6.678-1.42-1.705-1.342-1.903.374-.948.986.549 1.234 1.073 2.175 4.579.584 2.178 1.585 4.984 2.224 6.237 2.485 4.867 4.483 6.528 12.175 10.117 3.932 1.836 4.352 2.13 5.114 3.572 1.607 3.042.28 5.595-5.187 9.98-2.042 1.638-3.953 3.105-4.248 3.259-.872.456-.622 1.29.765 2.563C49.488 69.847 49.9 70 51.582 70c1.06 0 2.39-.16 2.953-.357l1.025-.358-1-.72c-1.581-1.141-1.362-2.642.748-5.116.96-1.127 2.279-2.8 2.929-3.716.987-1.393 1.378-1.67 2.369-1.675 3.314-.022 6.36-2.552 7.074-5.876.251-1.168.423-2.257.383-2.42-.04-.163.407-1.223.993-2.356.928-1.79 1.043-2.364.885-4.387-.321-4.098-2.594-6.808-7.376-8.795-1.372-.57-2.495-1.176-2.495-1.344 0-.169.861-.51 1.914-.757 1.052-.247 2.007-.588 2.121-.757.115-.17-.51-.076-1.387.207-4.14 1.34-5.142-.024-3.385-4.606.61-1.59.758-2.658.635-4.581-.293-4.578-3.235-7.852-8.82-9.816-3.148-1.106-4.297-1.953-6.519-4.807-3.006-3.862-6.52-6.291-10.414-7.2-2.395-.558-6.291-.73-8.787-.386zM6.99 15.449c-2.51 3.925-2.68 6.352-.724 10.322 2.29 4.65 1.716 6.217-2.832 7.737-2.83.946-3.506 1.703-3.43 3.837.032.874.127 1.194.21.712.27-1.547 1.401-2.451 4.294-3.432 2.336-.793 2.944-1.166 3.556-2.185.977-1.628.747-3.494-.81-6.541-.669-1.313-1.314-3.039-1.434-3.837-.235-1.573.583-4.66 1.829-6.899 1.032-1.853.585-1.66-.659.286zm42.786 1.565c2.074 1.87 3.816 4.44 4.27 6.3.12.482.097 2.22-.05 3.861l-.264 2.984-.862-1.495c-.474-.822-1.12-2.85-1.434-4.507-.694-3.643-1.137-4.49-4.092-7.82-2.137-2.407-2.208-2.542-1.014-1.93.706.362 2.257 1.535 3.446 2.607zm-42.159-.339c-1.14 2.266-1.239 2.73-1.078 5.007.152 2.159.453 3.004 2.154 6.053 2.931 5.255 2.779 5.691-2.49 7.121-4.717 1.281-5.88 3.453-4.333 8.092 1.554 4.66 1.414 6.327-.533 6.352-.773.01-.778.03-.097.394.524.278 1.13.27 2.232-.033 1.18-.324 1.637-.69 2.078-1.656.5-1.097.498-1.54-.021-3.84-.8-3.547-.436-4.23 2.956-5.529 1.335-.512 1.332-.504-.58 1.185L5.983 41.52l.22 2.217c.12 1.22.334 3.037.475 4.038.238 1.695.18 1.885-.84 2.752l-1.098.932 1.147-.12 1.146-.119.3-4.739c.342-5.38.862-6.742 2.968-7.778 1.768-.87 3.194-.815 6.918.263 3.593 1.041 4.452.896 5.683-.96l.741-1.117.12 1.725.12 1.725 1.052-.95c.873-.787 1.053-1.253 1.053-2.72 0-.975-.139-1.771-.308-1.771-.17 0-.854.368-1.52.82-1.765 1.192-4.164 2.11-4.87 1.862-.337-.118-.856-.751-1.155-1.407-.299-.654-.808-1.284-1.132-1.397-.323-.114-.588-.43-.588-.702 0-.272-.259-.691-.575-.931-.316-.241-.574-.796-.574-1.234 0-.554-.288-.863-.945-1.014-.93-.214-.941-.263-.716-2.941.214-2.543.152-2.863-.923-4.823-.634-1.154-1.71-3.6-2.391-5.434-.682-1.834-1.28-3.376-1.328-3.427-.05-.05-.654 1.032-1.345 2.405zm23.586 13.393c2.813 2.264 3.036 4.26 1.214 10.876l-1.231 4.467-.86-.74c-1.325-1.141-1.826-4.006-1.29-7.368.555-3.478.24-5.583-1.185-7.946l-1.12-1.855 1.532.716c.843.394 2.166 1.226 2.94 1.85zm22.342 1.67c.213 0 .656.593.985 1.317 1.242 2.733 4.517 4.952 8.91 6.036 3.88.958 5.91 4.332 4.63 7.695l-.422 1.112-1.454-1.904c-.8-1.047-1.578-2.274-1.728-2.726-.87-2.628-3.194-4.492-7.632-6.12-1.993-.732-2.848-1.279-3.731-2.39-1.198-1.506-2.37-3.454-3.019-5.019-.343-.826-.203-.77 1.346.539.951.803 1.903 1.46 2.115 1.46zm-12.094 2.243c.522.987 1.468 2.82 2.102 4.076.633 1.255 1.809 2.989 2.611 3.854l1.46 1.572-1.34-.866c-1.956-1.262-4.386-3.567-5.563-5.276-1.196-1.737-2.48-4.972-2.48-6.25v-.888l1.13.992c.621.546 1.557 1.8 2.08 2.786zm-26.378 2.32c-.38.387-.881.7-1.112.695-.23-.004.011-.317.538-.694 1.233-.885 1.447-.885.574 0zm41.073 10.221c3.855.84 4.888 1.276 6.26 2.649 1.363 1.362 1.6 2.124.806 2.593-.591.35-.585.367.068.178.644-.187.7-.061.517 1.185-.242 1.658-1.31 3.129-2.881 3.969l-1.141.61.195-2.227c.372-4.248-.889-5.994-6.231-8.634-3.734-1.846-4.648-2.474-2.275-1.565.744.285 2.85.844 4.682 1.242zM13.34 51.763c-1.168 1.503-1.34 3.396-.568 6.28.364 1.363.556 2.733.425 3.045-.2.479-.03.532 1.088.34 1.649-.284 7.626.577 10.936 1.576 3.523 1.063 5.208 1.92 7.299 3.712l1.826 1.566 3.336-3.968c4.161-4.948 4.358-5.312 3.399-6.285-.99-1.005-3.73-2.224-6.284-2.798-2.736-.613-7.743-.548-10.066.13l-1.834.537-1.804-1.267c-3.319-2.329-5.949-3.937-6.438-3.937-.267 0-.859.48-1.315 1.07z" fill="#000"/></svg>