<svg width="70" height="70" fill="none" xmlns="http://www.w3.org/2000/svg"><path fill-rule="evenodd" clip-rule="evenodd" d="M31.017.666C23.317 2.86 16.073 8.24 11.983 14.8 7.52 21.958 5.33 33.31 5.849 46.601c.133 3.405.038 5.78-.272 6.78-.594 1.921-2.58 3.955-4.284 4.39L0 58.1l1.348.032c.742.017 1.944-.188 2.67-.456 1.5-.555 3.993-2.661 3.993-3.375 0-1.04.684-.307 2.026 2.167 1.078 1.99 2.236 3.321 4.93 5.671 3.953 3.45 7.808 5.554 12.906 7.047 5.15 1.509 6.687.8 2.528-1.164l-2.465-1.164 2.275-.01c4.312-.02 7.42-2.314 7.352-5.426-.027-1.22-.05-1.2-.57.504-.763 2.502-1.851 3.164-4.949 3.012-3.259-.16-6.594-1.54-9.438-3.906-2.81-2.338-4.43-4.541-5.857-7.964-1.055-2.534-1.112-3.002-1.099-8.997.014-5.939.085-6.512 1.166-9.396 1.913-5.104 5.31-10.3 8.266-12.648 1.372-1.09.986-.437-1.166 1.97-3.878 4.34-6.179 10.092-6.222 15.556-.027 3.385.656 6.818 1.44 7.244.18.098.154-.352-.057-1-.211-.65-.384-2.587-.384-4.306 0-3.836.998-6.91 3.23-9.948 3.383-4.604 7.007-6.86 14.679-9.138 8.548-2.538 11.217-4.002 12.911-7.08.488-.885 1.04-1.61 1.227-1.61.187 0 .656.728 1.042 1.617 1.117 2.572.686 5.148-1.284 7.67-1.498 1.919-1.61 2.238-1.61 4.609v2.547l-1.335.113c-1.082.091-1.335.27-1.335.944v.832l1.951-.884c1.688-.764 2.368-.863 5.033-.733 2.044.1 3.635.403 4.725.901 6.416 2.932 6.98 9.059 1.404 15.263l-1.58 1.758.252 3.632c.246 3.545.221 3.687-1.026 5.9-.704 1.247-2.302 3.294-3.554 4.55-3.23 3.24-3.089 3.812.429 1.728 2.702-1.6 7.92-6.16 10.298-8.998 4.227-5.044 6.05-9.51 5.833-14.287-.2-4.378-1.42-6.476-6.237-10.72-4.853-4.274-5.559-5.616-6.04-11.476-.574-6.974-.927-7.682-5.978-11.947-4.965-4.193-6.439-5.14-9.452-6.071-2.867-.886-8.144-.885-11.259.002zm.185 32.733c-.816 1.72-.747 3.424.236 5.733.652 1.535 1.626 2.642 4.54 5.163 4.48 3.877 6.295 6.216 6.32 8.145.01.762.156 1.387.325 1.388.17 0 .308-.134.308-.3 0-.166 1.04-.979 2.312-1.807l2.31-1.506H46.12c-1.784 0-3.6-1.187-3.6-2.354 0-.47-.197-.963-.438-1.094a.558.558 0 01-.238-.7c.11-.254-.006-.644-.26-.867-.34-.3-.34-.512.003-.813.344-.303.34-.589-.02-1.11-.416-.602-.31-.825.748-1.575 1.183-.838 1.233-.99 1.233-3.738 0-2.436.143-3.036.96-4.008.528-.63.827-1.253.663-1.387-.164-.133-.368-.08-.454.12-.506 1.173-.947 1.44-1.7 1.03-.677-.369-.811-.244-1.234 1.148-.315 1.034-.76 1.641-1.32 1.797-1.153.322-4.15-1.269-5.806-3.082-1.64-1.795-2.663-1.85-3.455-.183z" fill="#000"/></svg>