<svg width="70" height="70" viewBox="0 0 70 70" fill="none" xmlns="http://www.w3.org/2000/svg">
<path d="M19.6624 7.89804L18.0247 8.36016C16.6291 7.46377 15.4898 7.28233 14.7208 7.28233C13.4822 7.28233 12.7701 7.74376 10.3635 8.55588C9.13868 8.96229 8.12786 9.25586 7.45811 9.42371C7.67173 10.768 7.88534 12.1258 8.09895 13.47C7.31571 14.1273 6.43291 14.9953 5.57846 16.1026C4.32512 17.7126 3.58474 19.2792 3.12917 20.4691C4.80959 20.9171 6.47578 21.3651 8.1562 21.8131L16.2304 22.4291C18.0674 21.9125 19.3206 21.0851 20.0184 20.5391C20.6023 20.0925 21.2716 19.5591 21.827 18.6352C22.4394 17.6426 22.6103 16.6752 22.6815 16.1026L23.9204 16.6626L24.2195 14.2827C23.9347 13.33 23.3793 11.9158 22.2827 10.4601C21.3713 9.25586 20.4029 8.43016 19.6624 7.89804ZM42.4621 5.43383C42.106 5.32239 41.8212 5.07026 41.7785 4.76241C41.7073 4.31386 42.106 3.79601 42.7469 3.72602C43.0175 2.8439 43.8862 2.34034 44.6409 2.49391C45.1963 2.60605 45.6378 3.06818 45.8087 3.64244C46.0935 3.6003 47.0049 3.48816 47.9448 4.00601C49.0414 4.59385 49.4259 5.5881 49.5255 5.82596C50.1806 6.05023 51.5762 6.65235 52.7582 8.05231C54.1823 9.73226 54.4102 11.5522 54.4529 12.2101C54.638 13.5679 53.8405 14.8693 52.5589 15.3453C51.3057 15.8072 49.8673 15.3733 49.0841 14.2827C47.2043 13.19 45.3245 12.0836 43.4305 10.9922L42.4621 5.43383Z" fill="black"/>
<path d="M43.5159 15.3873L39.1582 16.9692L34.4444 24.865C34.7862 25.2724 35.4128 25.943 36.4239 26.4469C37.4777 26.9789 38.4461 27.0923 38.9873 27.1189C39.7278 26.069 40.4826 25.033 41.2231 23.983L41.7785 30.1722C43.2595 30.3668 44.8972 30.5222 46.6631 30.5628C49.3831 30.6328 51.8326 30.4522 53.926 30.1722C54.1111 28.0429 54.2962 25.915 54.4814 23.787L56.6317 24.935C57.0874 24.7824 57.6998 24.529 58.3264 24.067C59.3375 23.325 59.8787 22.4431 60.135 21.9251C57.6998 19.6991 55.2504 17.4592 52.8152 15.2333L49.0841 14.2827C48.9702 14.4633 47.8309 16.0452 45.8514 16.1026C44.6836 16.1292 43.8292 15.6127 43.5159 15.3873ZM8.17 21.8131C10.8618 22.0231 13.5532 22.2331 16.2444 22.4291C16.0878 23.815 15.9169 25.187 15.7602 26.5729C19.235 28.6589 22.1686 30.1428 24.2336 31.1088C26.8397 32.3268 27.5517 32.5088 28.8334 33.4467C31.7955 35.5887 32.9205 38.152 34.3161 40.6285C35.726 43.1219 38.033 46.6064 41.8211 50.4717C40.753 51.9822 39.6992 53.4816 38.6311 54.9921L22.1259 39.6626C20.004 38.8786 17.8821 38.0946 15.746 37.2966C16.4011 38.1926 17.2983 39.482 18.2951 41.1045C19.648 43.3025 20.3173 44.4084 20.6306 45.3324C21.5136 47.9643 20.417 49.7283 18.4945 56.3221C18.053 57.8214 17.4407 60.046 16.7856 62.8179L10.8903 63.2113C11.6167 58.422 12.3427 53.6342 13.0692 48.8463C10.0074 44.9544 6.93119 41.0765 3.8694 37.1846C3.34263 36.6526 -0.844053 32.2848 0.152809 26.3923C0.651269 23.437 2.24608 21.4071 3.11449 20.4551C4.80944 20.9171 6.49 21.3651 8.17 21.8131Z" fill="black"/>
<path d="M28.5772 4.04815L29.5028 2.46605C29.2465 2.04607 28.6199 1.15034 27.4379 0.548248C25.8002 -0.277504 24.2337 0.0440524 23.8065 0.156161C23.365 0.0582704 21.5849 -0.305938 20.0896 0.716145C18.1529 2.04606 17.925 4.91602 18.8791 6.82025C19.5057 8.06593 20.5453 8.72378 21.058 9.00377H28.5629V4.04819L28.5772 4.04815ZM41.1092 51.3528C41.7785 51.3122 42.7611 51.1848 43.8576 50.7522C45.1251 50.2468 46.008 49.5468 46.5349 49.0723C46.9194 48.9029 47.3751 48.9589 47.66 49.2249C48.016 49.5468 48.0872 50.1222 47.8024 50.5548C47.5318 50.7522 47.1188 51.0588 46.6346 51.4648C44.47 53.2287 43.8861 54.1387 42.519 54.4747C42.1772 54.5587 41.6503 54.6427 40.9667 54.5587C41.1804 54.8121 41.394 55.0627 41.6076 55.3147L38.4176 57.9886C38.3179 57.9326 37.378 57.4146 37.1929 56.3086C37.0078 55.1187 37.848 54.3221 37.9192 54.2647C38.3749 54.1121 39.1724 53.7621 39.9272 53.0327C40.5822 52.4168 40.924 51.7588 41.1092 51.3528Z" fill="black"/>
<path d="M26.7259 3.88029C25.6293 3.50245 25.0312 2.74605 24.8318 2.46605C24.9458 2.94246 25.0597 3.76816 24.8746 4.76241C24.7037 5.67238 24.3192 6.3438 24.0628 6.75021C23.6783 6.38594 23.066 6.3438 22.6387 6.65235C22.1973 6.96021 22.0549 7.54805 22.297 8.02375C21.827 8.33231 21.3713 8.62588 20.9013 8.93373C21.471 9.48013 22.1545 10.2223 22.7811 11.2022C23.5359 12.3636 23.9774 13.4557 24.2337 14.2953C24.7179 13.7357 25.1879 13.1757 25.672 12.6158C26.6832 12.7 27.3097 12.4479 27.6658 12.2658C29.6595 11.1737 29.8446 7.9259 29.3035 5.84024C29.1041 5.07026 28.8193 4.48242 28.5914 4.07601C28.2212 4.09029 27.5234 4.16029 26.7259 3.88029ZM44.2422 5.1124C44.3846 4.98598 44.3276 4.73385 44.3276 4.72027C44.6979 4.94384 45.3245 5.39239 45.8229 6.19023C46.5207 7.29592 46.5349 8.37375 46.5065 8.80801C47.0049 8.41588 47.7027 8.43016 48.1157 8.80801C48.5999 9.25586 48.6141 10.1237 48.0302 10.628C47.9448 10.8101 47.5033 11.8179 47.9448 12.9236C48.2581 13.7079 48.842 14.1273 49.0698 14.2673C48.9559 14.4353 47.6742 16.1572 45.595 16.0872C44.5839 16.0592 43.8434 15.6127 43.5016 15.3733C43.5159 14.6033 43.5301 13.8336 43.5444 13.0779C43.1599 13.0636 42.4905 12.98 41.9351 12.5179C41.0522 11.8036 41.0095 10.6701 40.9668 9.66227C40.9383 8.90587 40.8528 6.61022 42.4621 5.42025C42.8608 5.12598 43.2453 4.98598 43.5159 4.9024C43.7437 5.21026 44.0855 5.23812 44.2422 5.1124Z" fill="black"/>
<path d="M20.9726 28.9529C20.8586 28.7569 20.8444 28.6169 20.702 28.4489C20.3887 28.0849 19.876 28.0149 19.4915 28.0023C19.4915 28.1829 19.52 28.4769 19.6482 28.7849C19.6909 28.8969 20.1324 29.9328 21.1292 30.0448C21.6276 30.1022 22.0264 29.9188 22.2258 29.7928C21.4568 29.5689 21.1292 29.2329 20.9726 28.9529ZM36.4097 26.4469C37.1929 26.8389 37.905 26.9929 38.3749 27.0629C37.9619 27.6369 37.3069 28.4349 36.367 29.2469C35.6549 29.8488 35.1138 30.3122 34.4302 30.5922C33.1343 31.1228 32.0093 30.7448 27.8367 29.4289C27.1958 29.2329 25.9142 28.8269 24.2195 28.2949L23.479 26.3923L22.3255 26.6289L21.7843 26.2649L23.2369 25.159L24.8034 26.6149H32.8495L34.6865 25.159C35.0426 25.523 35.598 26.0424 36.4097 26.4469Z" fill="black"/>
<path d="M60.0068 22.1771L62.1572 23.437L67.3551 17.2072C67.0703 14.0573 67.0703 12.4622 67.3551 12.4058C67.4975 12.3779 67.6969 12.7279 67.9675 13.4422C68.1526 10.9922 68.4659 10.3758 68.7365 10.348C69.2491 10.2922 70.1036 12.2658 69.9897 14.1553C69.9042 15.7233 69.1637 16.8992 68.6937 17.5292C68.3092 19.0132 67.3551 22.4571 66.0307 25.187C65.7744 25.733 65.3614 26.5169 64.4927 26.9369C64.2648 27.0489 63.4673 27.3989 61.6303 26.9369C60.6619 26.6989 59.0242 26.139 57.2868 24.697C57.7567 24.473 58.4403 24.0824 59.0954 23.409C59.5084 22.9624 59.8074 22.5271 60.0068 22.1771ZM14.7635 18.7752C15.6465 19.7831 16.1876 20.7771 16.5151 21.5051L15.2477 21.7991L19.9614 25.607C20.7732 25.5524 21.5707 25.4824 22.3824 25.425C22.6957 25.733 23.0517 26.055 23.4647 26.3769C23.9346 26.7423 24.3904 27.0349 24.8033 27.2729C24.7749 27.4549 24.5897 28.6589 23.4647 29.3589C23.2653 29.4849 22.4821 29.9622 21.471 29.7522C20.0469 29.4723 19.5057 28.0849 19.463 27.9869C17.868 27.6369 15.4898 26.9789 12.8129 25.733C10.4064 24.613 7.44413 23.213 7.54381 21.6451C7.58654 21.0151 8.54068 20.2171 10.4487 18.6492C11.3743 17.8932 12.1576 17.3052 12.6849 16.9272C13.3114 17.3472 14.0378 17.9492 14.7635 18.7752ZM13.2546 64.6112C12.6277 64.5258 12.1576 64.2739 11.8873 64.0919L12.4569 61.7959L15.9313 62.7059L15.5468 64.1479C15.2477 64.3159 14.379 64.7638 13.2546 64.6112ZM8.99624 8.99084L11.3604 5.5888C11.7732 5.37881 12.4996 4.94454 12.9269 4.11884C13.2546 3.50314 13.397 2.69103 13.2117 2.60675C13.1405 2.57889 12.9408 2.59317 12.2004 3.64314C12.0864 0.7868 11.7303 0.198957 11.4316 0.156818C10.8759 0.0731875 10.1216 2.24318 10.0643 2.41103C9.73663 3.37673 9.63708 4.23098 9.62313 4.79097C9.03911 5.29453 8.08497 6.10665 6.87449 7.08662C3.98359 9.43869 2.80146 10.1665 3.00111 10.9365C3.15748 11.5529 4.02632 11.8608 5.42206 12.3643C6.46122 12.7429 7.37292 12.8829 7.99938 12.9529C8.32706 11.6365 8.6546 10.3208 8.99624 8.99084ZM50.3803 44.0318C49.6682 44.7864 48.9134 45.5564 48.116 46.3264C45.6665 48.7217 43.2171 50.7922 40.8531 52.5982C41.736 54.0682 42.6759 55.8741 43.5161 57.988C44.2709 59.906 44.7836 61.6713 45.1254 63.2239C44.2709 63.4339 43.4022 63.6439 42.5478 63.8539C40.4971 61.9359 38.9448 60.186 37.8625 58.856C35.6409 56.1121 34.5159 54.7121 34.4305 52.9062C34.3593 51.2962 35.0001 50.1063 36.2533 47.8243C37.478 45.5718 38.8309 43.9044 39.7993 42.8265C36.2818 43.8918 32.75 44.9418 29.2325 46.0044C27.6518 46.9144 25.5584 47.9083 23.0235 48.7063C20.2181 49.5743 17.7117 49.9243 15.7607 50.0517L14.7068 47.6717C18.381 45.8784 21.2576 44.3118 23.1802 43.2325C26.9967 41.0919 28.9904 39.762 33.1061 37.6046C35.4558 36.3727 37.4068 35.4347 38.6315 34.8747C42.5478 37.9126 46.464 40.9645 50.3803 44.0318Z" fill="black"/>
<path d="M40.9952 33.0968C41.9209 31.9768 42.2199 30.8428 42.3339 30.2828C43.758 30.4522 45.3387 30.5768 47.0476 30.6188C48.9986 30.6188 50.7787 30.5222 52.3452 30.3668C52.6585 31.4028 52.9576 32.7188 53.0288 34.2727C53.1712 37.1286 52.5303 39.4386 51.9749 40.8819C51.3768 42.0425 50.7929 43.1919 50.1948 44.3524C48.8419 43.6524 47.2327 42.9245 45.3529 42.2945C43.7152 41.7345 42.1772 41.3565 40.8386 41.1045C40.8671 40.8525 40.9667 40.3345 41.3655 39.8726C41.5079 39.692 41.6788 39.5646 41.807 39.482C41.2943 39.1166 40.6392 38.572 40.0268 37.7726C39.1724 36.6667 38.8021 35.5747 38.617 34.8747C39.1439 34.6521 40.1265 34.1327 40.9952 33.0968Z" fill="black"/>
<path d="M53.8405 29.9328C49.9813 29.7522 46.0792 29.8768 42.22 29.8768C41.9209 29.8768 41.9209 30.3388 42.22 30.3388C46.0792 30.2828 49.9813 30.3248 53.8405 30.0868C53.9402 30.0728 53.9402 29.9328 53.8405 29.9328ZM46.3641 16.1026C47.3467 15.8492 48.6996 15.4153 49.1268 14.4073C49.198 14.2393 48.9701 14.0993 48.8705 14.2673C48.3578 15.0653 47.3752 15.4027 46.478 15.6533C45.4242 15.9626 44.3846 15.7932 43.5301 15.0933C43.3308 14.9253 43.0175 15.2193 43.2311 15.3873C44.1282 16.1292 45.239 16.3952 46.3641 16.1026ZM59.8359 22.0791C58.6397 21.0431 57.3723 20.0771 56.1903 19.0272C55.0083 17.9772 53.8832 16.8432 52.687 15.8073C52.6728 15.7933 52.6443 15.7792 52.6301 15.7932C52.6301 15.6533 52.6443 15.4993 52.6443 15.3593C52.6443 15.2473 52.4592 15.2193 52.4307 15.3327C52.0177 17.3472 52.274 19.5871 53.0003 21.5891C52.9434 21.5625 52.8579 21.6171 52.9006 21.6871C53.043 21.9251 53.1712 22.1491 53.3136 22.3871C53.5272 22.863 53.7551 23.325 54.0114 23.745C54.0684 23.843 54.1681 23.843 54.2393 23.8024C54.2962 23.885 54.3674 23.955 54.4244 24.039C54.5241 24.1524 54.7235 23.997 54.638 23.8724C54.4386 23.563 54.2108 23.269 53.9972 22.975C53.9402 22.849 53.8833 22.7371 53.8263 22.6125C54.6807 23.5224 55.7061 24.179 56.9023 24.6424C57.0305 24.697 57.1302 24.473 57.002 24.417C56.3184 24.109 55.6349 23.843 55.0368 23.395C54.4956 22.989 54.0684 22.4571 53.57 22.0231C53.3563 21.4925 53.1712 20.9451 53.0288 20.3851C54.282 21.9251 56.0194 23.325 57.7283 24.319C57.8992 24.417 58.0416 24.165 57.8849 24.053C57.002 23.409 56.1048 22.807 55.2646 22.0931C54.4814 21.4351 53.7693 20.7071 53.0146 20.0225C52.9861 20.0071 52.9576 19.9931 52.9434 19.9931C52.9149 19.8531 52.8722 19.7131 52.8437 19.5731C52.744 19.0692 52.6728 18.5652 52.6443 18.0626C52.6443 18.0752 52.6443 18.0752 52.6585 18.0892C53.4845 19.2232 54.4956 20.2731 55.4355 21.3231C56.3042 22.2891 57.2868 23.227 58.4831 23.8024C58.654 23.885 58.8106 23.647 58.6397 23.535C57.472 22.807 56.5036 22.0231 55.5779 21.0151C54.6523 20.0225 53.7693 18.9292 52.7725 18.0052C52.7297 17.9632 52.6585 18.0052 52.6443 18.0472C52.6158 17.7126 52.6158 17.3892 52.6158 17.0532C53.5557 18.1592 54.6523 19.1392 55.7203 20.1191C56.8026 21.1131 57.8992 22.0931 59.0669 22.989C59.2093 23.1024 59.423 22.905 59.2805 22.7791C58.1555 21.8271 57.002 20.9171 55.9055 19.9231C54.8089 18.9432 53.7978 17.8652 52.7013 16.8992C52.6728 16.8726 52.6301 16.8726 52.6016 16.8852C52.6016 16.5632 52.6158 16.2552 52.6158 15.9332C53.6412 17.1652 54.8516 18.2572 56.0621 19.3351C57.2156 20.3571 58.3976 21.4225 59.6651 22.3031C59.7932 22.4025 59.9641 22.1925 59.8359 22.0791ZM40.3971 19.9791C39.2863 22.0371 38.1471 24.0824 37.136 26.1824C37.0505 26.3629 37.3069 26.5169 37.4065 26.3349C38.5316 24.277 39.5142 22.1631 40.5253 20.0491C40.5823 19.9651 40.4541 19.8951 40.3971 19.9791ZM36.1106 25.677C37.3781 23.395 38.5458 21.0725 39.7563 18.7626C39.799 18.6926 39.6851 18.6226 39.6424 18.6926C38.3749 20.9591 37.0505 23.213 35.84 25.509C35.7261 25.6924 35.9967 25.859 36.1106 25.677ZM41.1377 23.535C41.0807 24.319 41.0807 25.1324 41.2089 25.873C41.2231 25.9724 41.3798 25.943 41.3798 25.845C41.394 25.607 41.4082 25.355 41.4082 25.103C41.4652 25.103 41.5079 25.075 41.5079 24.9924C41.4652 22.3731 41.2373 19.0132 39.1867 17.0672C39.087 16.9692 38.9446 17.1092 39.03 17.2226C39.1155 17.3332 39.2009 17.4326 39.2863 17.5432C38.4177 18.5526 37.8195 19.7831 37.1645 20.9325C36.4097 22.2751 35.5552 23.605 34.9002 25.005C34.8432 25.1324 35.0141 25.243 35.0995 25.117C35.897 23.899 36.5521 22.5691 37.2499 21.2951C37.9192 20.0925 38.4889 18.7332 39.3575 17.6426C40.0411 18.5932 40.4968 19.6025 40.7674 20.7631C40.8528 21.1271 40.9098 21.5051 40.9668 21.8691C40.0696 23.465 39.0015 25.033 38.261 26.6989C38.1898 26.8529 38.4034 26.9789 38.5031 26.8389C39.5 25.4124 40.2262 23.745 41.0095 22.1771C41.0665 22.6391 41.1092 23.087 41.1377 23.535ZM19.6624 27.9323C19.6197 27.9323 19.6054 27.9869 19.6482 28.0023C19.9615 28.0723 20.3032 28.1423 20.5453 28.3649C20.759 28.5623 20.8444 28.8689 21.0295 29.0789C21.3286 29.4023 21.7558 29.6529 22.1688 29.8068C22.2827 29.8488 22.3254 29.6823 22.24 29.6249C21.9552 29.4289 21.6276 29.2889 21.3571 29.0649C21.115 28.8549 21.001 28.5749 20.7874 28.3369C20.5169 28.0023 20.0896 27.8889 19.6624 27.9323ZM23.9774 27.1623C23.8919 26.9089 23.7923 26.6849 23.6641 26.4469C23.6783 26.3769 23.6071 26.2929 23.5217 26.3069C22.9948 26.4189 22.3682 26.7689 21.9125 26.3489C22.0121 26.265 22.0691 26.139 22.1688 26.055C22.297 25.943 22.4394 25.8324 22.5818 25.7624C22.6387 25.733 22.596 25.649 22.5391 25.663C22.3539 25.719 22.1973 25.775 22.0406 25.9024C21.9125 25.999 21.7273 26.097 21.6846 26.2789C21.6704 26.3349 21.6989 26.3923 21.7558 26.4049C22.1546 26.9523 22.9663 26.6723 23.5217 26.5589C23.6499 26.8389 23.7495 27.1469 23.8207 27.4549C23.8777 27.7069 23.8635 28.0023 24.0059 28.2123C24.0913 28.3369 24.2765 28.2249 24.2052 28.0989C24.1056 27.7923 24.0771 27.4689 23.9774 27.1623ZM27.9648 42.5619C27.8367 42.4345 27.7512 42.2665 27.6088 42.1685C27.5376 42.1265 27.4237 42.1965 27.4664 42.2819C27.5376 42.4485 27.7085 42.5619 27.8367 42.6865C27.9791 42.8125 28.1215 42.9385 28.2781 43.0519C28.3493 43.1065 28.449 42.9819 28.3778 42.9245C28.2354 42.8125 28.093 42.6865 27.9648 42.5619ZM36.4951 53.4662C36.31 53.5082 36.1249 53.4942 35.9397 53.4522C35.7831 53.4116 35.6549 53.3122 35.4983 53.2982C35.4271 53.2842 35.3416 53.3542 35.3986 53.4242C35.6264 53.7462 36.1961 53.7042 36.5379 53.6062C36.6233 53.5782 36.5806 53.4522 36.4951 53.4662ZM39.4003 43.3319C39.7278 43.0519 39.9129 42.6165 40.1408 42.2525C40.3829 41.8325 40.6107 41.4125 40.8671 41.0065C40.924 40.9085 40.7816 40.8385 40.7247 40.9225C40.4399 41.3145 40.1408 41.6925 39.8702 42.0985C39.6281 42.4485 39.3433 42.8265 39.2579 43.2465C39.2294 43.3445 39.3291 43.4019 39.4003 43.3319ZM50.5082 43.1065C47.7597 41.8045 44.7976 40.7419 41.8924 39.8026C42.4621 38.992 43.0317 38.2066 43.6298 37.4226C44.1995 36.682 44.6124 35.9527 44.7833 35.0287L44.8118 35.0567C44.9827 35.2121 45.239 35.4221 45.4811 35.4221C45.5808 35.4221 45.6235 35.3087 45.5523 35.2387C45.4099 35.0847 45.1536 34.9867 44.9685 34.8747C45.4384 34.7767 45.8087 33.9367 45.9796 33.6021C46.4353 32.7328 46.5207 31.7388 46.7486 30.8148C46.777 30.6748 46.5634 30.6188 46.5207 30.7588C46.3213 31.4028 46.2644 32.0888 46.0792 32.7328C45.9796 33.0968 45.3814 34.6927 44.8403 34.7067C44.8118 34.7067 44.7833 34.7221 44.7691 34.7347C44.7548 34.7221 44.7548 34.7221 44.7406 34.7067C44.7548 34.7067 44.7548 34.6927 44.7548 34.6787C45.1963 33.3627 45.7232 32.0328 46.0792 30.6888C46.1077 30.5768 45.9511 30.5348 45.9084 30.6468C45.3957 31.9348 45.0397 33.3067 44.6409 34.6227C44.5555 34.5387 44.47 34.4421 44.3846 34.3427C44.3276 34.2867 44.2279 34.3567 44.2707 34.4267C44.3846 34.6087 44.527 34.7921 44.6836 34.9447C44.6836 34.9447 44.6694 34.9587 44.6694 34.9727C44.3988 36.0227 43.7153 36.9046 43.0175 37.7166C42.7042 38.082 42.3624 38.4726 42.0776 38.8786C42.0918 38.8366 42.0918 38.7946 42.0491 38.7526C40.8244 37.5066 39.9129 36.2747 39.3148 34.6367C39.2721 34.5247 39.1012 34.5667 39.1439 34.6787C39.5854 36.2747 40.5395 37.8986 41.8639 38.9486C41.9351 39.0046 42.0063 38.992 42.0491 38.9486C41.8497 39.2426 41.6788 39.552 41.5649 39.8866C41.5364 39.9566 41.5934 40.0126 41.6503 40.0266C41.6646 40.042 41.6788 40.0545 41.7073 40.0685C44.5982 41.1465 47.5176 42.2665 50.4512 43.2465C50.5224 43.2465 50.5794 43.1345 50.5082 43.1065ZM41.6931 32.7468C42.9462 32.3422 43.9716 31.6268 44.7548 30.5922C44.8118 30.5222 44.6979 30.4368 44.6409 30.5068C43.8292 31.4168 42.7896 32.1028 41.6076 32.4668C41.4367 32.5228 41.5079 32.8028 41.6931 32.7468ZM52.7582 33.3067C52.0604 33.0548 51.4623 32.6768 50.9069 32.1868C50.4085 31.7668 49.8388 31.3048 49.5967 30.6888C49.5398 30.5488 49.3404 30.6048 49.3689 30.7448C49.5255 31.4322 50.1949 31.9348 50.6933 32.3828C51.2772 32.9022 51.9038 33.3487 52.6728 33.5727C52.8721 33.6427 52.9434 33.3767 52.7582 33.3067ZM44.883 12.7553C45.6235 12.6996 46.3356 12.4753 46.9337 12.0275C47.0761 11.9296 46.9337 11.7054 46.8055 11.8032C46.2217 12.2375 45.5951 12.5318 44.883 12.6718C44.8261 12.6718 44.8261 12.7553 44.883 12.7553ZM47.1188 9.99756C47.2185 9.91328 47.3182 9.81542 47.4179 9.73184C47.4749 9.67543 47.5603 9.61971 47.603 9.54971C47.6457 9.7597 47.5461 9.9697 47.4606 10.1518C47.4179 10.2633 47.603 10.3197 47.6457 10.2076C47.7454 9.92756 47.8594 9.57757 47.6742 9.31186C47.5461 9.12972 47.3182 9.03186 47.1046 9.1433C47.0334 9.17186 47.0904 9.2833 47.1616 9.25544C47.3324 9.18544 47.5033 9.2833 47.5745 9.42329C47.4606 9.42329 47.3894 9.54971 47.3182 9.61971C47.2328 9.71756 47.1331 9.81542 47.0476 9.91328C46.9764 9.9697 47.0476 10.0397 47.1188 9.99756ZM11.0894 62.832C11.0182 62.8614 10.947 62.888 10.8618 62.916C10.6622 62.986 10.6767 63.308 10.9186 63.294C11.9728 63.252 13.0264 63.1414 14.08 63.042C14.977 62.958 16.0166 63.0014 16.871 62.678C16.9707 62.636 16.9423 62.496 16.8283 62.5114C15.0055 62.818 13.112 62.706 11.2607 62.874C11.2318 62.818 11.1466 62.804 11.0894 62.832ZM14.5925 26.8825C14.4928 26.8125 14.3647 26.9371 14.4501 27.0225C14.9913 27.4831 15.2049 27.945 15.8884 28.239C16.5435 28.519 17.284 28.715 18.0103 28.673C18.2097 28.659 18.1955 28.407 18.0103 28.379C17.3125 28.295 16.6574 28.225 16.0024 27.973C15.3758 27.7224 15.0909 27.2871 14.5925 26.8825ZM12.7131 31.5723C12.2715 30.5224 11.7591 29.513 11.4031 28.435C11.0471 27.3571 10.7479 26.2651 10.5198 25.1591C10.5058 25.0891 10.4063 25.1171 10.4202 25.1871C10.7194 27.3725 11.3319 29.737 12.4851 31.6689C12.5424 31.7823 12.77 31.7123 12.7131 31.5723ZM6.16233 22.9626C6.23353 22.8772 6.1196 22.7526 6.03387 22.8352C4.36783 24.4325 2.58772 25.5931 0.352046 26.2525C0.152845 26.3071 0.237963 26.6291 0.437662 26.5591C2.60213 25.9431 4.75219 24.6971 6.16233 22.9626ZM2.57377 21.7852C4.46738 22.1492 6.21915 22.9192 8.0988 23.3252C8.19892 23.3532 8.24121 23.2132 8.14167 23.1726C6.36156 22.5692 4.52463 21.6032 2.61606 21.4926C2.4597 21.4926 2.41697 21.7572 2.57377 21.7852ZM10.8903 32.0749C11.3887 32.3129 12.0011 32.3549 12.5847 32.2849C13.1972 33.1949 13.8097 34.1189 14.3931 35.0428C14.977 35.9822 15.4897 36.9888 16.1163 37.8988C16.216 38.0388 16.4296 37.9268 16.3584 37.7588C15.4754 35.7988 14.0516 33.9523 12.7131 32.2569C13.0548 32.2023 13.3968 32.1029 13.6817 31.9769C13.7385 31.9489 13.6956 31.8649 13.6388 31.8789C13.1972 32.0049 12.756 32.1029 12.2999 32.1029C11.8303 32.1029 11.4171 31.9629 10.9615 31.8929C10.8618 31.8789 10.7762 32.0189 10.8903 32.0749ZM9.08171 23.9426C9.82224 24.5725 10.6482 25.1031 11.5027 25.5525C13.354 26.5171 15.4612 27.2325 17.5119 27.637C17.7255 27.679 17.8252 27.3725 17.6116 27.3025C15.7318 26.7425 13.8524 26.3071 12.0723 25.4671C10.4202 24.6831 8.17001 23.4372 7.51521 21.6452C7.48687 21.5626 7.3728 21.6032 7.38676 21.6872C7.51521 22.5972 8.41253 23.3672 9.08171 23.9426ZM7.6861 14.0294C8.15605 13.778 8.54056 13.358 8.9393 13.0223C9.4806 12.5602 10.0358 12.1681 10.705 11.9159C10.7762 11.8881 10.7479 11.7759 10.6767 11.8038C10.0786 12.0002 9.53742 12.2381 9.0105 12.6023C8.49769 12.9659 7.89972 13.3859 7.51521 13.8759C7.45796 13.9737 7.60037 14.0728 7.6861 14.0294ZM12.5847 17.2353C13.2828 16.7734 13.8664 16.1434 14.564 15.6674C15.2618 15.1928 16.0166 14.8274 16.7571 14.4228C16.8283 14.3934 16.7714 14.2828 16.7002 14.3094C15.8599 14.5894 15.0625 15.0374 14.3219 15.5134C13.6673 15.9334 12.884 16.4374 12.4139 17.0828C12.3427 17.1654 12.4851 17.2927 12.5847 17.2353ZM22.5389 16.2554C22.6671 16.4654 22.9661 16.2834 22.8665 16.0594C21.8554 13.848 20.3458 11.7481 18.822 9.83026C18.7651 9.76026 18.6654 9.84384 18.7081 9.91384C20.0752 11.9859 21.2288 14.1554 22.5389 16.2554ZM23.9915 10.0824C23.7494 9.62027 23.5927 9.14386 23.4931 8.62602C23.4788 8.51388 23.3079 8.5703 23.3222 8.66816C23.3934 9.17242 23.5358 9.66241 23.7352 10.1238C23.9203 10.5302 24.1339 11.0202 24.5184 11.2581C24.5896 11.3002 24.7035 11.2302 24.6608 11.1459C24.5184 10.7681 24.1909 10.446 23.9915 10.0824ZM22.781 7.59033C22.8807 7.50605 22.8807 7.33819 22.9377 7.22606C22.9661 7.2682 22.9804 7.32391 23.0089 7.36605C23.0374 7.42247 23.0801 7.49247 23.1086 7.54819C23.1513 7.61819 23.251 7.56247 23.2082 7.49247C23.1798 7.42247 23.1513 7.36605 23.1228 7.29605C23.0943 7.22606 23.0516 7.17034 23.0373 7.10034C23.1513 7.01606 23.3079 6.9882 23.4361 7.04392C23.5215 7.08606 23.5785 6.97392 23.5073 6.93248C23.3222 6.80607 23.0801 6.83393 22.8949 6.97392C22.7383 7.10034 22.5104 7.36605 22.6101 7.57605C22.6528 7.63247 22.7383 7.61819 22.781 7.59033ZM21.8838 65.5207C21.1718 65.5613 20.0325 65.5333 18.7366 65.1273C17.6116 64.7633 16.7714 64.2453 16.2302 63.8533C15.8172 64.0633 15.1194 64.3433 14.2084 64.4133C13.1543 64.4973 12.3288 64.2607 11.8726 64.0913C11.7731 64.0913 10.6055 64.1753 9.97903 65.1973C9.38048 66.1632 9.77937 67.1572 9.82224 67.2552L14.0233 67.2132V66.2206C14.4928 66.7106 14.9485 66.9752 15.2761 67.1306C16.5577 67.7312 17.5831 67.3952 20.4028 67.4106C21.0436 67.4106 21.5705 67.4372 21.8981 67.4512C22.4108 67.2972 22.7241 66.8212 22.6671 66.3452C22.5959 65.9672 22.2968 65.6312 21.8838 65.5207ZM45.1254 63.2239C44.2709 63.4339 43.4022 63.6439 42.5478 63.8539C42.3484 64.6812 41.9492 65.8272 41.0948 66.9472C40.1122 68.2212 39.1865 68.6272 39.3147 69.1732C39.4856 69.8451 41.1518 70.1951 42.4619 69.8871C44.5411 69.3971 45.4525 67.3112 45.6092 66.9472C46.0506 67.3952 46.4921 67.8572 46.9336 68.3052C47.3038 67.9832 47.6598 67.6612 48.0301 67.3406C48.0016 66.8912 47.8592 65.8972 47.1472 64.8753C46.4351 63.8813 45.5384 63.4059 45.1254 63.2239ZM11.9579 52.0376C11.1035 51.9676 9.79333 51.7437 8.48331 50.9317C6.10465 49.4337 4.96538 46.6338 5.42152 46.2558C5.69195 46.0178 6.44672 46.8158 8.4121 47.5312C9.66487 47.9918 10.7758 48.1738 11.5162 48.2578C11.9011 48.3138 12.4418 48.3417 13.0972 48.2438C13.8093 48.1318 14.35 47.8938 14.706 47.6978C15.062 48.4957 15.4038 49.2811 15.7598 50.0777C15.6601 50.6517 15.3753 51.8836 14.3927 53.0876C13.4532 54.2356 12.3567 54.7676 11.8155 54.9916L10.6051 53.3256C11.0467 52.8776 11.5022 52.4576 11.9579 52.0376Z" fill="black"/>
</svg>
