<svg width="70" height="70" fill="none" xmlns="http://www.w3.org/2000/svg"><path d="M19.662 7.898l-1.637.462c-1.396-.896-2.535-1.078-3.304-1.078-1.239 0-1.95.462-4.357 1.274-1.225.406-2.236.7-2.906.868.214 1.344.427 2.702.641 4.046a16.994 16.994 0 00-2.52 2.633 16.917 16.917 0 00-2.45 4.366c1.68.448 3.347.896 5.027 1.344l8.074.616c1.837-.516 3.09-1.344 3.788-1.89.584-.447 1.254-.98 1.809-1.904.612-.992.783-1.96.854-2.532l1.24.56.299-2.38a12.167 12.167 0 00-4.558-6.385zm22.8-2.464c-.356-.112-.64-.364-.684-.672-.07-.448.328-.966.969-1.036.27-.882 1.14-1.386 1.894-1.232.555.112.997.574 1.168 1.148.285-.042 1.196-.154 2.136.364 1.096.588 1.48 1.582 1.58 1.82a7.47 7.47 0 013.233 2.226 7.257 7.257 0 011.695 4.158 2.934 2.934 0 01-1.894 3.135 3.017 3.017 0 01-3.475-1.062c-1.88-1.093-3.76-2.2-5.654-3.29l-.968-5.56z" fill="#000"/><path d="M43.516 15.387l-4.358 1.582-4.714 7.896a6.132 6.132 0 001.98 1.582 6.39 6.39 0 002.563.672c.74-1.05 1.496-2.086 2.236-3.136l.556 6.19c1.48.194 3.118.35 4.884.39 2.72.07 5.17-.11 7.263-.39l.555-6.386 2.15 1.148a6.076 6.076 0 001.695-.868 5.96 5.96 0 001.809-2.142l-7.32-6.692-3.73-.95c-.115.18-1.254 1.762-3.234 1.82a3.94 3.94 0 01-2.335-.716zM8.17 21.813c2.692.21 5.383.42 8.074.616-.156 1.386-.327 2.758-.484 4.144a93.837 93.837 0 008.474 4.536c2.606 1.218 3.318 1.4 4.6 2.338 2.962 2.142 4.086 4.705 5.482 7.181 1.41 2.494 3.717 5.978 7.505 9.844-1.068 1.51-2.122 3.01-3.19 4.52l-16.505-15.33c-2.122-.783-4.244-1.567-6.38-2.365a57.275 57.275 0 012.55 3.808c1.352 2.198 2.021 3.303 2.335 4.227.883 2.632-.214 4.396-2.137 10.99-.441 1.5-1.053 3.724-1.708 6.496l-5.896.393 2.18-14.365c-3.063-3.892-6.139-7.77-9.2-11.661-.527-.532-4.714-4.9-3.717-10.793.498-2.955 2.093-4.985 2.961-5.937 1.695.462 3.376.91 5.056 1.358z" fill="#000"/><path d="M28.577 4.048l.926-1.582A5.19 5.19 0 0027.438.548C25.8-.278 24.234.044 23.807.156c-.442-.098-2.222-.462-3.717.56-1.937 1.33-2.165 4.2-1.21 6.104.626 1.246 1.665 1.904 2.178 2.184h7.505V4.048h.014zM41.11 51.353a8.938 8.938 0 002.749-.6 8.923 8.923 0 002.677-1.68c.384-.17.84-.114 1.125.152.356.322.427.897.142 1.33-.27.197-.683.504-1.167.91-2.165 1.764-2.749 2.674-4.116 3.01-.342.084-.869.168-1.552.084l.64.756-3.19 2.674c-.1-.056-1.039-.574-1.224-1.68-.185-1.19.655-1.987.726-2.044a5.412 5.412 0 002.008-1.232 5.252 5.252 0 001.182-1.68z" fill="#000"/><path d="M26.726 3.88a3.913 3.913 0 01-1.894-1.414c.114.476.228 1.302.043 2.296-.171.91-.556 1.582-.812 1.988a1.134 1.134 0 00-1.424-.098 1.078 1.078 0 00-.342 1.372c-.47.308-.926.602-1.396.91.57.546 1.253 1.288 1.88 2.268a12.289 12.289 0 011.453 3.093c.484-.56.954-1.12 1.438-1.68 1.011.085 1.638-.167 1.994-.35 1.994-1.091 2.179-4.34 1.637-6.425a7.333 7.333 0 00-.712-1.764c-.37.014-1.068.084-1.865-.196zm17.516 1.232c.143-.126.086-.378.086-.392.37.224.996.672 1.495 1.47a4.445 4.445 0 01.684 2.618c.498-.392 1.196-.378 1.609 0 .484.448.498 1.316-.086 1.82-.085.182-.527 1.19-.085 2.296a2.852 2.852 0 001.125 1.343c-.114.168-1.396 1.89-3.475 1.82-1.011-.028-1.752-.474-2.093-.714l.042-2.295c-.384-.014-1.053-.098-1.609-.56-.883-.714-.925-1.848-.968-2.856-.029-.756-.114-3.052 1.495-4.242a3.43 3.43 0 011.054-.518c.228.308.57.336.726.21zM20.973 28.953c-.114-.196-.129-.336-.271-.504-.313-.364-.826-.434-1.21-.447 0 .18.028.475.156.783.043.112.484 1.148 1.481 1.26.499.057.897-.126 1.097-.252-.77-.224-1.097-.56-1.253-.84zm15.437-2.506a6.525 6.525 0 001.965.616 12.746 12.746 0 01-2.008 2.184c-.712.602-1.253 1.065-1.937 1.345-1.296.53-2.42.153-6.593-1.163-.641-.196-1.923-.602-3.617-1.134l-.741-1.903-1.153.237-.542-.364 1.453-1.106 1.566 1.456h8.046l1.838-1.456c.356.364.911.883 1.723 1.288z" fill="#000"/><path d="M60.007 22.177l2.15 1.26 5.198-6.23c-.285-3.15-.285-4.745 0-4.801.142-.028.342.322.612 1.036.186-2.45.499-3.066.77-3.094.512-.056 1.367 1.918 1.253 3.807-.086 1.568-.826 2.744-1.296 3.374-.385 1.484-1.339 4.928-2.663 7.658-.257.546-.67 1.33-1.538 1.75-.228.112-1.026.462-2.863 0-.968-.238-2.606-.798-4.343-2.24a6.282 6.282 0 001.808-1.288c.413-.447.712-.882.912-1.232zm-45.243-3.402a10.975 10.975 0 011.751 2.73l-1.267.294 4.713 3.808c.812-.055 1.61-.125 2.421-.182a11.64 11.64 0 002.42 1.848c-.027.182-.212 1.386-1.337 2.086-.2.126-.983.603-1.994.393-1.424-.28-1.965-1.667-2.008-1.765a32.244 32.244 0 01-6.65-2.254c-2.407-1.12-5.369-2.52-5.27-4.088.044-.63.998-1.428 2.906-2.996a46.033 46.033 0 012.236-1.722c.626.42 1.353 1.022 2.079 1.848zm-1.51 45.836a3.253 3.253 0 01-1.367-.52l.57-2.295 3.474.91-.384 1.442c-.3.168-1.168.616-2.292.463zM8.997 8.991l2.364-3.402c.413-.21 1.14-.644 1.567-1.47.328-.616.47-1.428.285-1.512-.072-.028-.271-.014-1.012 1.036C12.086.787 11.73.2 11.432.157c-.556-.084-1.31 2.086-1.368 2.254a8.207 8.207 0 00-.44 2.38 115.78 115.78 0 01-2.75 2.296c-2.89 2.352-4.073 3.08-3.873 3.85.156.616 1.025.924 2.421 1.427 1.04.379 1.95.519 2.577.589.328-1.316.656-2.632.997-3.962zM50.38 44.03a69.412 69.412 0 01-2.264 2.295 78.654 78.654 0 01-7.263 6.272 37.12 37.12 0 012.663 5.39 34.707 34.707 0 011.61 5.236c-.855.21-1.724.42-2.578.63a50.725 50.725 0 01-4.686-4.998c-2.221-2.744-3.346-4.144-3.431-5.95-.072-1.61.57-2.8 1.822-5.082a26.2 26.2 0 013.546-4.997c-3.517 1.065-7.049 2.115-10.566 3.177a31.44 31.44 0 01-6.21 2.702 31.56 31.56 0 01-7.262 1.346l-1.054-2.38c3.674-1.794 6.55-3.36 8.473-4.44 3.817-2.14 5.81-3.47 9.926-5.627 2.35-1.232 4.3-2.17 5.526-2.73 3.916 3.038 7.832 6.09 11.748 9.157z" fill="#000"/><path d="M40.995 33.097a6.396 6.396 0 001.339-2.814c1.424.17 3.005.294 4.714.336 1.95 0 3.73-.097 5.297-.252.313 1.036.613 2.352.684 3.906a16.218 16.218 0 01-1.054 6.609c-.598 1.16-1.182 2.31-1.78 3.47a34.012 34.012 0 00-4.842-2.057 32.714 32.714 0 00-4.514-1.19c.028-.252.128-.77.526-1.232.143-.181.314-.308.442-.391a8.262 8.262 0 01-1.78-1.71 8.051 8.051 0 01-1.41-2.897 6.426 6.426 0 002.378-1.778z" fill="#000"/><path d="M53.84 29.933c-3.859-.18-7.76-.056-11.62-.056-.3 0-.3.462 0 .462 3.86-.056 7.761-.014 11.62-.252.1-.014.1-.154 0-.154zm-7.476-13.83c.983-.254 2.336-.688 2.763-1.696.071-.168-.157-.308-.257-.14-.512.798-1.495 1.136-2.392 1.386-1.054.31-2.093.14-2.948-.56-.2-.168-.513.126-.299.294.897.742 2.008 1.008 3.133.716zm13.472 5.976c-1.196-1.036-2.464-2.002-3.646-3.052-1.182-1.05-2.307-2.184-3.503-3.22-.014-.014-.043-.028-.057-.014 0-.14.014-.294.014-.434 0-.112-.185-.14-.213-.026-.413 2.014-.157 4.254.57 6.256-.058-.026-.143.028-.1.098.142.238.27.462.413.7.213.476.441.938.697 1.358.057.098.157.098.228.057.057.083.128.153.185.237.1.113.3-.042.214-.167-.2-.309-.427-.603-.64-.897-.058-.126-.115-.238-.172-.363.855.91 1.88 1.567 3.076 2.03.129.055.228-.169.1-.225-.684-.308-1.367-.574-1.965-1.022-.541-.406-.969-.938-1.467-1.372a12.91 12.91 0 01-.541-1.638c1.253 1.54 2.99 2.94 4.7 3.934.17.098.313-.154.156-.266-.883-.644-1.78-1.246-2.62-1.96-.784-.658-1.496-1.386-2.25-2.07a.22.22 0 00-.072-.03c-.028-.14-.07-.28-.1-.42-.099-.504-.17-1.008-.199-1.51 0 .012 0 .012.014.026.826 1.134 1.838 2.184 2.777 3.234.87.966 1.852 1.904 3.048 2.48.171.082.328-.156.157-.268a14.236 14.236 0 01-3.062-2.52c-.926-.992-1.809-2.086-2.806-3.01-.042-.042-.114 0-.128.042-.028-.334-.028-.658-.028-.994.94 1.106 2.036 2.086 3.104 3.066 1.083.994 2.18 1.974 3.347 2.87.142.113.356-.084.214-.21-1.125-.952-2.279-1.862-3.375-2.856-1.097-.98-2.108-2.058-3.205-3.024-.028-.026-.07-.026-.1-.014 0-.322.015-.63.015-.952 1.025 1.232 2.236 2.324 3.446 3.402 1.154 1.022 2.336 2.087 3.603 2.968.128.1.3-.11.17-.224zm-19.439-2.1c-1.11 2.058-2.25 4.103-3.261 6.203-.086.18.17.335.27.153 1.126-2.058 2.108-4.172 3.12-6.286.056-.084-.072-.154-.129-.07zm-4.286 5.698c1.267-2.282 2.435-4.604 3.645-6.914.043-.07-.07-.14-.114-.07-1.267 2.266-2.592 4.52-3.802 6.816-.114.183.157.35.27.168zm5.027-2.142c-.057.784-.057 1.597.07 2.338.015.1.172.07.172-.028.014-.238.028-.49.028-.742.057 0 .1-.028.1-.11-.043-2.62-.27-5.98-2.321-7.926-.1-.098-.242.042-.157.156.085.11.17.21.256.32-.868 1.01-1.467 2.24-2.122 3.39-.754 1.342-1.609 2.672-2.264 4.072-.057.127.114.238.2.112.797-1.218 1.452-2.548 2.15-3.822.67-1.203 1.239-2.562 2.108-3.652.683.95 1.139 1.96 1.41 3.12.085.364.142.742.199 1.106-.897 1.596-1.965 3.164-2.706 4.83-.071.154.142.28.242.14.997-1.427 1.723-3.094 2.507-4.662.056.462.1.91.128 1.358zm-21.476 4.397c-.042 0-.057.055-.014.07.314.07.655.14.897.363.214.197.3.504.484.714.3.323.727.574 1.14.728.114.042.156-.125.071-.182-.285-.196-.612-.336-.883-.56-.242-.21-.356-.49-.57-.728-.27-.335-.697-.448-1.125-.405zm4.315-.77a4.498 4.498 0 00-.313-.715c.014-.07-.057-.154-.142-.14-.527.112-1.154.462-1.61.042.1-.084.157-.21.257-.294.128-.112.27-.223.413-.293.057-.029.014-.113-.043-.099-.185.056-.342.112-.498.24-.128.096-.314.194-.356.376-.015.056.014.113.07.126.4.547 1.211.267 1.767.154.128.28.228.588.299.896.057.252.042.547.185.757.085.125.27.013.2-.113-.1-.307-.129-.63-.229-.937zm3.988 15.4c-.128-.127-.214-.295-.356-.393-.071-.042-.185.028-.143.113.072.167.242.28.37.405.143.126.286.252.442.365.071.054.171-.07.1-.127a5.348 5.348 0 01-.413-.363zm8.53 10.904c-.185.042-.37.028-.555-.014-.157-.04-.285-.14-.442-.154-.07-.014-.156.056-.1.126.228.322.798.28 1.14.182.085-.028.043-.154-.043-.14zM39.4 43.332c.328-.28.513-.715.74-1.08.243-.42.47-.84.727-1.245.057-.099-.085-.168-.142-.084-.285.392-.584.77-.855 1.175-.242.35-.527.729-.612 1.148-.029.098.071.156.142.086zm11.108-.226c-2.748-1.302-5.71-2.364-8.616-3.303.57-.811 1.14-1.596 1.738-2.38.57-.741.982-1.47 1.153-2.394l.029.028c.17.155.427.365.67.365.099 0 .142-.113.07-.183-.142-.154-.398-.252-.584-.364.47-.098.84-.938 1.012-1.273.455-.87.54-1.863.769-2.787.028-.14-.186-.196-.228-.056-.2.644-.257 1.33-.442 1.974-.1.364-.698 1.96-1.239 1.974a.117.117 0 00-.07.028l-.03-.028c.015 0 .015-.014.015-.028.441-1.316.968-2.646 1.324-3.99.029-.112-.128-.154-.17-.042-.513 1.288-.87 2.66-1.268 3.976a4.619 4.619 0 01-.256-.28c-.057-.056-.157.014-.114.084.114.182.256.365.413.518 0 0-.015.014-.015.028-.27 1.05-.954 1.932-1.651 2.744-.314.365-.656.756-.94 1.162.014-.042.014-.084-.029-.126-1.225-1.246-2.136-2.478-2.734-4.116-.043-.112-.214-.07-.171.042.441 1.596 1.395 3.22 2.72 4.27.071.056.142.043.185 0-.2.294-.37.603-.484.938-.029.07.028.126.085.14a.175.175 0 00.057.041c2.891 1.079 5.81 2.199 8.744 3.178.071 0 .128-.111.057-.14zm-8.815-10.36c1.253-.404 2.279-1.12 3.062-2.154.057-.07-.057-.155-.114-.085a6.715 6.715 0 01-3.033 1.96c-.171.056-.1.336.085.28zm11.065.56a5.677 5.677 0 01-1.851-1.12c-.498-.42-1.068-.881-1.31-1.497-.057-.14-.257-.084-.228.056.157.687.826 1.19 1.324 1.638.584.52 1.21.966 1.98 1.19.2.07.27-.196.085-.266zm-7.875-20.55c.74-.056 1.453-.28 2.05-.729.143-.097 0-.322-.127-.224a4.681 4.681 0 01-1.923.869c-.057 0-.057.083 0 .083zm2.236-2.758c.1-.085.2-.183.299-.266.057-.057.142-.112.185-.182.043.21-.057.42-.142.602-.043.111.142.168.185.056.1-.28.213-.63.028-.896-.128-.182-.356-.28-.57-.169-.07.029-.014.14.058.112.17-.07.341.028.413.168-.114 0-.186.127-.257.197-.085.098-.185.195-.27.293-.072.057 0 .127.07.085zm-36.03 52.834a3.18 3.18 0 01-.227.084c-.2.07-.185.392.057.378 1.054-.042 2.107-.153 3.161-.252.897-.084 1.937-.04 2.791-.364.1-.042.071-.182-.043-.167-1.822.307-3.716.195-5.567.363-.03-.056-.114-.07-.172-.042zm3.503-35.95c-.1-.07-.227.055-.142.14.541.461.755.923 1.438 1.217.656.28 1.396.476 2.122.434.2-.014.185-.266 0-.294-.698-.084-1.353-.154-2.008-.406-.626-.25-.911-.686-1.41-1.09zm-1.879 4.69c-.441-1.05-.954-2.059-1.31-3.137a29.36 29.36 0 01-.883-3.276c-.014-.07-.114-.042-.1.028.3 2.185.912 4.55 2.065 6.482.057.113.285.043.228-.097zm-6.55-8.61c.07-.085-.043-.21-.13-.127-1.665 1.598-3.445 2.758-5.681 3.418-.2.054-.114.376.086.306 2.164-.616 4.314-1.862 5.724-3.596zm-3.59-1.177c1.894.364 3.646 1.134 5.526 1.54.1.028.142-.112.043-.152-1.78-.604-3.617-1.57-5.526-1.68-.156 0-.199.264-.042.292zm8.317 10.29c.499.238 1.111.28 1.695.21.612.91 1.225 1.834 1.808 2.758.584.94 1.097 1.946 1.723 2.856.1.14.314.028.242-.14-.883-1.96-2.306-3.807-3.645-5.502a4.03 4.03 0 00.969-.28c.056-.028.014-.112-.043-.098-.442.126-.883.224-1.34.224-.469 0-.882-.14-1.338-.21-.1-.014-.185.126-.07.182zm-1.808-8.132c.74.63 1.566 1.16 2.42 1.61 1.852.964 3.96 1.68 6.01 2.084.213.042.313-.265.1-.335-1.88-.56-3.76-.995-5.54-1.835-1.652-.784-3.902-2.03-4.557-3.822-.028-.082-.142-.042-.128.042.128.91 1.026 1.68 1.695 2.256zm-1.396-9.914c.47-.251.855-.671 1.253-1.007.542-.462 1.097-.854 1.766-1.106.071-.028.043-.14-.028-.112-.598.196-1.14.434-1.666.798-.513.364-1.111.784-1.496 1.274-.057.098.085.197.171.153zm4.899 3.206c.698-.462 1.281-1.092 1.979-1.568.698-.474 1.453-.84 2.193-1.244.071-.03.014-.14-.057-.114-.84.28-1.637.728-2.378 1.204-.655.42-1.438.924-1.908 1.57-.071.082.071.21.17.152zm9.954-.98c.128.21.427.028.327-.196-1.01-2.211-2.52-4.31-4.044-6.229-.057-.07-.157.014-.114.084 1.367 2.072 2.52 4.241 3.83 6.341zm1.452-6.173a5.195 5.195 0 01-.498-1.456c-.014-.112-.185-.056-.17.042.07.504.213.994.412 1.456.185.406.399.896.783 1.134.072.042.185-.028.143-.112-.143-.378-.47-.7-.67-1.064zm-1.21-2.492c.1-.084.1-.252.157-.364.028.042.042.098.07.14.03.056.072.126.1.182.043.07.143.014.1-.056-.028-.07-.057-.126-.085-.196-.029-.07-.071-.126-.086-.196a.41.41 0 01.4-.056c.084.042.141-.07.07-.112-.185-.126-.427-.098-.612.042-.157.126-.385.392-.285.602.043.056.128.042.171.014zm-.897 57.93a8.914 8.914 0 01-3.147-.393 8.992 8.992 0 01-2.507-1.274c-.413.21-1.11.49-2.022.56a5.462 5.462 0 01-2.335-.322c-.1 0-1.268.084-1.894 1.106-.599.966-.2 1.96-.157 2.058l4.201-.042v-.992c.47.49.925.754 1.253.91 1.282.6 2.307.264 5.127.28.64 0 1.168.026 1.495.04.513-.154.826-.63.77-1.106a1.078 1.078 0 00-.784-.824zm23.241-2.296c-.854.21-1.723.42-2.577.63a8.284 8.284 0 01-1.453 3.093c-.983 1.274-1.908 1.68-1.78 2.226.17.672 1.837 1.022 3.147.714 2.08-.49 2.99-2.576 3.147-2.94.442.448.883.91 1.325 1.358.37-.322.726-.644 1.096-.964a4.92 4.92 0 00-.883-2.466 5.02 5.02 0 00-2.022-1.651zM11.958 52.038c-.854-.07-2.165-.294-3.475-1.106-2.378-1.498-3.518-4.298-3.061-4.676.27-.238 1.025.56 2.99 1.275 1.253.46 2.364.643 3.104.727.385.056.926.084 1.581-.014a4.904 4.904 0 001.609-.546c.356.798.698 1.583 1.054 2.38a6.512 6.512 0 01-1.367 3.01 6.58 6.58 0 01-2.578 1.904l-1.21-1.666a38.77 38.77 0 011.353-1.288z" fill="#000"/></svg>