<svg width="80" height="80" viewBox="0 0 80 80" fill="none" xmlns="http://www.w3.org/2000/svg">
<path fill-rule="evenodd" clip-rule="evenodd" d="M32.5183 79.3015L79.3015 32.5183C78.766 29.6883 77.9325 26.9638 76.8347 24.3785L24.3785 76.8347C26.9638 77.9325 29.6883 78.766 32.5183 79.3015ZM68.2843 11.7157C70.0605 13.4919 71.6704 15.4344 73.0888 17.5178L17.5178 73.0888C15.4344 71.6704 13.4919 70.0605 11.7157 68.2843L68.2843 11.7157ZM62.4821 6.91124C60.3356 5.44994 58.0395 4.19206 55.6215 3.1653L3.1653 55.6215C4.19205 58.0395 5.44994 60.3356 6.91124 62.4821L62.4821 6.91124ZM40 0C42.557 0 45.058 0.239932 47.4817 0.698509L0.698509 47.4817C0.239932 45.058 0 42.557 0 40C0 39.1592 0.0259008 38.3245 0.0770264 37.4966L37.4965 0.077095C38.3244 0.0259666 39.1592 0 40 0ZM3.62126 23.3457C7.6151 14.636 14.6448 7.60816 23.3558 3.61665L3.62126 23.3457Z" fill="#C4C4C4"/>
<path fill-rule="evenodd" clip-rule="evenodd" d="M56.6901 76.3429C52.3167 78.3598 47.5483 79.6104 42.5036 79.9228L79.9229 42.5035C79.6107 47.5598 78.3543 52.3618 76.3295 56.7373L75.5946 57.4384L56.6901 76.3429Z" fill="#C4C4C4"/>
</svg>
