<svg width="349" height="127" viewBox="0 0 349 127" fill="none" xmlns="http://www.w3.org/2000/svg">
<mask id="path-1-inside-1_61_2" fill="white">
<path d="M4.704 1.691C3.166 2.525 1.479 4.33599 0.954 5.71599C0.429 7.09599 0 16.897 0 27.495V46.7652L5.108 55.1803C7.918 59.8083 12.868 67.9113 16.108 73.1873L22 82.7792V113.095H14V85.0952H0V101.53C0 110.569 0.431 119.098 0.957 120.482C2.568 124.719 6.746 126.095 18 126.095C29.254 126.095 33.432 124.719 35.043 120.482C35.569 119.098 36 109.293 36 98.6952V79.4252L30.892 71.0103C28.082 66.3823 23.132 58.2792 19.892 53.0032L14 43.4112V13.095H22V41.0951H36V24.66C36 15.621 35.569 7.09199 35.043 5.70799C33.417 1.42999 29.271 0.0900021 17.8 0.135002C10.556 0.163002 6.67 0.624998 4.704 1.691Z"/>
<path d="M45 0.0950012V126.095H74V114.095H59V69.0953H72V57.0953H59V12.095H74V0.0950012H45Z"/>
<path d="M86.42 1.98C84.726 3.013 82.803 5.15699 82.145 6.74399C81.256 8.89199 81.02 23.7493 81.225 64.8403L81.5 120.051L84.273 122.823C86.994 125.543 87.269 125.595 99 125.595C110.73 125.595 111.007 125.543 113.727 122.824L116.5 120.052L117.081 57.0953H100V63.0953C100 67.7623 100.333 69.0953 101.5 69.0953C102.789 69.0953 103 72.2622 103 91.5952V114.095H95V13.095H103V41.0951H117L116.996 24.845C116.991 1.72704 115.781 0.091999 98.685 0.098999C91.464 0.101999 88.842 0.504 86.42 1.98Z"/>
<path d="M127.5 120.05L130.273 122.823C132.98 125.53 133.315 125.595 144.5 125.595C155.685 125.595 156.02 125.53 158.727 122.823L161.5 120.05L162.046 0.0950012H149V114.095H141V0.0950012H126.954L127.5 120.05Z"/>
<path d="M173 0V126.095H187L187.224 63.5953L199.679 125.595L212 126.19V0.0950012H198L197.797 61.5953L185.421 0.595001L173 0Z"/>
<path fill-rule="evenodd" clip-rule="evenodd" d="M221 126.095H234.55C249.64 126.095 253.891 125.095 256.5 120.05C258.778 115.645 260.794 10.467 258.516 6.06201C255.907 1.01701 249.64 0.0950012 234.55 0.0950012H221V126.095ZM234.55 114.095H231.3V12.095H234.55C249.64 12.095 246.16 13.455 248.769 18.5C251.047 22.905 248.769 109.628 248.769 109.628C248.769 109.628 246.769 114.095 234.55 114.095Z"/>
<path fill-rule="evenodd" clip-rule="evenodd" d="M276.289 1.12401C275.055 1.62001 273.138 3.50401 272.029 5.31001C270.062 8.51501 270.019 9.95829 270.273 64.3233V122.823C272.98 125.53 273.315 125.595 284.5 125.595C295.685 125.595 296.02 125.53 298.727 122.823L301.5 120.051L301.76 64.3233C302.014 10.0113 301.969 8.51199 300.01 5.31999C298.904 3.51899 296.845 1.606 295.434 1.07C292.254 -0.139 279.335 -0.100988 276.289 1.12401ZM289 114.095V12.095H281V114.095H289Z"/>
<path d="M313.5 120.05L316.273 122.823C318.98 125.53 319.315 125.595 330.5 125.595C341.685 125.595 342.02 125.53 344.727 122.823L347.5 120.05L348.046 0.0950012H335V114.095H327V0.0950012H312.954L313.5 120.05Z"/>
</mask>
<path d="M4.704 1.691C3.166 2.525 1.479 4.33599 0.954 5.71599C0.429 7.09599 0 16.897 0 27.495V46.7652L5.108 55.1803C7.918 59.8083 12.868 67.9113 16.108 73.1873L22 82.7792V113.095H14V85.0952H0V101.53C0 110.569 0.431 119.098 0.957 120.482C2.568 124.719 6.746 126.095 18 126.095C29.254 126.095 33.432 124.719 35.043 120.482C35.569 119.098 36 109.293 36 98.6952V79.4252L30.892 71.0103C28.082 66.3823 23.132 58.2792 19.892 53.0032L14 43.4112V13.095H22V41.0951H36V24.66C36 15.621 35.569 7.09199 35.043 5.70799C33.417 1.42999 29.271 0.0900021 17.8 0.135002C10.556 0.163002 6.67 0.624998 4.704 1.691Z" stroke="black" stroke-width="4" mask="url(#path-1-inside-1_61_2)"/>
<path d="M45 0.0950012V126.095H74V114.095H59V69.0953H72V57.0953H59V12.095H74V0.0950012H45Z" stroke="black" stroke-width="4" mask="url(#path-1-inside-1_61_2)"/>
<path d="M86.42 1.98C84.726 3.013 82.803 5.15699 82.145 6.74399C81.256 8.89199 81.02 23.7493 81.225 64.8403L81.5 120.051L84.273 122.823C86.994 125.543 87.269 125.595 99 125.595C110.73 125.595 111.007 125.543 113.727 122.824L116.5 120.052L117.081 57.0953H100V63.0953C100 67.7623 100.333 69.0953 101.5 69.0953C102.789 69.0953 103 72.2622 103 91.5952V114.095H95V13.095H103V41.0951H117L116.996 24.845C116.991 1.72704 115.781 0.091999 98.685 0.098999C91.464 0.101999 88.842 0.504 86.42 1.98Z" stroke="black" stroke-width="4" mask="url(#path-1-inside-1_61_2)"/>
<path d="M127.5 120.05L130.273 122.823C132.98 125.53 133.315 125.595 144.5 125.595C155.685 125.595 156.02 125.53 158.727 122.823L161.5 120.05L162.046 0.0950012H149V114.095H141V0.0950012H126.954L127.5 120.05Z" stroke="black" stroke-width="4" mask="url(#path-1-inside-1_61_2)"/>
<path d="M173 0V126.095H187L187.224 63.5953L199.679 125.595L212 126.19V0.0950012H198L197.797 61.5953L185.421 0.595001L173 0Z" stroke="black" stroke-width="4" mask="url(#path-1-inside-1_61_2)"/>
<path fill-rule="evenodd" clip-rule="evenodd" d="M221 126.095H234.55C249.64 126.095 253.891 125.095 256.5 120.05C258.778 115.645 260.794 10.467 258.516 6.06201C255.907 1.01701 249.64 0.0950012 234.55 0.0950012H221V126.095ZM234.55 114.095H231.3V12.095H234.55C249.64 12.095 246.16 13.455 248.769 18.5C251.047 22.905 248.769 109.628 248.769 109.628C248.769 109.628 246.769 114.095 234.55 114.095Z" stroke="black" stroke-width="4" mask="url(#path-1-inside-1_61_2)"/>
<path fill-rule="evenodd" clip-rule="evenodd" d="M276.289 1.12401C275.055 1.62001 273.138 3.50401 272.029 5.31001C270.062 8.51501 270.019 9.95829 270.273 64.3233V122.823C272.98 125.53 273.315 125.595 284.5 125.595C295.685 125.595 296.02 125.53 298.727 122.823L301.5 120.051L301.76 64.3233C302.014 10.0113 301.969 8.51199 300.01 5.31999C298.904 3.51899 296.845 1.606 295.434 1.07C292.254 -0.139 279.335 -0.100988 276.289 1.12401ZM289 114.095V12.095H281V114.095H289Z" stroke="black" stroke-width="4" mask="url(#path-1-inside-1_61_2)"/>
<path d="M313.5 120.05L316.273 122.823C318.98 125.53 319.315 125.595 330.5 125.595C341.685 125.595 342.02 125.53 344.727 122.823L347.5 120.05L348.046 0.0950012H335V114.095H327V0.0950012H312.954L313.5 120.05Z" stroke="black" stroke-width="4" mask="url(#path-1-inside-1_61_2)"/>
</svg>
