<svg class="rounded-5" viewBox="0 0 1300 300" fill="none" xmlns="http://www.w3.org/2000/svg">
    <path style="fill: hsl(342, 85%, 10%)" d="M120.988 0C113.174 10.4025 106.526 21.7304 101.237 33.79C88.3376 30.6593 74.8626 29 61 29C39.5011 29 18.9343 32.9908 0 40.272V300H1300V0H1183.93C1174.94 4.8087 1166.43 10.4019 1158.5 16.6881C1150.57 10.4019 1142.06 4.8087 1133.07 0H972.929C969.182 2.00455 965.518 4.14542 961.945 6.41599C959.717 7.83193 957.515 9.2983 955.342 10.8135C952.444 7.08194 949.394 3.47434 946.201 0H695.799C690.421 5.85192 685.448 12.0819 680.924 18.6455C678.614 16.7452 676.253 14.9046 673.843 13.1261C667.265 8.27193 660.325 3.88053 653.071 0H492.929C463.715 15.6273 439.599 39.5398 423.72 68.598C418.668 43.2449 407.978 19.9247 393.012 0H120.988Z" fill="#685D73"/>
    <path style="fill: hsl(342, 85%, 20%)" d="M406.079 79.9019C386.033 71.5885 364.053 67 341 67C304.528 67 270.739 78.4852 243.052 98.0361C213.01 71.2666 173.404 55 130 55C77.8499 55 31.1843 78.4821 0 115.45V300H480.929H498.944C506.722 280.517 511 259.258 511 237C511 166.164 467.676 105.447 406.079 79.9019Z" fill="#CC143E"/>
    <path style="fill: hsl(342, 85%, 30%)" d="M641.071 300H1300V114.275C1268.82 77.9854 1222.6 55 1171 55C1136.38 55 1104.17 65.351 1077.31 83.1273C1046.47 40.0624 996.01 12 939 12C904.11 12 871.675 22.5107 844.688 40.5384C825.564 33.0882 804.76 29 783 29C752.546 29 723.962 37.008 699.239 51.0332C647.743 80.2466 613 135.566 613 199C613 235.92 624.769 270.092 644.761 297.967C643.54 298.659 642.31 299.337 641.071 300Z" fill="#CC143E"/>
    <path style="fill: hsl(342, 85%, 40%)" fill-rule="evenodd" clip-rule="evenodd" d="M1300 300V162.709C1281.57 152.691 1260.45 147 1238 147C1182.45 147 1135.04 181.839 1116.43 230.858C1094.3 213.411 1066.37 203 1036 203C1035.75 203 1035.5 203.001 1035.26 203.002C1028.27 137.788 973.068 87 906 87C861.936 87 822.993 108.923 799.482 142.456C783.622 128.479 762.801 120 740 120C718.842 120 699.39 127.301 684.025 139.52C672.32 117.215 648.937 102 622 102C597.157 102 575.337 114.941 562.914 134.45C553.273 130.924 542.861 129 532 129C509.726 129 489.342 137.091 473.627 150.495C453.089 136.91 428.468 129 402 129C346.757 129 299.562 163.458 280.736 212.053C259.229 196.301 232.701 187 204 187C172.17 187 143.013 198.439 120.413 217.431C120.802 213.339 121 209.193 121 205C121 136.228 67.5986 79.929 0 75.3066V300H1300Z" fill="#8C233F"/>
    <path style="fill: hsl(342, 85%, 50%)" fill-rule="evenodd" clip-rule="evenodd" d="M132.55 245.192C130.652 245.516 134.393 244.719 132.55 245.192Z" fill="#FF7C63"/>
    <path style="fill: hsl(342, 85%, 60%)" d="M409.233 300C400.075 288.426 385.905 281 370 281C357.947 281 346.889 285.265 338.255 292.368C327.259 285.179 314.118 281 300 281C299.463 281 298.927 281.006 298.393 281.018C291.533 249.557 263.518 226 230 226C225.513 226 221.124 226.422 216.872 227.229C207.731 217.254 194.596 211 180 211C157.91 211 139.166 225.325 132.55 245.192C118.261 248.859 105.736 256.922 96.5004 267.856C89.4947 264.118 81.4947 262 73 262C49.5223 262 29.824 278.181 24.4493 300H409.233Z" fill="#FF7C63"/>
    <path style="fill: hsl(342, 85%, 69%)" d="M650 225C650 186.34 618.66 155 580 155C545.029 155 516.048 180.644 510.835 214.153C504.254 212.104 497.256 211 490 211C451.34 211 420 242.34 420 281C420 287.585 420.909 293.958 422.609 300H1260.94C1259.37 262.732 1228.65 233 1191 233C1183.48 233 1176.23 234.186 1169.44 236.382C1158.29 212.527 1134.07 196 1106 196C1075.7 196 1049.89 215.253 1040.15 242.193C1027.61 230.297 1010.65 223 992 223C986.455 223 981.06 223.645 975.887 224.863C968.244 194.488 940.748 172 908 172C902.487 172 897.122 172.637 891.976 173.843C891.992 173.23 892 172.616 892 172C892 133.34 860.66 102 822 102C783.34 102 752 133.34 752 172C752 176.1 752.352 180.117 753.029 184.024C730.748 196.902 714.5 219.055 709.564 245.205C697.609 235.687 682.469 230 666 230C660.375 230 654.904 230.664 649.663 231.917C649.886 229.641 650 227.334 650 225Z" fill="#FF7C63"/>
</svg>