<svg width="1440" height="4099" viewBox="0 0 1440 4099" fill="none" xmlns="http://www.w3.org/2000/svg">
<g clip-path="url(#clip0_77_108)">
<rect width="1440" height="4099" fill="#6BBAE7"/>
<path d="M486.021 -102.041C488.995 -103.243 492.383 -102.767 494.911 -100.792L698.974 58.6399C701.502 60.6145 702.784 63.7876 702.337 66.9637L666.297 323.404C665.851 326.58 663.744 329.277 660.77 330.478L420.666 427.486C417.692 428.688 414.304 428.211 411.776 426.237L207.713 266.805C205.185 264.83 203.903 261.657 204.35 258.481L240.39 2.04127C240.836 -1.13488 242.943 -3.83164 245.917 -5.03314L486.021 -102.041Z" fill="#F36F97"/>
<path d="M449.377 -128.728C452.482 -129.531 455.78 -128.616 458.028 -126.329L639.536 58.3747C641.784 60.6624 642.64 63.9756 641.783 67.0663L572.579 316.608C571.722 319.699 569.281 322.098 566.176 322.901L315.464 387.739C312.359 388.542 309.061 387.628 306.813 385.34L125.306 200.637C123.058 198.349 122.201 195.036 123.058 191.945L192.262 -57.597C193.119 -60.6877 195.56 -63.0864 198.665 -63.8894L449.377 -128.728Z" fill="#F2DDB6"/>
<path d="M994.998 654.339C997.916 653.009 1001.32 653.337 1003.93 655.2L1214.76 805.579C1217.37 807.441 1218.79 810.555 1218.48 813.748L1193.66 1071.52C1193.35 1074.71 1191.37 1077.49 1188.45 1078.82L952.803 1186.21C949.884 1187.54 946.478 1187.22 943.867 1185.35L733.043 1034.97C730.432 1033.11 729.013 1030 729.32 1026.81L754.141 769.037C754.448 765.845 756.435 763.059 759.354 761.728L994.998 654.339Z" fill="#F2DDB6"/>
<path d="M1102.7 650.272C1105.81 649.469 1109.1 650.384 1111.35 652.671L1292.86 837.375C1295.11 839.662 1295.97 842.976 1295.11 846.066L1225.9 1095.61C1225.05 1098.7 1222.61 1101.1 1219.5 1101.9L968.789 1166.74C965.684 1167.54 962.386 1166.63 960.138 1164.34L778.63 979.637C776.382 977.349 775.526 974.036 776.383 970.945L845.587 721.403C846.444 718.312 848.885 715.914 851.99 715.111L1102.7 650.272Z" fill="#F36F97"/>
<path d="M148.848 1126.59C150.91 1124.13 154.126 1122.96 157.284 1123.52L412.31 1168.49C415.469 1169.04 418.09 1171.24 419.187 1174.26L507.757 1417.6C508.854 1420.61 508.26 1423.98 506.198 1426.44L339.742 1624.82C337.68 1627.27 334.464 1628.44 331.305 1627.89L76.2796 1582.92C73.1209 1582.36 70.4994 1580.16 69.4024 1577.15L-19.1672 1333.8C-20.2642 1330.79 -19.6699 1327.42 -17.6082 1324.96L148.848 1126.59Z" fill="#A1CFEF"/>
<path d="M11.4951 1198.57C12.8759 1195.68 15.6963 1193.74 18.8938 1193.49L277.056 1173.17C280.253 1172.92 283.342 1174.39 285.159 1177.04L431.835 1390.45C433.652 1393.09 433.92 1396.51 432.539 1399.4L321.054 1633.14C319.674 1636.03 316.853 1637.97 313.656 1638.22L55.4939 1658.54C52.2964 1658.79 49.2076 1657.32 47.3909 1654.67L-99.2857 1441.26C-101.102 1438.61 -101.371 1435.2 -99.9901 1432.31L11.4951 1198.57Z" fill="#F2DDB6"/>
<path d="M-87.7952 1284.53C-86.938 1281.44 -84.4971 1279.04 -81.3919 1278.24L169.32 1213.4C172.425 1212.6 175.723 1213.51 177.971 1215.8L359.478 1400.5C361.726 1402.79 362.583 1406.1 361.726 1409.2L292.522 1658.74C291.665 1661.83 289.224 1664.23 286.119 1665.03L35.4072 1729.87C32.3019 1730.67 29.0042 1729.76 26.7561 1727.47L-154.751 1542.77C-157 1540.48 -157.856 1537.16 -156.999 1534.07L-87.7952 1284.53Z" fill="#F36F97"/>
<path d="M1196.7 1769.63C1199.62 1768.3 1203.03 1768.63 1205.64 1770.49L1416.46 1920.87C1419.07 1922.74 1420.49 1925.85 1420.18 1929.04L1395.36 2186.81C1395.06 2190 1393.07 2192.79 1390.15 2194.12L1154.51 2301.51C1151.59 2302.84 1148.18 2302.51 1145.57 2300.65L934.746 2150.27C932.135 2148.41 930.716 2145.29 931.023 2142.1L955.844 1884.33C956.151 1881.14 958.138 1878.35 961.057 1877.02L1196.7 1769.63Z" fill="#F2DDB6"/>
<path d="M1453.69 1803.67C1456.83 1803.06 1460.07 1804.17 1462.17 1806.59L1632.07 2002.03C1634.17 2004.45 1634.83 2007.81 1633.78 2010.84L1549.47 2255.7C1548.43 2258.73 1545.84 2260.97 1542.7 2261.59L1288.49 2311C1285.35 2311.61 1282.11 2310.5 1280.01 2308.07L1110.11 2112.63C1108.01 2110.21 1107.36 2106.85 1108.4 2103.82L1192.71 1858.97C1193.75 1855.94 1196.34 1853.69 1199.48 1853.08L1453.69 1803.67Z" fill="#F36F97"/>
<path d="M565.933 2315.67C569.082 2315.06 572.318 2316.17 574.422 2318.6L744.315 2514.04C746.419 2516.46 747.072 2519.82 746.028 2522.85L661.719 2767.7C660.675 2770.73 658.092 2772.98 654.943 2773.59L400.741 2823C397.593 2823.61 394.357 2822.5 392.253 2820.08L222.36 2624.64C220.255 2622.22 219.602 2618.86 220.647 2615.83L304.956 2370.97C306 2367.94 308.583 2365.7 311.731 2365.08L565.933 2315.67Z" fill="#A1CFEF"/>
<path d="M14.8902 3114.5C17.3472 3112.44 20.7175 3111.84 23.7314 3112.94L267.074 3201.51C270.088 3202.61 272.288 3205.23 272.845 3208.39L317.813 3463.41C318.37 3466.57 317.199 3469.79 314.742 3471.85L116.367 3638.3C113.91 3640.37 110.54 3640.96 107.526 3639.86L-135.817 3551.29C-138.831 3550.2 -141.03 3547.58 -141.587 3544.42L-186.555 3289.39C-187.112 3286.23 -185.942 3283.02 -183.485 3280.96L14.8902 3114.5Z" fill="#6BBAE7"/>
<path d="M-14.7357 3074.1C-12.2787 3072.04 -8.90851 3071.44 -5.89457 3072.54L237.448 3161.11C240.462 3162.21 242.662 3164.83 243.219 3167.99L288.187 3423.01C288.744 3426.17 287.573 3429.39 285.116 3431.45L86.7415 3597.91C84.2845 3599.97 80.9143 3600.56 77.9003 3599.46L-165.443 3510.9C-168.457 3509.8 -170.656 3507.18 -171.213 3504.02L-216.181 3248.99C-216.738 3245.83 -215.568 3242.62 -213.111 3240.56L-14.7357 3074.1Z" fill="#F36F97"/>
<path d="M1334.55 3433.24C1337.46 3431.88 1340.87 3432.18 1343.49 3434.02L1555.62 3582.55C1558.25 3584.39 1559.7 3587.49 1559.42 3590.69L1536.85 3848.66C1536.57 3851.86 1534.6 3854.66 1531.7 3856.02L1297 3965.46C1294.09 3966.82 1290.68 3966.52 1288.06 3964.68L1075.93 3816.14C1073.3 3814.3 1071.85 3811.2 1072.13 3808.01L1094.7 3550.03C1094.98 3546.84 1096.95 3544.03 1099.85 3542.68L1334.55 3433.24Z" fill="#6BBAE7"/>
<path d="M1449.16 3378.27C1452.27 3377.47 1455.57 3378.38 1457.82 3380.67L1639.32 3565.37C1641.57 3567.66 1642.43 3570.98 1641.57 3574.07L1572.37 3823.61C1571.51 3826.7 1569.07 3829.1 1565.96 3829.9L1315.25 3894.74C1312.15 3895.54 1308.85 3894.63 1306.6 3892.34L1125.09 3707.64C1122.85 3705.35 1121.99 3702.04 1122.85 3698.94L1192.05 3449.4C1192.91 3446.31 1195.35 3443.91 1198.45 3443.11L1449.16 3378.27Z" fill="#F36F97"/>
<path d="M486.021 3996.96C488.995 3995.76 492.383 3996.23 494.911 3998.21L698.974 4157.64C701.502 4159.61 702.784 4162.79 702.337 4165.96L666.297 4422.4C665.851 4425.58 663.744 4428.28 660.77 4429.48L420.666 4526.49C417.692 4527.69 414.304 4527.21 411.776 4525.24L207.713 4365.81C205.185 4363.83 203.903 4360.66 204.35 4357.48L240.39 4101.04C240.836 4097.87 242.943 4095.17 245.917 4093.97L486.021 3996.96Z" fill="#F36F97"/>
<path d="M449.377 3970.27C452.482 3969.47 455.78 3970.38 458.028 3972.67L639.536 4157.37C641.784 4159.66 642.64 4162.98 641.783 4166.07L572.579 4415.61C571.722 4418.7 569.281 4421.1 566.176 4421.9L315.464 4486.74C312.359 4487.54 309.061 4486.63 306.813 4484.34L125.306 4299.64C123.058 4297.35 122.201 4294.04 123.058 4290.94L192.262 4041.4C193.119 4038.31 195.56 4035.91 198.665 4035.11L449.377 3970.27Z" fill="#F2DDB6"/>
</g>
<defs>
<clipPath id="clip0_77_108">
<rect width="1440" height="4099" fill="white"/>
</clipPath>
</defs>
</svg>
