<svg width="360" height="4099" viewBox="0 0 360 4099" fill="none" xmlns="http://www.w3.org/2000/svg">
<g clip-path="url(#clip0_77_398)">
<rect width="360" height="4099" fill="#F2DDB6"/>
<path d="M175.455 -9.8677C176.797 -10.4102 178.327 -10.1951 179.469 -9.30357L271.605 62.6815C272.746 63.5731 273.325 65.0057 273.124 66.4398L256.851 182.225C256.65 183.659 255.698 184.877 254.356 185.419L145.946 229.219C144.604 229.762 143.073 229.547 141.932 228.655L49.7956 156.67C48.6545 155.779 48.0756 154.346 48.2772 152.912L64.5497 37.1266C64.7513 35.6926 65.7026 34.475 67.0453 33.9325L175.455 -9.8677Z" fill="#F36F97"/>
<path d="M158.91 -21.9169C160.312 -22.2795 161.801 -21.8665 162.816 -20.8336L244.768 62.5619C245.783 63.5948 246.17 65.0907 245.783 66.4862L214.537 179.157C214.15 180.552 213.048 181.635 211.646 181.998L98.4467 211.273C97.0447 211.636 95.5557 211.223 94.5407 210.19L12.5881 126.795C11.5731 125.762 11.1862 124.266 11.5732 122.87L42.8196 10.1995C43.2066 8.80396 44.3087 7.72094 45.7107 7.35835L158.91 -21.9169Z" fill="#F2DDB6"/>
<path d="M199.225 751.919C200.542 751.319 202.08 751.467 203.259 752.308L298.448 820.206C299.627 821.046 300.268 822.453 300.129 823.894L288.923 940.279C288.784 941.72 287.887 942.978 286.569 943.579L180.173 992.066C178.856 992.667 177.318 992.519 176.139 991.678L80.9496 923.78C79.7706 922.939 79.1299 921.533 79.2687 920.091L90.4753 803.707C90.6141 802.265 91.5113 801.007 92.8291 800.407L199.225 751.919Z" fill="#F2DDB6"/>
<path d="M247.854 750.083C249.256 749.721 250.745 750.133 251.76 751.166L333.713 834.562C334.728 835.595 335.114 837.091 334.727 838.486L303.481 951.157C303.094 952.552 301.992 953.635 300.59 953.998L187.391 983.273C185.989 983.636 184.5 983.223 183.485 982.19L101.533 898.795C100.518 897.762 100.131 896.266 100.518 894.87L131.764 782.199C132.151 780.804 133.253 779.721 134.655 779.358L247.854 750.083Z" fill="#F36F97"/>
<path d="M14.117 1224.17C15.0842 1222.9 16.5135 1222.15 17.8664 1222.2L127.104 1226.35C128.457 1226.4 129.528 1227.25 129.914 1228.57L161.064 1335.5C161.449 1336.82 161.091 1338.42 160.124 1339.69L82.0365 1442.47C81.0693 1443.74 79.6401 1444.49 78.2871 1444.44L-30.9503 1440.29C-32.3032 1440.24 -33.3743 1439.39 -33.7602 1438.07L-64.91 1331.15C-65.2958 1329.82 -64.9377 1328.22 -63.9705 1326.95L14.117 1224.17Z" fill="#A1CFEF"/>
<path d="M-47.5838 1266.5C-46.8988 1265.07 -45.6182 1263.99 -44.2243 1263.66L68.3188 1237.37C69.7127 1237.04 71.0081 1237.52 71.717 1238.63L128.954 1327.89C129.663 1328.99 129.677 1330.56 128.992 1331.99L73.6861 1447.54C73.0011 1448.98 71.7205 1450.06 70.3265 1450.38L-42.2165 1476.68C-43.6104 1477 -44.9058 1476.52 -45.6147 1475.42L-102.852 1386.16C-103.56 1385.05 -103.575 1383.49 -102.89 1382.06L-47.5838 1266.5Z" fill="#F2DDB6"/>
<path d="M-93.1977 1312.81C-92.7339 1311.32 -91.604 1310.05 -90.2337 1309.48L20.4061 1263.05C21.7764 1262.47 23.1791 1262.68 24.0856 1263.59L97.2807 1337.28C98.1873 1338.19 98.4601 1339.67 97.9963 1341.16L60.5516 1461.27C60.0878 1462.76 58.958 1464.03 57.5876 1464.6L-53.0522 1511.03C-54.4225 1511.61 -55.8251 1511.4 -56.7317 1510.49L-129.927 1436.8C-130.833 1435.89 -131.106 1434.41 -130.642 1432.92L-93.1977 1312.81Z" fill="#F36F97"/>
<path d="M288.231 1896.61C289.553 1895.87 291.056 1895.86 292.175 1896.6L382.515 1955.71C383.634 1956.44 384.199 1957.8 383.996 1959.27L367.651 2078.16C367.449 2079.64 366.51 2081 365.189 2081.74L258.503 2141.52C257.182 2142.26 255.679 2142.26 254.56 2141.53L164.219 2082.41C163.101 2081.68 162.536 2080.32 162.738 2078.85L179.083 1959.96C179.286 1958.49 180.225 1957.13 181.546 1956.39L288.231 1896.61Z" fill="#F2DDB6"/>
<path d="M401.446 1900.47C402.855 1900.05 404.266 1900.41 405.149 1901.42L476.411 1982.98C477.293 1983.99 477.513 1985.5 476.987 1986.93L434.539 2102.63C434.013 2104.06 432.822 2105.2 431.413 2105.62L317.703 2139.76C316.294 2140.18 314.883 2139.82 314 2138.81L242.738 2057.25C241.856 2056.24 241.636 2054.73 242.162 2053.3L284.61 1937.6C285.136 1936.17 286.327 1935.03 287.736 1934.6L401.446 1900.47Z" fill="#F36F97"/>
<path d="M203.862 2409.04C205.283 2408.76 206.744 2409.26 207.694 2410.36L284.403 2498.6C285.353 2499.69 285.648 2501.21 285.176 2502.58L247.11 2613.13C246.638 2614.5 245.472 2615.51 244.051 2615.79L129.276 2638.1C127.854 2638.38 126.393 2637.87 125.443 2636.78L48.7347 2548.54C47.7846 2547.45 47.4898 2545.93 47.9612 2544.56L86.0277 2434.01C86.4992 2432.64 87.6653 2431.62 89.0869 2431.35L203.862 2409.04Z" fill="#A1CFEF"/>
<path d="M-37.6602 3181.86C-36.5508 3180.93 -35.0291 3180.66 -33.6683 3181.16L76.2035 3221.15C77.5644 3221.64 78.5576 3222.83 78.8091 3224.25L99.1125 3339.4C99.364 3340.83 98.8355 3342.28 97.7262 3343.21L8.15785 3418.37C7.0485 3419.3 5.52681 3419.56 4.16598 3419.07L-105.706 3379.08C-107.067 3378.58 -108.06 3377.4 -108.311 3375.97L-128.615 3260.83C-128.866 3259.4 -128.338 3257.95 -127.228 3257.02L-37.6602 3181.86Z" fill="#6BBAE7"/>
<path d="M-51.0366 3163.62C-49.9273 3162.69 -48.4056 3162.42 -47.0447 3162.92L62.8271 3202.91C64.1879 3203.4 65.1811 3204.59 65.4326 3206.01L85.7361 3321.16C85.9876 3322.58 85.4591 3324.04 84.3497 3324.97L-5.21861 3400.12C-6.32797 3401.06 -7.84966 3401.32 -9.21048 3400.83L-119.082 3360.84C-120.443 3360.34 -121.436 3359.16 -121.688 3357.73L-141.991 3242.59C-142.243 3241.16 -141.714 3239.71 -140.605 3238.78L-51.0366 3163.62Z" fill="#F36F97"/>
<path d="M352.217 3476.9C353.529 3476.29 355.069 3476.42 356.255 3477.25L452.033 3544.32C453.219 3545.15 453.872 3546.55 453.746 3547.99L443.555 3664.47C443.429 3665.91 442.543 3667.18 441.23 3667.79L335.262 3717.2C333.95 3717.82 332.41 3717.68 331.224 3716.85L235.446 3649.79C234.26 3648.96 233.607 3647.56 233.733 3646.11L243.924 3529.63C244.05 3528.19 244.936 3526.93 246.249 3526.31L352.217 3476.9Z" fill="#6BBAE7"/>
<path d="M403.967 3452.08C405.369 3451.72 406.858 3452.13 407.873 3453.17L489.825 3536.56C490.84 3537.59 491.227 3539.09 490.84 3540.49L459.594 3653.16C459.207 3654.55 458.105 3655.64 456.703 3656L343.504 3685.27C342.102 3685.64 340.613 3685.22 339.598 3684.19L257.645 3600.79C256.63 3599.76 256.243 3598.27 256.63 3596.87L287.877 3484.2C288.264 3482.8 289.366 3481.72 290.768 3481.36L403.967 3452.08Z" fill="#F36F97"/>
<path d="M175.455 4089.13C176.797 4088.59 178.327 4088.8 179.469 4089.7L271.605 4161.68C272.746 4162.57 273.325 4164.01 273.124 4165.44L256.851 4281.22C256.65 4282.66 255.698 4283.88 254.356 4284.42L145.946 4328.22C144.604 4328.76 143.073 4328.55 141.932 4327.66L49.7956 4255.67C48.6545 4254.78 48.0756 4253.35 48.2772 4251.91L64.5497 4136.13C64.7513 4134.69 65.7026 4133.47 67.0453 4132.93L175.455 4089.13Z" fill="#F36F97"/>
<path d="M158.91 4077.08C160.312 4076.72 161.801 4077.13 162.816 4078.17L244.768 4161.56C245.783 4162.59 246.17 4164.09 245.783 4165.49L214.537 4278.16C214.15 4279.55 213.048 4280.64 211.646 4281L98.4467 4310.27C97.0447 4310.64 95.5557 4310.22 94.5407 4309.19L12.5881 4225.79C11.5731 4224.76 11.1862 4223.27 11.5732 4221.87L42.8196 4109.2C43.2066 4107.8 44.3087 4106.72 45.7107 4106.36L158.91 4077.08Z" fill="#F2DDB6"/>
</g>
<defs>
<clipPath id="clip0_77_398">
<rect width="360" height="4099" fill="white"/>
</clipPath>
</defs>
</svg>
