<svg width="74" height="64" viewBox="0 0 74 64" fill="none" xmlns="http://www.w3.org/2000/svg">
<circle cx="41" cy="30" r="30" fill="#f04276"/>
<path fill-rule="evenodd" clip-rule="evenodd" d="M50.1296 63.8254L61.8254 52.1296C61.6915 51.4221 61.4831 50.7409 61.2087 50.0946L48.0946 63.2087C48.7409 63.4831 49.4221 63.6915 50.1296 63.8254ZM59.0711 46.9289C59.5151 47.373 59.9176 47.8586 60.2722 48.3795L46.3795 62.2722C45.8586 61.9176 45.373 61.5151 44.9289 61.0711L59.0711 46.9289ZM57.6205 45.7278C57.0839 45.3625 56.5099 45.048 55.9054 44.7913L42.7913 57.9054C43.048 58.5099 43.3625 59.0839 43.7278 59.6205L57.6205 45.7278ZM52 44C52.6393 44 53.2645 44.06 53.8704 44.1746L42.1746 55.8704C42.06 55.2645 42 54.6393 42 54C42 53.7898 42.0065 53.5811 42.0193 53.3741L51.3741 44.0193C51.5811 44.0065 51.7898 44 52 44ZM42.9053 49.8364C43.9038 47.659 45.6612 45.902 47.8389 44.9042L42.9053 49.8364Z" fill="#50ade2"/>
<path fill-rule="evenodd" clip-rule="evenodd" d="M56.1725 63.0857C55.0792 63.5899 53.8871 63.9026 52.6259 63.9807L61.9807 54.6259C61.9027 55.8899 61.5886 57.0905 61.0824 58.1843L60.8987 58.3596L56.1725 63.0857Z" fill="#50ade2"/>
<circle cx="20" cy="40" r="20" fill="#50ade2"/>
<path d="M6.792 41.06C6.688 41.06 6.604 41.048 6.54 41.024C6.476 41.008 6.444 40.976 6.444 40.928C6.444 40.832 6.576 40.76 6.84 40.712C7.144 40.656 7.368 40.564 7.512 40.436C7.656 40.308 7.728 40.1 7.728 39.812V34.412C7.728 34.124 7.668 33.92 7.548 33.8C7.436 33.68 7.228 33.592 6.924 33.536C6.788 33.512 6.688 33.48 6.624 33.44C6.56 33.4 6.528 33.352 6.528 33.296C6.528 33.248 6.56 33.216 6.624 33.2C6.688 33.176 6.772 33.164 6.876 33.164C7.18 33.164 7.436 33.168 7.644 33.176C7.86 33.184 8.068 33.192 8.268 33.2C8.476 33.2 8.72 33.2 9 33.2C9.264 33.2 9.54 33.2 9.828 33.2C10.124 33.192 10.396 33.188 10.644 33.188C10.916 33.18 11.144 33.176 11.328 33.176C11.52 33.168 11.632 33.164 11.664 33.164C11.704 33.164 11.748 33.172 11.796 33.188C11.844 33.204 11.872 33.232 11.88 33.272C11.92 33.496 11.96 33.72 12 33.944C12.04 34.16 12.06 34.348 12.06 34.508C12.06 34.58 12.04 34.628 12 34.652C11.968 34.676 11.932 34.688 11.892 34.688C11.852 34.688 11.824 34.68 11.808 34.664C11.792 34.64 11.776 34.608 11.76 34.568C11.72 34.432 11.68 34.304 11.64 34.184C11.6 34.056 11.552 33.964 11.496 33.908C11.384 33.78 11.26 33.696 11.124 33.656C10.988 33.608 10.844 33.584 10.692 33.584H9.12C9.056 33.584 8.968 33.62 8.856 33.692C8.744 33.764 8.688 33.856 8.688 33.968V36.512C8.688 36.584 8.708 36.648 8.748 36.704C8.796 36.752 8.848 36.776 8.904 36.776H10.092C10.324 36.776 10.484 36.736 10.572 36.656C10.66 36.568 10.732 36.412 10.788 36.188C10.836 36.012 10.908 35.924 11.004 35.924C11.036 35.924 11.068 35.94 11.1 35.972C11.14 36.004 11.16 36.052 11.16 36.116C11.16 36.148 11.156 36.22 11.148 36.332C11.148 36.444 11.144 36.56 11.136 36.68C11.128 36.8 11.124 36.892 11.124 36.956C11.124 37.036 11.124 37.144 11.124 37.28C11.132 37.408 11.136 37.532 11.136 37.652C11.144 37.772 11.148 37.848 11.148 37.88C11.148 37.936 11.14 37.984 11.124 38.024C11.116 38.064 11.088 38.084 11.04 38.084C10.92 38.084 10.828 37.956 10.764 37.7C10.716 37.516 10.652 37.38 10.572 37.292C10.492 37.204 10.372 37.16 10.212 37.16H9.096C8.96 37.16 8.856 37.18 8.784 37.22C8.72 37.252 8.688 37.336 8.688 37.472V39.776C8.688 40.08 8.752 40.292 8.88 40.412C9.008 40.524 9.208 40.58 9.48 40.58H10.368C10.624 40.58 10.836 40.568 11.004 40.544C11.18 40.512 11.332 40.456 11.46 40.376C11.588 40.288 11.7 40.172 11.796 40.028C11.9 39.884 12.016 39.692 12.144 39.452C12.168 39.404 12.196 39.364 12.228 39.332C12.26 39.3 12.296 39.288 12.336 39.296C12.376 39.304 12.408 39.324 12.432 39.356C12.456 39.38 12.468 39.416 12.468 39.464C12.468 39.536 12.448 39.664 12.408 39.848C12.368 40.024 12.316 40.208 12.252 40.4C12.196 40.592 12.144 40.744 12.096 40.856C12.072 40.912 12.048 40.96 12.024 41C12.008 41.04 11.976 41.06 11.928 41.06C11.544 41.06 11.188 41.056 10.86 41.048C10.532 41.04 10.22 41.032 9.924 41.024C9.628 41.016 9.336 41.008 9.048 41C8.768 40.992 8.476 40.988 8.172 40.988C7.996 40.988 7.844 40.992 7.716 41C7.588 41.016 7.456 41.028 7.32 41.036C7.184 41.052 7.008 41.06 6.792 41.06ZM13.1334 41.048C13.0854 41.048 13.0334 41.04 12.9774 41.024C12.9214 41.016 12.8934 40.988 12.8934 40.94C12.8934 40.876 12.9214 40.828 12.9774 40.796C13.0414 40.764 13.1054 40.74 13.1694 40.724C13.2894 40.684 13.4094 40.62 13.5294 40.532C13.6574 40.436 13.8054 40.272 13.9734 40.04L14.8974 38.756C14.9534 38.692 14.9774 38.644 14.9694 38.612C14.9694 38.572 14.9534 38.528 14.9214 38.48L13.9374 36.98C13.8414 36.82 13.7534 36.704 13.6734 36.632C13.6014 36.56 13.5054 36.508 13.3854 36.476C13.3214 36.46 13.2574 36.436 13.1934 36.404C13.1374 36.372 13.1094 36.324 13.1094 36.26C13.1094 36.196 13.1454 36.164 13.2174 36.164C13.2974 36.156 13.3534 36.152 13.3854 36.152C13.5454 36.152 13.6534 36.156 13.7094 36.164C13.7734 36.172 13.8454 36.18 13.9254 36.188C14.0054 36.196 14.1414 36.2 14.3334 36.2C14.4774 36.2 14.5814 36.196 14.6454 36.188C14.7094 36.18 14.8094 36.176 14.9454 36.176C14.9774 36.176 15.0294 36.18 15.1014 36.188C15.1814 36.188 15.2214 36.22 15.2214 36.284C15.2214 36.332 15.1974 36.368 15.1494 36.392C15.1094 36.416 15.0614 36.436 15.0054 36.452C14.9494 36.468 14.8934 36.492 14.8374 36.524C14.7814 36.548 14.7534 36.592 14.7534 36.656C14.7534 36.696 14.7654 36.752 14.7894 36.824C14.8214 36.888 14.8614 36.96 14.9094 37.04L15.4614 37.868C15.4934 37.924 15.5294 37.924 15.5694 37.868L16.1814 36.944C16.2134 36.904 16.2374 36.86 16.2534 36.812C16.2694 36.764 16.2774 36.72 16.2774 36.68C16.2774 36.584 16.2254 36.52 16.1214 36.488C16.0574 36.464 15.9934 36.436 15.9294 36.404C15.8734 36.372 15.8454 36.328 15.8454 36.272C15.8454 36.208 15.8814 36.176 15.9534 36.176C16.0334 36.168 16.0894 36.164 16.1214 36.164C16.1854 36.164 16.2774 36.172 16.3974 36.188C16.5174 36.196 16.6254 36.2 16.7214 36.2C16.9454 36.2 17.1014 36.192 17.1894 36.176C17.2774 36.152 17.3734 36.14 17.4774 36.14C17.5254 36.14 17.5774 36.148 17.6334 36.164C17.6894 36.172 17.7174 36.2 17.7174 36.248C17.7174 36.304 17.6854 36.348 17.6214 36.38C17.5654 36.412 17.5054 36.44 17.4414 36.464C17.3214 36.496 17.1774 36.56 17.0094 36.656C16.8414 36.744 16.7014 36.868 16.5894 37.028L15.8334 38.168C15.8254 38.184 15.8174 38.208 15.8094 38.24C15.8094 38.264 15.8214 38.292 15.8454 38.324L17.0094 40.22C17.1054 40.372 17.1974 40.484 17.2854 40.556C17.3734 40.628 17.4774 40.684 17.5974 40.724C17.6614 40.74 17.7214 40.764 17.7774 40.796C17.8414 40.828 17.8734 40.876 17.8734 40.94C17.8734 40.988 17.8454 41.016 17.7894 41.024C17.7334 41.04 17.6814 41.048 17.6334 41.048C17.4734 41.048 17.3574 41.044 17.2854 41.036C17.2134 41.028 17.1334 41.02 17.0454 41.012C16.9654 41.004 16.8254 41 16.6254 41C16.4814 41 16.3334 41.004 16.1814 41.012C16.0294 41.02 15.8854 41.024 15.7494 41.024C15.5654 41.024 15.4734 40.984 15.4734 40.904C15.4734 40.832 15.4974 40.78 15.5454 40.748C15.6014 40.716 15.6774 40.688 15.7734 40.664C15.8614 40.64 15.9374 40.608 16.0014 40.568C16.0734 40.52 16.1094 40.456 16.1094 40.376C16.1094 40.344 16.1014 40.312 16.0854 40.28C16.0774 40.24 16.0614 40.2 16.0374 40.16L15.3294 39.008C15.3054 38.984 15.2814 38.984 15.2574 39.008L14.4654 40.196C14.4574 40.212 14.4454 40.244 14.4294 40.292C14.4134 40.332 14.4054 40.376 14.4054 40.424C14.4054 40.48 14.4174 40.536 14.4414 40.592C14.4734 40.64 14.5174 40.672 14.5734 40.688C14.6374 40.712 14.6974 40.74 14.7534 40.772C14.8174 40.796 14.8494 40.84 14.8494 40.904C14.8494 40.96 14.8094 40.992 14.7294 41C14.6574 41.008 14.6054 41.012 14.5734 41.012C14.5094 41.012 14.4094 41.008 14.2734 41C14.1454 40.992 14.0334 40.988 13.9374 40.988C13.7134 40.988 13.5494 40.996 13.4454 41.012C13.3494 41.036 13.2454 41.048 13.1334 41.048ZM18.4097 44.42C18.3697 44.42 18.3177 44.412 18.2537 44.396C18.1897 44.388 18.1577 44.36 18.1577 44.312C18.1577 44.248 18.1857 44.2 18.2417 44.168C18.3057 44.144 18.3697 44.12 18.4337 44.096C18.5537 44.056 18.6697 44.008 18.7817 43.952C18.8937 43.904 18.9497 43.8 18.9497 43.64V37.556C18.9497 37.492 18.9297 37.396 18.8897 37.268C18.8577 37.14 18.8017 37.016 18.7217 36.896C18.6417 36.776 18.5337 36.704 18.3977 36.68C18.3657 36.672 18.3417 36.652 18.3257 36.62C18.3097 36.588 18.3017 36.556 18.3017 36.524C18.3017 36.484 18.3097 36.452 18.3257 36.428C18.3417 36.404 18.3617 36.388 18.3857 36.38C18.6897 36.308 18.9497 36.232 19.1657 36.152C19.3817 36.064 19.5857 35.98 19.7777 35.9C19.7857 35.9 19.7897 35.9 19.7897 35.9C19.7897 35.892 19.7937 35.888 19.8017 35.888C19.8177 35.888 19.8337 35.9 19.8497 35.924C19.8657 35.948 19.8737 35.972 19.8737 35.996C19.8737 36.068 19.8617 36.184 19.8377 36.344C19.8217 36.496 19.8137 36.62 19.8137 36.716C19.8137 36.78 19.8177 36.816 19.8257 36.824C19.9057 36.744 20.0497 36.644 20.2577 36.524C20.4737 36.396 20.7177 36.284 20.9897 36.188C21.2617 36.084 21.5217 36.032 21.7697 36.032C22.1857 36.032 22.5377 36.144 22.8257 36.368C23.1217 36.584 23.3457 36.868 23.4977 37.22C23.6577 37.564 23.7377 37.924 23.7377 38.3C23.7377 38.66 23.6697 39.012 23.5337 39.356C23.3977 39.692 23.2057 39.996 22.9577 40.268C22.7097 40.54 22.4217 40.76 22.0937 40.928C21.7657 41.088 21.4137 41.168 21.0377 41.168C20.9257 41.168 20.7897 41.148 20.6297 41.108C20.4777 41.076 20.3257 41.032 20.1737 40.976C20.0297 40.92 19.9177 40.856 19.8377 40.784C19.8297 40.784 19.8217 40.832 19.8137 40.928C19.8057 41.016 19.7977 41.108 19.7897 41.204C19.7897 41.308 19.7897 41.372 19.7897 41.396V43.64C19.7897 43.744 19.8297 43.824 19.9097 43.88C19.9977 43.944 20.0937 43.988 20.1977 44.012C20.3097 44.044 20.4057 44.072 20.4857 44.096C20.5497 44.12 20.6097 44.144 20.6657 44.168C20.7297 44.2 20.7617 44.248 20.7617 44.312C20.7617 44.36 20.7297 44.388 20.6657 44.396C20.6017 44.412 20.5457 44.42 20.4977 44.42C20.2657 44.42 20.0697 44.408 19.9097 44.384C19.7577 44.368 19.5777 44.36 19.3697 44.36C19.2337 44.36 19.1217 44.364 19.0337 44.372C18.9537 44.38 18.8697 44.388 18.7817 44.396C18.6937 44.412 18.5697 44.42 18.4097 44.42ZM21.2177 40.796C21.3377 40.796 21.4817 40.76 21.6497 40.688C21.8257 40.616 21.9977 40.5 22.1657 40.34C22.3417 40.18 22.4857 39.964 22.5977 39.692C22.7177 39.42 22.7777 39.084 22.7777 38.684C22.7777 38.22 22.7177 37.848 22.5977 37.568C22.4777 37.288 22.3297 37.076 22.1537 36.932C21.9777 36.788 21.7977 36.692 21.6137 36.644C21.4297 36.596 21.2737 36.572 21.1457 36.572C20.9537 36.572 20.7537 36.612 20.5457 36.692C20.3457 36.772 20.1737 36.864 20.0297 36.968C19.8937 37.064 19.8257 37.14 19.8257 37.196C19.8257 37.372 19.8217 37.552 19.8137 37.736C19.8137 37.912 19.8097 38.084 19.8017 38.252C19.8017 38.42 19.7977 38.572 19.7897 38.708C19.7897 38.836 19.7897 38.936 19.7897 39.008C19.7897 39.328 19.8617 39.624 20.0057 39.896C20.1577 40.168 20.3417 40.388 20.5577 40.556C20.7817 40.716 21.0017 40.796 21.2177 40.796ZM24.7403 41.036C24.6603 41.036 24.6003 41.024 24.5603 41C24.5203 40.984 24.5003 40.952 24.5003 40.904C24.5003 40.84 24.5243 40.8 24.5723 40.784C24.6203 40.76 24.6883 40.736 24.7763 40.712C24.9283 40.672 25.0403 40.616 25.1123 40.544C25.1923 40.464 25.2323 40.368 25.2323 40.256V37.676C25.2323 37.46 25.2003 37.272 25.1363 37.112C25.0723 36.952 24.9403 36.852 24.7403 36.812C24.7083 36.804 24.6803 36.784 24.6563 36.752C24.6323 36.72 24.6203 36.688 24.6203 36.656C24.6203 36.576 24.6563 36.528 24.7283 36.512C24.9363 36.448 25.1523 36.356 25.3763 36.236C25.6083 36.108 25.7883 36.004 25.9163 35.924C25.9643 35.892 26.0003 35.872 26.0243 35.864C26.0563 35.848 26.0803 35.84 26.0963 35.84C26.1363 35.84 26.1563 35.868 26.1563 35.924C26.1563 35.948 26.1523 36.008 26.1443 36.104C26.1443 36.2 26.1403 36.312 26.1323 36.44C26.1323 36.568 26.1283 36.696 26.1203 36.824C26.1203 36.84 26.1283 36.848 26.1443 36.848C26.2723 36.688 26.4123 36.548 26.5643 36.428C26.7243 36.308 26.8843 36.212 27.0443 36.14C27.2123 36.068 27.3723 36.032 27.5243 36.032C27.6923 36.032 27.8283 36.068 27.9323 36.14C28.0443 36.212 28.1003 36.304 28.1003 36.416C28.1003 36.496 28.0763 36.584 28.0283 36.68C27.9883 36.776 27.9323 36.86 27.8603 36.932C27.7883 37.004 27.7123 37.04 27.6323 37.04C27.5843 37.04 27.5323 37.032 27.4763 37.016C27.4203 36.992 27.3603 36.964 27.2963 36.932C27.2323 36.908 27.1683 36.884 27.1043 36.86C27.0403 36.836 26.9763 36.824 26.9123 36.824C26.7203 36.824 26.5323 36.892 26.3483 37.028C26.1723 37.164 26.0843 37.432 26.0843 37.832V40.256C26.0843 40.36 26.1403 40.448 26.2523 40.52C26.3643 40.584 26.5203 40.648 26.7203 40.712C26.8083 40.736 26.8763 40.76 26.9243 40.784C26.9723 40.808 26.9963 40.848 26.9963 40.904C26.9963 40.992 26.9163 41.036 26.7563 41.036C26.5163 41.036 26.3323 41.024 26.2043 41C26.0843 40.984 25.9203 40.976 25.7123 40.976C25.5763 40.976 25.4643 40.98 25.3763 40.988C25.2963 40.996 25.2083 41.004 25.1123 41.012C25.0243 41.028 24.9003 41.036 24.7403 41.036ZM30.7162 41.18C30.2762 41.18 29.8922 41.072 29.5642 40.856C29.2362 40.64 28.9802 40.336 28.7962 39.944C28.6122 39.544 28.5202 39.084 28.5202 38.564C28.5202 38.1 28.6242 37.68 28.8322 37.304C29.0482 36.92 29.3322 36.612 29.6842 36.38C30.0362 36.148 30.4202 36.032 30.8362 36.032C31.1562 36.032 31.4402 36.096 31.6882 36.224C31.9362 36.352 32.1282 36.532 32.2642 36.764C32.4082 36.988 32.4802 37.248 32.4802 37.544C32.4802 37.792 32.3602 37.916 32.1202 37.916H29.5882C29.4762 37.916 29.3962 37.948 29.3482 38.012C29.3082 38.068 29.2882 38.184 29.2882 38.36C29.2882 38.744 29.3722 39.096 29.5402 39.416C29.7082 39.728 29.9322 39.98 30.2122 40.172C30.4922 40.356 30.8002 40.448 31.1362 40.448C31.3762 40.448 31.5922 40.404 31.7842 40.316C31.9842 40.22 32.1602 40.084 32.3122 39.908C32.3442 39.868 32.3682 39.844 32.3842 39.836C32.4002 39.82 32.4202 39.812 32.4442 39.812C32.5082 39.812 32.5402 39.852 32.5402 39.932C32.5402 40.084 32.4682 40.252 32.3242 40.436C32.2042 40.588 32.0602 40.72 31.8922 40.832C31.7242 40.944 31.5402 41.028 31.3402 41.084C31.1402 41.148 30.9322 41.18 30.7162 41.18ZM29.6122 37.544H30.7042C30.8962 37.544 31.0602 37.54 31.1962 37.532C31.3322 37.524 31.4642 37.508 31.5922 37.484C31.6322 37.476 31.6562 37.452 31.6642 37.412C31.6802 37.364 31.6882 37.3 31.6882 37.22C31.6882 36.988 31.5842 36.792 31.3762 36.632C31.1762 36.464 30.9362 36.38 30.6562 36.38C30.4722 36.38 30.2882 36.436 30.1042 36.548C29.9202 36.652 29.7682 36.784 29.6482 36.944C29.5282 37.104 29.4682 37.264 29.4682 37.424C29.4682 37.504 29.5162 37.544 29.6122 37.544ZM34.5639 41.168C34.3159 41.168 34.0839 41.128 33.8679 41.048C33.6519 40.976 33.4679 40.872 33.3159 40.736C33.2759 40.648 33.2439 40.5 33.2199 40.292C33.2039 40.084 33.1919 39.912 33.1839 39.776C33.1839 39.704 33.2359 39.668 33.3399 39.668C33.3719 39.668 33.3999 39.676 33.4239 39.692C33.4559 39.7 33.4759 39.72 33.4839 39.752C33.5879 40.144 33.7519 40.424 33.9759 40.592C34.2079 40.76 34.4399 40.844 34.6719 40.844C34.9039 40.844 35.0999 40.768 35.2599 40.616C35.4279 40.456 35.5119 40.26 35.5119 40.028C35.5119 39.812 35.4399 39.628 35.2959 39.476C35.1519 39.316 34.8999 39.124 34.5399 38.9C34.2679 38.732 34.0479 38.572 33.8799 38.42C33.7119 38.268 33.5879 38.112 33.5079 37.952C33.4359 37.792 33.3999 37.612 33.3999 37.412C33.3999 37.156 33.4599 36.924 33.5799 36.716C33.6999 36.508 33.8799 36.344 34.1199 36.224C34.3599 36.096 34.6599 36.032 35.0199 36.032C35.2599 36.032 35.4599 36.056 35.6199 36.104C35.7799 36.152 35.8999 36.204 35.9799 36.26C36.0439 36.348 36.0959 36.488 36.1359 36.68C36.1839 36.864 36.2079 37.04 36.2079 37.208C36.2079 37.264 36.1679 37.292 36.0879 37.292C36.0399 37.292 35.9919 37.284 35.9439 37.268C35.9039 37.244 35.8759 37.216 35.8599 37.184C35.7559 36.92 35.6239 36.72 35.4639 36.584C35.3119 36.44 35.1199 36.368 34.8879 36.368C34.6879 36.368 34.5079 36.428 34.3479 36.548C34.1959 36.668 34.1199 36.844 34.1199 37.076C34.1199 37.26 34.1759 37.424 34.2879 37.568C34.4079 37.712 34.6279 37.876 34.9479 38.06C35.4119 38.324 35.7559 38.572 35.9799 38.804C36.2119 39.028 36.3279 39.328 36.3279 39.704C36.3279 40.136 36.1639 40.488 35.8359 40.76C35.5079 41.032 35.0839 41.168 34.5639 41.168ZM38.4428 41.168C38.1948 41.168 37.9628 41.128 37.7468 41.048C37.5308 40.976 37.3468 40.872 37.1948 40.736C37.1548 40.648 37.1228 40.5 37.0988 40.292C37.0828 40.084 37.0708 39.912 37.0628 39.776C37.0628 39.704 37.1148 39.668 37.2188 39.668C37.2508 39.668 37.2788 39.676 37.3028 39.692C37.3348 39.7 37.3548 39.72 37.3628 39.752C37.4668 40.144 37.6308 40.424 37.8548 40.592C38.0868 40.76 38.3188 40.844 38.5508 40.844C38.7828 40.844 38.9788 40.768 39.1388 40.616C39.3068 40.456 39.3908 40.26 39.3908 40.028C39.3908 39.812 39.3188 39.628 39.1748 39.476C39.0308 39.316 38.7788 39.124 38.4188 38.9C38.1468 38.732 37.9268 38.572 37.7588 38.42C37.5908 38.268 37.4668 38.112 37.3868 37.952C37.3148 37.792 37.2788 37.612 37.2788 37.412C37.2788 37.156 37.3388 36.924 37.4588 36.716C37.5788 36.508 37.7588 36.344 37.9988 36.224C38.2388 36.096 38.5388 36.032 38.8988 36.032C39.1388 36.032 39.3388 36.056 39.4988 36.104C39.6588 36.152 39.7788 36.204 39.8588 36.26C39.9228 36.348 39.9748 36.488 40.0148 36.68C40.0628 36.864 40.0868 37.04 40.0868 37.208C40.0868 37.264 40.0468 37.292 39.9668 37.292C39.9188 37.292 39.8708 37.284 39.8228 37.268C39.7828 37.244 39.7548 37.216 39.7388 37.184C39.6348 36.92 39.5028 36.72 39.3428 36.584C39.1908 36.44 38.9988 36.368 38.7668 36.368C38.5668 36.368 38.3868 36.428 38.2268 36.548C38.0748 36.668 37.9988 36.844 37.9988 37.076C37.9988 37.26 38.0548 37.424 38.1668 37.568C38.2868 37.712 38.5068 37.876 38.8268 38.06C39.2908 38.324 39.6348 38.572 39.8588 38.804C40.0908 39.028 40.2068 39.328 40.2068 39.704C40.2068 40.136 40.0428 40.488 39.7148 40.76C39.3868 41.032 38.9628 41.168 38.4428 41.168ZM41.9978 41.168C41.8538 41.168 41.7058 41.112 41.5538 41C41.4098 40.888 41.2858 40.752 41.1818 40.592C41.0858 40.432 41.0378 40.28 41.0378 40.136C41.0378 39.88 41.1058 39.68 41.2418 39.536C41.3778 39.392 41.5938 39.26 41.8898 39.14L43.1138 38.636C43.2738 38.572 43.3658 38.516 43.3898 38.468C43.4218 38.42 43.4418 38.316 43.4498 38.156L43.4738 37.388C43.4818 37.18 43.4218 37 43.2938 36.848C43.1738 36.696 42.9978 36.62 42.7658 36.62C42.6458 36.62 42.5258 36.64 42.4058 36.68C42.2858 36.72 42.1858 36.772 42.1058 36.836C42.0578 36.868 42.0258 36.916 42.0098 36.98C41.9938 37.044 41.9858 37.112 41.9858 37.184C41.9858 37.216 41.9858 37.252 41.9858 37.292C41.9938 37.332 41.9978 37.368 41.9978 37.4C41.9978 37.44 41.9458 37.496 41.8418 37.568C41.7458 37.632 41.6338 37.692 41.5058 37.748C41.3858 37.796 41.2858 37.82 41.2058 37.82C41.1658 37.82 41.1338 37.812 41.1098 37.796C41.0858 37.772 41.0738 37.744 41.0738 37.712C41.0738 37.584 41.1138 37.448 41.1938 37.304C41.2818 37.152 41.4018 37.012 41.5538 36.884C41.7378 36.716 41.9378 36.568 42.1538 36.44C42.3698 36.312 42.5818 36.212 42.7898 36.14C42.9978 36.068 43.1818 36.032 43.3418 36.032C43.6298 36.032 43.8658 36.136 44.0498 36.344C44.2418 36.544 44.3338 36.796 44.3258 37.1L44.2658 39.98C44.2578 40.148 44.2938 40.284 44.3738 40.388C44.4618 40.492 44.5698 40.544 44.6978 40.544C44.8978 40.544 45.0458 40.5 45.1418 40.412C45.1818 40.372 45.2138 40.352 45.2378 40.352C45.2778 40.352 45.3098 40.364 45.3338 40.388C45.3578 40.412 45.3698 40.444 45.3698 40.484C45.3698 40.572 45.3258 40.66 45.2378 40.748C45.1098 40.876 44.9698 40.976 44.8178 41.048C44.6738 41.128 44.5378 41.168 44.4098 41.168C44.0418 41.168 43.7498 40.96 43.5338 40.544H43.4978C43.2338 40.76 42.9818 40.916 42.7418 41.012C42.5018 41.116 42.2538 41.168 41.9978 41.168ZM42.5618 40.592C42.7218 40.592 42.8578 40.568 42.9698 40.52C43.0818 40.464 43.1818 40.392 43.2698 40.304C43.3098 40.264 43.3418 40.212 43.3658 40.148C43.3978 40.076 43.4178 39.964 43.4258 39.812L43.4498 39.224C43.4578 39.136 43.4538 39.072 43.4378 39.032C43.4218 38.992 43.3898 38.972 43.3418 38.972C43.3258 38.972 43.2978 38.976 43.2578 38.984C43.2178 38.992 43.1658 39.008 43.1018 39.032C42.6778 39.184 42.3818 39.344 42.2138 39.512C42.0538 39.672 41.9738 39.82 41.9738 39.956C41.9738 40.164 42.0338 40.324 42.1538 40.436C42.2818 40.54 42.4178 40.592 42.5618 40.592ZM41.6258 35.504C41.5698 35.504 41.5218 35.488 41.4818 35.456C41.4498 35.424 41.4338 35.38 41.4338 35.324C41.4338 35.292 41.4778 35.22 41.5658 35.108C41.6538 34.988 41.7578 34.86 41.8778 34.724C42.0058 34.58 42.1338 34.456 42.2618 34.352C42.3898 34.248 42.4898 34.196 42.5618 34.196C42.6978 34.196 42.8058 34.204 42.8858 34.22C42.9658 34.228 43.0618 34.24 43.1738 34.256C43.3098 34.264 43.4298 34.276 43.5338 34.292C43.6378 34.3 43.7418 34.304 43.8458 34.304C43.9338 34.304 44.0178 34.28 44.0978 34.232C44.1858 34.184 44.2578 34.132 44.3138 34.076C44.4018 33.988 44.4738 33.912 44.5298 33.848C44.5858 33.776 44.6258 33.74 44.6498 33.74C44.7138 33.74 44.7658 33.76 44.8058 33.8C44.8538 33.832 44.8778 33.88 44.8778 33.944C44.8778 33.968 44.8538 34.004 44.8058 34.052C44.7658 34.1 44.7018 34.168 44.6138 34.256C44.5178 34.344 44.4178 34.456 44.3138 34.592C44.2178 34.72 44.1298 34.832 44.0498 34.928C44.0018 34.984 43.9378 35.028 43.8578 35.06C43.7778 35.084 43.7258 35.096 43.7018 35.096C43.6538 35.096 43.5778 35.092 43.4738 35.084C43.3698 35.076 43.2538 35.064 43.1258 35.048C42.9978 35.032 42.8658 35.02 42.7298 35.012C42.6018 35.004 42.4818 35 42.3698 35C42.2898 35 42.2058 35.028 42.1178 35.084C42.0378 35.14 41.9658 35.2 41.9018 35.264C41.8458 35.312 41.7898 35.364 41.7338 35.42C41.6858 35.476 41.6498 35.504 41.6258 35.504ZM48.1947 41.168C47.7467 41.168 47.3427 41.064 46.9827 40.856C46.6227 40.648 46.3347 40.364 46.1187 40.004C45.9107 39.636 45.8067 39.22 45.8067 38.756C45.8067 38.42 45.8707 38.092 45.9987 37.772C46.1347 37.452 46.3227 37.16 46.5627 36.896C46.8027 36.632 47.0827 36.424 47.4027 36.272C47.7227 36.112 48.0667 36.032 48.4347 36.032C48.8987 36.032 49.3147 36.144 49.6827 36.368C50.0587 36.592 50.3547 36.888 50.5707 37.256C50.7947 37.616 50.9067 38.012 50.9067 38.444C50.9067 38.908 50.8027 39.348 50.5947 39.764C50.3947 40.18 50.0947 40.52 49.6947 40.784C49.2947 41.04 48.7947 41.168 48.1947 41.168ZM48.4467 40.808C48.7187 40.808 48.9627 40.756 49.1787 40.652C49.3947 40.548 49.5627 40.38 49.6827 40.148C49.7787 39.964 49.8427 39.74 49.8747 39.476C49.9067 39.212 49.9227 38.964 49.9227 38.732C49.9227 38.348 49.8507 37.98 49.7067 37.628C49.5707 37.268 49.3747 36.976 49.1187 36.752C48.8707 36.52 48.5747 36.404 48.2307 36.404C48.0147 36.404 47.8187 36.44 47.6427 36.512C47.4747 36.576 47.3187 36.7 47.1747 36.884C47.0147 37.084 46.9107 37.328 46.8627 37.616C46.8147 37.904 46.7907 38.192 46.7907 38.48C46.7907 38.872 46.8627 39.248 47.0067 39.608C47.1507 39.96 47.3467 40.248 47.5947 40.472C47.8427 40.696 48.1267 40.808 48.4467 40.808Z" fill="black"/>
<path d="M4 42.5C3.72386 42.5 3.5 42.7239 3.5 43C3.5 43.2761 3.72386 43.5 4 43.5V42.5ZM53.5 43.5C53.7761 43.5 54 43.2761 54 43C54 42.7239 53.7761 42.5 53.5 42.5V43.5ZM4 43.5H53.5V42.5H4V43.5Z" fill="black"/>
<path d="M24 57.5C23.7239 57.5 23.5 57.7239 23.5 58C23.5 58.2761 23.7239 58.5 24 58.5V57.5ZM73.5 58.5C73.7761 58.5 74 58.2761 74 58C74 57.7239 73.7761 57.5 73.5 57.5V58.5ZM24 58.5H73.5V57.5H24V58.5Z" fill="black"/>
<path d="M27.708 56.06C27.604 56.06 27.52 56.048 27.456 56.024C27.392 56.008 27.36 55.976 27.36 55.928C27.36 55.832 27.492 55.76 27.756 55.712C28.06 55.656 28.268 55.564 28.38 55.436C28.5 55.308 28.56 55.096 28.56 54.8V49.736C28.56 49.376 28.512 49.1 28.416 48.908C28.328 48.716 28.132 48.592 27.828 48.536C27.692 48.512 27.592 48.48 27.528 48.44C27.464 48.4 27.432 48.352 27.432 48.296C27.432 48.248 27.464 48.216 27.528 48.2C27.592 48.176 27.676 48.164 27.78 48.164C28.076 48.164 28.324 48.168 28.524 48.176C28.732 48.184 28.936 48.192 29.136 48.2C29.336 48.2 29.572 48.2 29.844 48.2C30.076 48.2 30.324 48.2 30.588 48.2C30.852 48.2 31.108 48.2 31.356 48.2C31.612 48.2 31.836 48.18 32.028 48.14C32.228 48.1 32.4 48.08 32.544 48.08C32.584 48.08 32.628 48.088 32.676 48.104C32.724 48.12 32.752 48.148 32.76 48.188C32.776 48.276 32.788 48.408 32.796 48.584C32.804 48.752 32.808 48.916 32.808 49.076C32.816 49.236 32.82 49.344 32.82 49.4C32.82 49.568 32.784 49.652 32.712 49.652C32.672 49.652 32.636 49.64 32.604 49.616C32.572 49.584 32.548 49.548 32.532 49.508C32.5 49.372 32.46 49.256 32.412 49.16C32.364 49.056 32.312 48.976 32.256 48.92C32.144 48.792 32.02 48.708 31.884 48.668C31.748 48.62 31.604 48.596 31.452 48.596H29.928C29.744 48.596 29.632 48.656 29.592 48.776C29.552 48.896 29.528 49.036 29.52 49.196C29.512 49.348 29.508 49.536 29.508 49.76C29.508 49.976 29.508 50.188 29.508 50.396C29.508 50.596 29.508 50.8 29.508 51.008C29.508 51.216 29.512 51.392 29.52 51.536C29.52 51.6 29.524 51.66 29.532 51.716C29.548 51.772 29.584 51.8 29.64 51.8C29.896 51.8 30.156 51.796 30.42 51.788C30.684 51.772 30.888 51.764 31.032 51.764C31.208 51.764 31.36 51.716 31.488 51.62C31.616 51.524 31.708 51.408 31.764 51.272C31.78 51.24 31.812 51.2 31.86 51.152C31.908 51.096 31.948 51.068 31.98 51.068C32.012 51.068 32.048 51.088 32.088 51.128C32.128 51.16 32.144 51.204 32.136 51.26C32.128 51.396 32.12 51.516 32.112 51.62C32.104 51.724 32.1 51.824 32.1 51.92C32.1 52.04 32.104 52.164 32.112 52.292C32.12 52.412 32.128 52.56 32.136 52.736C32.136 52.792 32.128 52.84 32.112 52.88C32.104 52.92 32.076 52.94 32.028 52.94C31.948 52.94 31.884 52.904 31.836 52.832C31.796 52.76 31.768 52.704 31.752 52.664C31.696 52.48 31.612 52.356 31.5 52.292C31.388 52.22 31.284 52.184 31.188 52.184C31.084 52.184 30.98 52.184 30.876 52.184C30.78 52.176 30.684 52.172 30.588 52.172C30.452 52.172 30.32 52.172 30.192 52.172C30.064 52.172 29.936 52.18 29.808 52.196C29.728 52.204 29.66 52.232 29.604 52.28C29.548 52.32 29.52 52.392 29.52 52.496C29.52 52.864 29.52 53.24 29.52 53.624C29.528 54 29.54 54.388 29.556 54.788C29.572 55.044 29.632 55.248 29.736 55.4C29.848 55.552 30.052 55.656 30.348 55.712C30.484 55.736 30.584 55.764 30.648 55.796C30.712 55.828 30.744 55.872 30.744 55.928C30.744 55.976 30.712 56.008 30.648 56.024C30.584 56.048 30.5 56.06 30.396 56.06C30.18 56.06 30.012 56.052 29.892 56.036C29.78 56.02 29.676 56.008 29.58 56C29.492 55.984 29.372 55.976 29.22 55.976C29.028 55.976 28.856 55.984 28.704 56C28.56 56.008 28.412 56.02 28.26 56.036C28.108 56.052 27.924 56.06 27.708 56.06ZM35.3333 56.18C34.8933 56.18 34.5093 56.072 34.1813 55.856C33.8533 55.64 33.5973 55.336 33.4133 54.944C33.2293 54.544 33.1373 54.084 33.1373 53.564C33.1373 53.1 33.2413 52.68 33.4493 52.304C33.6653 51.92 33.9493 51.612 34.3013 51.38C34.6533 51.148 35.0373 51.032 35.4533 51.032C35.7733 51.032 36.0573 51.096 36.3053 51.224C36.5533 51.352 36.7453 51.532 36.8813 51.764C37.0253 51.988 37.0973 52.248 37.0973 52.544C37.0973 52.792 36.9773 52.916 36.7373 52.916H34.2053C34.0933 52.916 34.0133 52.948 33.9653 53.012C33.9253 53.068 33.9053 53.184 33.9053 53.36C33.9053 53.744 33.9893 54.096 34.1573 54.416C34.3253 54.728 34.5493 54.98 34.8293 55.172C35.1093 55.356 35.4173 55.448 35.7533 55.448C35.9933 55.448 36.2093 55.404 36.4013 55.316C36.6013 55.22 36.7773 55.084 36.9293 54.908C36.9613 54.868 36.9853 54.844 37.0013 54.836C37.0173 54.82 37.0373 54.812 37.0613 54.812C37.1253 54.812 37.1573 54.852 37.1573 54.932C37.1573 55.084 37.0853 55.252 36.9413 55.436C36.8213 55.588 36.6773 55.72 36.5093 55.832C36.3413 55.944 36.1573 56.028 35.9573 56.084C35.7573 56.148 35.5493 56.18 35.3333 56.18ZM34.2293 52.544H35.3213C35.5133 52.544 35.6773 52.54 35.8133 52.532C35.9493 52.524 36.0813 52.508 36.2093 52.484C36.2493 52.476 36.2733 52.452 36.2813 52.412C36.2973 52.364 36.3053 52.3 36.3053 52.22C36.3053 51.988 36.2013 51.792 35.9933 51.632C35.7933 51.464 35.5533 51.38 35.2733 51.38C35.0893 51.38 34.9053 51.436 34.7213 51.548C34.5373 51.652 34.3853 51.784 34.2653 51.944C34.1453 52.104 34.0853 52.264 34.0853 52.424C34.0853 52.504 34.1333 52.544 34.2293 52.544ZM37.9811 56.036C37.9171 56.036 37.8611 56.028 37.8131 56.012C37.7651 55.996 37.7411 55.96 37.7411 55.904C37.7411 55.848 37.7651 55.808 37.8131 55.784C37.8691 55.76 37.9371 55.736 38.0171 55.712C38.1291 55.672 38.2411 55.628 38.3531 55.58C38.4731 55.524 38.5331 55.416 38.5331 55.256V52.676C38.5331 52.46 38.5091 52.272 38.4611 52.112C38.4131 51.944 38.2851 51.844 38.0771 51.812C38.0451 51.804 38.0171 51.788 37.9931 51.764C37.9771 51.74 37.9691 51.704 37.9691 51.656C37.9691 51.576 38.0011 51.528 38.0651 51.512C38.2811 51.456 38.4531 51.4 38.5811 51.344C38.7091 51.28 38.8211 51.212 38.9171 51.14C39.0211 51.06 39.1451 50.976 39.2891 50.888C39.3051 50.88 39.3211 50.872 39.3371 50.864C39.3531 50.848 39.3731 50.84 39.3971 50.84C39.4451 50.84 39.4691 50.868 39.4691 50.924C39.4691 50.98 39.4571 51.096 39.4331 51.272C39.4171 51.44 39.4091 51.58 39.4091 51.692C39.4091 51.772 39.4171 51.82 39.4331 51.836H39.4571C39.6411 51.66 39.8811 51.484 40.1771 51.308C40.4811 51.124 40.8651 51.032 41.3291 51.032C41.6171 51.032 41.8571 51.096 42.0491 51.224C42.2411 51.344 42.4011 51.556 42.5291 51.86H42.5651C42.8211 51.628 43.1131 51.432 43.4411 51.272C43.7691 51.112 44.1291 51.032 44.5211 51.032C44.7851 51.032 45.0051 51.112 45.1811 51.272C45.3571 51.432 45.4891 51.64 45.5771 51.896C45.6731 52.152 45.7211 52.42 45.7211 52.7V55.256C45.7211 55.416 45.7771 55.524 45.8891 55.58C46.0011 55.628 46.1171 55.672 46.2371 55.712C46.3171 55.736 46.3811 55.76 46.4291 55.784C46.4851 55.808 46.5131 55.848 46.5131 55.904C46.5131 55.952 46.4931 55.984 46.4531 56C46.4211 56.024 46.3611 56.036 46.2731 56.036C46.1131 56.036 45.9891 56.028 45.9011 56.012C45.8131 56.004 45.7291 55.996 45.6491 55.988C45.5771 55.98 45.4691 55.976 45.3251 55.976C45.1891 55.976 45.0771 55.98 44.9891 55.988C44.9011 55.996 44.8091 56.004 44.7131 56.012C44.6171 56.028 44.4891 56.036 44.3291 56.036C44.2571 56.036 44.1971 56.024 44.1491 56C44.1091 55.984 44.0891 55.952 44.0891 55.904C44.0891 55.84 44.1131 55.796 44.1611 55.772C44.2171 55.748 44.2851 55.728 44.3651 55.712C44.4931 55.68 44.6091 55.636 44.7131 55.58C44.8251 55.524 44.8811 55.416 44.8811 55.256V52.736C44.8811 52.544 44.8371 52.364 44.7491 52.196C44.6611 52.02 44.5451 51.876 44.4011 51.764C44.2571 51.652 44.0971 51.596 43.9211 51.596C43.7211 51.596 43.5331 51.62 43.3571 51.668C43.1891 51.716 43.0291 51.8 42.8771 51.92C42.6531 52.096 42.5411 52.384 42.5411 52.784V55.256C42.5411 55.416 42.6011 55.524 42.7211 55.58C42.8411 55.636 42.9611 55.68 43.0811 55.712C43.1611 55.728 43.2251 55.752 43.2731 55.784C43.3291 55.808 43.3571 55.848 43.3571 55.904C43.3571 55.952 43.3371 55.984 43.2971 56C43.2571 56.024 43.1971 56.036 43.1171 56.036C42.9571 56.036 42.8291 56.028 42.7331 56.012C42.6451 56.004 42.5571 55.996 42.4691 55.988C42.3891 55.98 42.2771 55.976 42.1331 55.976C41.9971 55.976 41.8851 55.98 41.7971 55.988C41.7091 55.996 41.6171 56.004 41.5211 56.012C41.4251 56.028 41.2971 56.036 41.1371 56.036C41.0731 56.036 41.0171 56.024 40.9691 56C40.9211 55.984 40.8971 55.952 40.8971 55.904C40.8971 55.84 40.9251 55.8 40.9811 55.784C41.0451 55.76 41.1091 55.736 41.1731 55.712C41.2931 55.672 41.4091 55.628 41.5211 55.58C41.6411 55.524 41.7011 55.416 41.7011 55.256V52.736C41.7011 52.544 41.6571 52.364 41.5691 52.196C41.4811 52.02 41.3651 51.876 41.2211 51.764C41.0771 51.652 40.9171 51.596 40.7411 51.596C40.5411 51.596 40.3531 51.62 40.1771 51.668C40.0091 51.716 39.8491 51.8 39.6971 51.92C39.4811 52.08 39.3731 52.368 39.3731 52.784V55.256C39.3731 55.416 39.4291 55.524 39.5411 55.58C39.6531 55.628 39.7691 55.672 39.8891 55.712C39.9531 55.736 40.0131 55.76 40.0691 55.784C40.1331 55.8 40.1651 55.84 40.1651 55.904C40.1651 55.952 40.1411 55.984 40.0931 56C40.0531 56.024 39.9971 56.036 39.9251 56.036C39.7651 56.036 39.6371 56.028 39.5411 56.012C39.4531 56.004 39.3691 55.996 39.2891 55.988C39.2091 55.98 39.0971 55.976 38.9531 55.976C38.8171 55.976 38.7051 55.98 38.6171 55.988C38.5371 55.996 38.4491 56.004 38.3531 56.012C38.2651 56.028 38.1411 56.036 37.9811 56.036ZM47.321 56.036C47.249 56.036 47.189 56.024 47.141 56C47.101 55.984 47.081 55.952 47.081 55.904C47.081 55.84 47.109 55.796 47.165 55.772C47.229 55.748 47.293 55.728 47.357 55.712C47.525 55.672 47.653 55.624 47.741 55.568C47.829 55.504 47.873 55.4 47.873 55.256V52.652C47.873 52.436 47.833 52.244 47.753 52.076C47.681 51.908 47.541 51.808 47.333 51.776C47.293 51.768 47.261 51.752 47.237 51.728C47.221 51.704 47.213 51.668 47.213 51.62C47.213 51.532 47.249 51.484 47.321 51.476C47.641 51.404 47.905 51.308 48.113 51.188C48.321 51.06 48.477 50.956 48.581 50.876C48.653 50.82 48.709 50.792 48.749 50.792C48.797 50.792 48.821 50.812 48.821 50.852C48.821 50.916 48.809 51.044 48.785 51.236C48.769 51.42 48.753 51.628 48.737 51.86C48.721 52.084 48.713 52.288 48.713 52.472V55.256C48.713 55.392 48.757 55.492 48.845 55.556C48.941 55.62 49.069 55.672 49.229 55.712C49.293 55.728 49.353 55.748 49.409 55.772C49.473 55.796 49.505 55.84 49.505 55.904C49.505 55.992 49.425 56.036 49.265 56.036C49.113 56.036 48.989 56.028 48.893 56.012C48.805 56.004 48.717 55.996 48.629 55.988C48.549 55.98 48.437 55.976 48.293 55.976C48.157 55.976 48.045 55.98 47.957 55.988C47.869 55.996 47.781 56.004 47.693 56.012C47.605 56.028 47.481 56.036 47.321 56.036ZM48.281 49.808C48.113 49.808 47.969 49.752 47.849 49.64C47.737 49.52 47.681 49.376 47.681 49.208C47.681 49.032 47.737 48.888 47.849 48.776C47.969 48.656 48.113 48.596 48.281 48.596C48.457 48.596 48.601 48.656 48.713 48.776C48.833 48.888 48.893 49.032 48.893 49.208C48.893 49.376 48.833 49.52 48.713 49.64C48.601 49.752 48.457 49.808 48.281 49.808ZM50.2624 56.036C50.1904 56.036 50.1304 56.024 50.0824 56C50.0424 55.984 50.0224 55.952 50.0224 55.904C50.0224 55.84 50.0464 55.8 50.0944 55.784C50.1424 55.76 50.2104 55.736 50.2984 55.712C50.4184 55.68 50.5344 55.636 50.6464 55.58C50.7584 55.524 50.8144 55.416 50.8144 55.256V52.676C50.8144 52.46 50.7904 52.276 50.7424 52.124C50.7024 51.972 50.5784 51.868 50.3704 51.812C50.3384 51.796 50.3104 51.78 50.2864 51.764C50.2624 51.74 50.2504 51.704 50.2504 51.656C50.2504 51.568 50.2864 51.52 50.3584 51.512C50.6384 51.44 50.8664 51.352 51.0424 51.248C51.2184 51.144 51.3904 51.028 51.5584 50.9C51.5824 50.884 51.6024 50.872 51.6184 50.864C51.6424 50.848 51.6664 50.84 51.6904 50.84C51.7064 50.84 51.7184 50.848 51.7264 50.864C51.7424 50.88 51.7504 50.9 51.7504 50.924C51.7504 50.98 51.7384 51.096 51.7144 51.272C51.6984 51.44 51.6904 51.58 51.6904 51.692C51.6904 51.724 51.6904 51.756 51.6904 51.788C51.6984 51.812 51.7064 51.828 51.7144 51.836C51.9944 51.572 52.2904 51.372 52.6024 51.236C52.9224 51.1 53.2704 51.032 53.6464 51.032C54.0384 51.032 54.3624 51.192 54.6184 51.512C54.8744 51.832 55.0024 52.228 55.0024 52.7V55.256C55.0024 55.416 55.0584 55.524 55.1704 55.58C55.2824 55.628 55.3984 55.672 55.5184 55.712C55.5824 55.736 55.6424 55.764 55.6984 55.796C55.7624 55.82 55.7944 55.864 55.7944 55.928C55.7944 55.976 55.7664 56.004 55.7104 56.012C55.6544 56.028 55.6024 56.036 55.5544 56.036C55.3944 56.036 55.2704 56.028 55.1824 56.012C55.0944 56.004 55.0104 55.996 54.9304 55.988C54.8504 55.98 54.7384 55.976 54.5944 55.976C54.4584 55.976 54.3464 55.98 54.2584 55.988C54.1704 55.996 54.0784 56.004 53.9824 56.012C53.8944 56.028 53.7704 56.036 53.6104 56.036C53.5704 56.036 53.5184 56.028 53.4544 56.012C53.3984 56.004 53.3704 55.976 53.3704 55.928C53.3704 55.864 53.3984 55.82 53.4544 55.796C53.5184 55.764 53.5824 55.736 53.6464 55.712C53.7664 55.672 53.8824 55.628 53.9944 55.58C54.1064 55.524 54.1624 55.416 54.1624 55.256V52.736C54.1624 52.384 54.0624 52.112 53.8624 51.92C53.6704 51.72 53.4104 51.616 53.0824 51.608C52.7944 51.608 52.5424 51.656 52.3264 51.752C52.1104 51.84 51.9184 51.952 51.7504 52.088C51.7184 52.12 51.6944 52.164 51.6784 52.22C51.6624 52.268 51.6544 52.316 51.6544 52.364V55.256C51.6544 55.416 51.7104 55.524 51.8224 55.58C51.9344 55.636 52.0504 55.68 52.1704 55.712C52.3544 55.76 52.4464 55.824 52.4464 55.904C52.4464 55.952 52.4264 55.984 52.3864 56C52.3464 56.024 52.2864 56.036 52.2064 56.036C52.0464 56.036 51.9184 56.028 51.8224 56.012C51.7344 56.004 51.6504 55.996 51.5704 55.988C51.4904 55.98 51.3784 55.976 51.2344 55.976C51.0984 55.976 50.9864 55.98 50.8984 55.988C50.8184 55.996 50.7304 56.004 50.6344 56.012C50.5464 56.028 50.4224 56.036 50.2624 56.036ZM56.6022 56.036C56.5302 56.036 56.4702 56.024 56.4222 56C56.3822 55.984 56.3622 55.952 56.3622 55.904C56.3622 55.84 56.3902 55.796 56.4462 55.772C56.5102 55.748 56.5742 55.728 56.6382 55.712C56.8062 55.672 56.9342 55.624 57.0222 55.568C57.1102 55.504 57.1542 55.4 57.1542 55.256V52.652C57.1542 52.436 57.1142 52.244 57.0342 52.076C56.9622 51.908 56.8222 51.808 56.6142 51.776C56.5742 51.768 56.5422 51.752 56.5182 51.728C56.5022 51.704 56.4942 51.668 56.4942 51.62C56.4942 51.532 56.5302 51.484 56.6022 51.476C56.9222 51.404 57.1862 51.308 57.3942 51.188C57.6022 51.06 57.7582 50.956 57.8622 50.876C57.9342 50.82 57.9902 50.792 58.0302 50.792C58.0782 50.792 58.1022 50.812 58.1022 50.852C58.1022 50.916 58.0902 51.044 58.0662 51.236C58.0502 51.42 58.0342 51.628 58.0182 51.86C58.0022 52.084 57.9942 52.288 57.9942 52.472V55.256C57.9942 55.392 58.0382 55.492 58.1262 55.556C58.2222 55.62 58.3502 55.672 58.5102 55.712C58.5742 55.728 58.6342 55.748 58.6902 55.772C58.7542 55.796 58.7862 55.84 58.7862 55.904C58.7862 55.992 58.7062 56.036 58.5462 56.036C58.3942 56.036 58.2702 56.028 58.1742 56.012C58.0862 56.004 57.9982 55.996 57.9102 55.988C57.8302 55.98 57.7182 55.976 57.5742 55.976C57.4382 55.976 57.3262 55.98 57.2382 55.988C57.1502 55.996 57.0622 56.004 56.9742 56.012C56.8862 56.028 56.7622 56.036 56.6022 56.036ZM57.5622 49.808C57.3942 49.808 57.2502 49.752 57.1302 49.64C57.0182 49.52 56.9622 49.376 56.9622 49.208C56.9622 49.032 57.0182 48.888 57.1302 48.776C57.2502 48.656 57.3942 48.596 57.5622 48.596C57.7382 48.596 57.8822 48.656 57.9942 48.776C58.1142 48.888 58.1742 49.032 58.1742 49.208C58.1742 49.376 58.1142 49.52 57.9942 49.64C57.8822 49.752 57.7382 49.808 57.5622 49.808ZM59.5436 56.036C59.4716 56.036 59.4116 56.024 59.3636 56C59.3236 55.984 59.3036 55.952 59.3036 55.904C59.3036 55.84 59.3276 55.8 59.3756 55.784C59.4236 55.76 59.4916 55.736 59.5796 55.712C59.6996 55.68 59.8156 55.636 59.9276 55.58C60.0396 55.524 60.0956 55.416 60.0956 55.256V52.676C60.0956 52.46 60.0716 52.276 60.0236 52.124C59.9836 51.972 59.8596 51.868 59.6516 51.812C59.6196 51.796 59.5916 51.78 59.5676 51.764C59.5436 51.74 59.5316 51.704 59.5316 51.656C59.5316 51.568 59.5676 51.52 59.6396 51.512C59.9196 51.44 60.1476 51.352 60.3236 51.248C60.4996 51.144 60.6716 51.028 60.8396 50.9C60.8636 50.884 60.8836 50.872 60.8996 50.864C60.9236 50.848 60.9476 50.84 60.9716 50.84C60.9876 50.84 60.9996 50.848 61.0076 50.864C61.0236 50.88 61.0316 50.9 61.0316 50.924C61.0316 50.98 61.0196 51.096 60.9956 51.272C60.9796 51.44 60.9716 51.58 60.9716 51.692C60.9716 51.724 60.9716 51.756 60.9716 51.788C60.9796 51.812 60.9876 51.828 60.9956 51.836C61.2756 51.572 61.5716 51.372 61.8836 51.236C62.2036 51.1 62.5516 51.032 62.9276 51.032C63.3196 51.032 63.6436 51.192 63.8996 51.512C64.1556 51.832 64.2836 52.228 64.2836 52.7V55.256C64.2836 55.416 64.3396 55.524 64.4516 55.58C64.5636 55.628 64.6796 55.672 64.7996 55.712C64.8636 55.736 64.9236 55.764 64.9796 55.796C65.0436 55.82 65.0756 55.864 65.0756 55.928C65.0756 55.976 65.0476 56.004 64.9916 56.012C64.9356 56.028 64.8836 56.036 64.8356 56.036C64.6756 56.036 64.5516 56.028 64.4636 56.012C64.3756 56.004 64.2916 55.996 64.2116 55.988C64.1316 55.98 64.0196 55.976 63.8756 55.976C63.7396 55.976 63.6276 55.98 63.5396 55.988C63.4516 55.996 63.3596 56.004 63.2636 56.012C63.1756 56.028 63.0516 56.036 62.8916 56.036C62.8516 56.036 62.7996 56.028 62.7356 56.012C62.6796 56.004 62.6516 55.976 62.6516 55.928C62.6516 55.864 62.6796 55.82 62.7356 55.796C62.7996 55.764 62.8636 55.736 62.9276 55.712C63.0476 55.672 63.1636 55.628 63.2756 55.58C63.3876 55.524 63.4436 55.416 63.4436 55.256V52.736C63.4436 52.384 63.3436 52.112 63.1436 51.92C62.9516 51.72 62.6916 51.616 62.3636 51.608C62.0756 51.608 61.8236 51.656 61.6076 51.752C61.3916 51.84 61.1996 51.952 61.0316 52.088C60.9996 52.12 60.9756 52.164 60.9596 52.22C60.9436 52.268 60.9356 52.316 60.9356 52.364V55.256C60.9356 55.416 60.9916 55.524 61.1036 55.58C61.2156 55.636 61.3316 55.68 61.4516 55.712C61.6356 55.76 61.7276 55.824 61.7276 55.904C61.7276 55.952 61.7076 55.984 61.6676 56C61.6276 56.024 61.5676 56.036 61.4876 56.036C61.3276 56.036 61.1996 56.028 61.1036 56.012C61.0156 56.004 60.9316 55.996 60.8516 55.988C60.7716 55.98 60.6596 55.976 60.5156 55.976C60.3796 55.976 60.2676 55.98 60.1796 55.988C60.0996 55.996 60.0116 56.004 59.9156 56.012C59.8276 56.028 59.7036 56.036 59.5436 56.036ZM66.7595 56.168C66.6155 56.168 66.4675 56.112 66.3155 56C66.1715 55.888 66.0475 55.752 65.9435 55.592C65.8475 55.432 65.7995 55.28 65.7995 55.136C65.7995 54.88 65.8675 54.68 66.0035 54.536C66.1395 54.392 66.3555 54.26 66.6515 54.14L67.8755 53.636C68.0355 53.572 68.1275 53.516 68.1515 53.468C68.1835 53.42 68.2035 53.316 68.2115 53.156L68.2355 52.388C68.2435 52.18 68.1835 52 68.0555 51.848C67.9355 51.696 67.7595 51.62 67.5275 51.62C67.4075 51.62 67.2875 51.64 67.1675 51.68C67.0475 51.72 66.9475 51.772 66.8675 51.836C66.8195 51.868 66.7875 51.916 66.7715 51.98C66.7555 52.044 66.7475 52.112 66.7475 52.184C66.7475 52.216 66.7475 52.252 66.7475 52.292C66.7555 52.332 66.7595 52.368 66.7595 52.4C66.7595 52.44 66.7075 52.496 66.6035 52.568C66.5075 52.632 66.3955 52.692 66.2675 52.748C66.1475 52.796 66.0475 52.82 65.9675 52.82C65.9275 52.82 65.8955 52.812 65.8715 52.796C65.8475 52.772 65.8355 52.744 65.8355 52.712C65.8355 52.584 65.8755 52.448 65.9555 52.304C66.0435 52.152 66.1635 52.012 66.3155 51.884C66.4995 51.716 66.6995 51.568 66.9155 51.44C67.1315 51.312 67.3435 51.212 67.5515 51.14C67.7595 51.068 67.9435 51.032 68.1035 51.032C68.3915 51.032 68.6275 51.136 68.8115 51.344C69.0035 51.544 69.0955 51.796 69.0875 52.1L69.0275 54.98C69.0195 55.148 69.0555 55.284 69.1355 55.388C69.2235 55.492 69.3315 55.544 69.4595 55.544C69.6595 55.544 69.8075 55.5 69.9035 55.412C69.9435 55.372 69.9755 55.352 69.9995 55.352C70.0395 55.352 70.0715 55.364 70.0955 55.388C70.1195 55.412 70.1315 55.444 70.1315 55.484C70.1315 55.572 70.0875 55.66 69.9995 55.748C69.8715 55.876 69.7315 55.976 69.5795 56.048C69.4355 56.128 69.2995 56.168 69.1715 56.168C68.8035 56.168 68.5115 55.96 68.2955 55.544H68.2595C67.9955 55.76 67.7435 55.916 67.5035 56.012C67.2635 56.116 67.0155 56.168 66.7595 56.168ZM67.3235 55.592C67.4835 55.592 67.6195 55.568 67.7315 55.52C67.8435 55.464 67.9435 55.392 68.0315 55.304C68.0715 55.264 68.1035 55.212 68.1275 55.148C68.1595 55.076 68.1795 54.964 68.1875 54.812L68.2115 54.224C68.2195 54.136 68.2155 54.072 68.1995 54.032C68.1835 53.992 68.1515 53.972 68.1035 53.972C68.0875 53.972 68.0595 53.976 68.0195 53.984C67.9795 53.992 67.9275 54.008 67.8635 54.032C67.4395 54.184 67.1435 54.344 66.9755 54.512C66.8155 54.672 66.7355 54.82 66.7355 54.956C66.7355 55.164 66.7955 55.324 66.9155 55.436C67.0435 55.54 67.1795 55.592 67.3235 55.592Z" fill="black"/>
</svg>
