<svg width="744" height="4099" viewBox="0 0 744 4099" fill="none" xmlns="http://www.w3.org/2000/svg">
<g clip-path="url(#clip0_77_234)">
<rect width="744" height="4099" fill="#6BBAE7"/>
<path d="M281.774 -41.4154C283.666 -42.1797 285.822 -41.8767 287.43 -40.6206L417.236 60.7953C418.844 62.0514 419.659 64.0698 419.375 66.0902L396.45 229.214C396.166 231.234 394.826 232.95 392.934 233.714L240.202 295.422C238.31 296.186 236.154 295.883 234.547 294.627L104.74 193.211C103.133 191.955 102.317 189.937 102.601 187.916L125.527 24.7925C125.81 22.7721 127.151 21.0566 129.042 20.2924L281.774 -41.4154Z" fill="#F36F97"/>
<path d="M258.465 -58.3909C260.44 -58.9018 262.538 -58.32 263.968 -56.8648L379.427 60.6267C380.857 62.0819 381.402 64.1895 380.857 66.1555L336.835 224.891C336.29 226.857 334.737 228.383 332.762 228.894L173.282 270.138C171.307 270.649 169.209 270.067 167.779 268.612L52.3207 151.121C50.8906 149.665 50.3456 147.558 50.8908 145.592L94.9121 -13.1439C95.4574 -15.11 97.0101 -16.6358 98.9853 -17.1466L258.465 -58.3909Z" fill="#F2DDB6"/>
<path d="M460.373 725.196C462.229 724.35 464.396 724.559 466.057 725.744L600.164 821.401C601.825 822.586 602.728 824.567 602.532 826.598L586.744 990.566C586.548 992.597 585.284 994.369 583.427 995.215L433.532 1063.53C431.676 1064.37 429.509 1064.16 427.848 1062.98L293.741 967.322C292.08 966.137 291.178 964.156 291.373 962.125L307.161 798.157C307.357 796.126 308.621 794.354 310.478 793.507L460.373 725.196Z" fill="#F2DDB6"/>
<path d="M528.884 722.609C530.859 722.098 532.957 722.68 534.387 724.135L649.846 841.627C651.276 843.082 651.821 845.189 651.275 847.156L607.254 1005.89C606.709 1007.86 605.156 1009.38 603.181 1009.89L443.701 1051.14C441.726 1051.65 439.628 1051.07 438.198 1049.61L322.739 932.121C321.309 930.665 320.764 928.558 321.31 926.592L365.331 767.856C365.876 765.89 367.429 764.364 369.404 763.853L528.884 722.609Z" fill="#F36F97"/>
<path d="M61.5528 1201.44C62.9109 1199.76 64.9527 1198.86 66.909 1199.08L224.858 1216.52C226.814 1216.74 228.388 1218.04 228.986 1219.93L277.283 1372.95C277.881 1374.85 277.413 1377.05 276.055 1378.73L166.402 1514.31C165.044 1515.99 163.002 1516.89 161.046 1516.67L3.09647 1499.23C1.14018 1499.01 -0.433441 1497.71 -1.03162 1495.82L-49.328 1342.8C-49.9262 1340.9 -49.4581 1338.7 -48.1 1337.02L61.5528 1201.44Z" fill="#A1CFEF"/>
<path d="M-26.2865 1254.13C-25.3409 1252.2 -23.524 1250.82 -21.5202 1250.52L140.267 1225.68C142.271 1225.38 144.158 1226.19 145.216 1227.81L230.658 1358.88C231.716 1360.5 231.785 1362.69 230.84 1364.62L154.494 1520.52C153.548 1522.46 151.731 1523.83 149.727 1524.14L-12.0601 1548.97C-14.064 1549.28 -15.9503 1548.47 -17.0085 1546.85L-102.45 1415.78C-103.509 1414.15 -103.578 1411.96 -102.632 1410.03L-26.2865 1254.13Z" fill="#F2DDB6"/>
<path d="M-90.7613 1314.11C-90.1371 1312.08 -88.5439 1310.42 -86.5818 1309.76L71.8361 1256.54C73.7982 1255.88 75.831 1256.32 77.1689 1257.69L185.187 1368.65C186.525 1370.03 186.964 1372.13 186.34 1374.16L135.94 1538.34C135.316 1540.37 133.723 1542.03 131.761 1542.69L-26.657 1595.92C-28.6191 1596.58 -30.652 1596.14 -31.9898 1594.76L-140.008 1483.8C-141.346 1482.43 -141.785 1480.33 -141.161 1478.3L-90.7613 1314.11Z" fill="#F36F97"/>
<path d="M587.19 1870.55C589.057 1869.61 591.199 1869.71 592.81 1870.82L722.824 1960.53C724.434 1961.64 725.268 1963.59 725.011 1965.64L704.25 2131.46C703.993 2133.52 702.684 2135.36 700.816 2136.3L550.041 2212.42C548.174 2213.36 546.031 2213.26 544.421 2212.15L414.407 2122.44C412.796 2121.33 411.963 2119.38 412.22 2117.32L432.981 1951.5C433.238 1949.45 434.547 1947.6 436.414 1946.66L587.19 1870.55Z" fill="#F2DDB6"/>
<path d="M748.628 1884.32C750.626 1883.83 752.645 1884.44 753.924 1885.93L857.227 2005.76C858.506 2007.25 858.852 2009.38 858.133 2011.35L800.101 2170.76C799.382 2172.73 797.708 2174.25 795.71 2174.74L634.376 2214.31C632.377 2214.8 630.358 2214.19 629.079 2212.71L525.776 2092.87C524.497 2091.39 524.152 2089.25 524.87 2087.28L582.902 1927.87C583.621 1925.9 585.295 1924.38 587.293 1923.89L748.628 1884.32Z" fill="#F36F97"/>
<path d="M322.304 2404.41C324.307 2404.02 326.365 2404.72 327.703 2406.26L435.774 2530.59C437.113 2532.13 437.528 2534.26 436.864 2536.19L383.234 2691.94C382.57 2693.87 380.927 2695.3 378.924 2695.69L217.224 2727.12C215.221 2727.51 213.163 2726.8 211.824 2725.26L103.753 2600.94C102.415 2599.4 102 2597.26 102.664 2595.34L156.294 2439.58C156.958 2437.65 158.601 2436.23 160.604 2435.84L322.304 2404.41Z" fill="#A1CFEF"/>
<path d="M-17.9622 3186.57C-16.3993 3185.26 -14.2555 3184.88 -12.3383 3185.58L142.454 3241.92C144.372 3242.61 145.771 3244.28 146.125 3246.29L174.73 3408.51C175.084 3410.52 174.339 3412.57 172.776 3413.88L46.5883 3519.76C45.0254 3521.08 42.8816 3521.45 40.9644 3520.76L-113.828 3464.42C-115.745 3463.72 -117.145 3462.05 -117.499 3460.04L-146.104 3297.82C-146.458 3295.81 -145.713 3293.76 -144.15 3292.45L-17.9622 3186.57Z" fill="#6BBAE7"/>
<path d="M-36.8077 3160.87C-35.2448 3159.56 -33.1009 3159.18 -31.1838 3159.88L123.609 3216.22C125.526 3216.91 126.925 3218.58 127.28 3220.59L155.884 3382.82C156.238 3384.83 155.494 3386.87 153.931 3388.18L27.7429 3494.07C26.18 3495.38 24.0361 3495.76 22.1189 3495.06L-132.674 3438.72C-134.591 3438.02 -135.99 3436.35 -136.344 3434.34L-164.949 3272.12C-165.303 3270.11 -164.559 3268.06 -162.996 3266.75L-36.8077 3160.87Z" fill="#F36F97"/>
<path d="M675.544 3492.57C677.393 3491.71 679.562 3491.9 681.233 3493.07L816.17 3587.55C817.841 3588.72 818.761 3590.7 818.583 3592.73L804.226 3756.83C804.048 3758.86 802.8 3760.65 800.951 3761.51L651.657 3831.12C649.808 3831.99 647.64 3831.8 645.968 3830.63L511.032 3736.14C509.361 3734.97 508.441 3733 508.619 3730.97L522.975 3566.87C523.153 3564.83 524.402 3563.05 526.251 3562.19L675.544 3492.57Z" fill="#6BBAE7"/>
<path d="M748.451 3457.61C750.427 3457.1 752.524 3457.68 753.954 3459.13L869.413 3576.63C870.843 3578.08 871.388 3580.19 870.843 3582.16L826.822 3740.89C826.276 3742.86 824.724 3744.38 822.748 3744.89L663.268 3786.14C661.293 3786.65 659.195 3786.07 657.765 3784.61L542.307 3667.12C540.877 3665.67 540.332 3663.56 540.877 3661.59L584.898 3502.86C585.444 3500.89 586.996 3499.36 588.972 3498.85L748.451 3457.61Z" fill="#F36F97"/>
<path d="M281.774 4057.58C283.666 4056.82 285.822 4057.12 287.43 4058.38L417.236 4159.8C418.844 4161.05 419.659 4163.07 419.375 4165.09L396.45 4328.21C396.166 4330.23 394.826 4331.95 392.934 4332.71L240.202 4394.42C238.31 4395.19 236.154 4394.88 234.547 4393.63L104.74 4292.21C103.133 4290.96 102.317 4288.94 102.601 4286.92L125.527 4123.79C125.81 4121.77 127.151 4120.06 129.042 4119.29L281.774 4057.58Z" fill="#F36F97"/>
<path d="M258.465 4040.61C260.44 4040.1 262.538 4040.68 263.968 4042.14L379.427 4159.63C380.857 4161.08 381.402 4163.19 380.857 4165.16L336.835 4323.89C336.29 4325.86 334.737 4327.38 332.762 4327.89L173.282 4369.14C171.307 4369.65 169.209 4369.07 167.779 4367.61L52.3207 4250.12C50.8906 4248.67 50.3456 4246.56 50.8908 4244.59L94.9121 4085.86C95.4574 4083.89 97.0101 4082.36 98.9853 4081.85L258.465 4040.61Z" fill="#F2DDB6"/>
</g>
<defs>
<clipPath id="clip0_77_234">
<rect width="744" height="4099" fill="white"/>
</clipPath>
</defs>
</svg>
