<svg width="84" height="70" viewBox="0 0 84 70" fill="none" xmlns="http://www.w3.org/2000/svg">
<path d="M57.6988 11.8737C59.372 11.2481 61.2519 11.5626 62.6303 12.6989L81.324 28.1088C82.7024 29.2451 83.3699 31.0304 83.0751 32.7922L79.0765 56.6865C78.7817 58.4483 77.5694 59.919 75.8961 60.5446L53.2039 69.0289C51.5307 69.6545 49.6508 69.3399 48.2724 68.2036L29.5787 52.7937C28.2003 51.6574 27.5328 49.8722 27.8276 48.1103L31.8262 24.2161C32.121 22.4542 33.3333 20.9835 35.0065 20.358L57.6988 11.8737Z" fill="#F2DDB6"/>
<path d="M36.8691 0.761862C38.6283 0.451669 40.4194 1.10356 41.5676 2.47196L57.1401 21.0305C58.2883 22.3989 58.6193 24.276 58.0083 25.9546L49.7224 48.72C49.1114 50.3986 47.6513 51.6238 45.8922 51.934L22.0337 56.1409C20.2745 56.4511 18.4835 55.7992 17.3352 54.4308L1.76274 35.8722C0.614515 34.5038 0.283544 32.6268 0.894504 30.9482L9.18046 8.18269C9.79142 6.50409 11.2515 5.27894 13.0107 4.96875L36.8691 0.761862Z" fill="#f36f97"/>
</svg>
