<svg width="52" height="69" viewBox="0 0 52 69" fill="none" xmlns="http://www.w3.org/2000/svg">
<path d="M51.6063 23.4238C51.4786 23.2354 51.2699 23.1256 51.11 22.9686C50.8536 22.719 50.5134 22.5736 50.1711 22.4747C49.8186 22.3784 49.5246 22.1555 49.1984 22.0033C48.8878 21.8599 48.5878 21.6967 48.2917 21.5277C48.1205 21.4293 47.9403 21.3346 47.7401 21.3111C47.5808 21.2912 47.4263 21.3535 47.268 21.3482C46.8372 21.3059 46.4069 21.3807 45.9761 21.3822C45.285 21.4074 44.5967 21.3362 43.9115 21.2598C42.7414 21.1217 41.5728 20.9558 40.3952 20.8904C39.7846 20.8585 39.1724 20.8345 38.5678 20.7408C38.3285 20.6895 38.0973 20.7785 37.866 20.8224C37.7169 20.8543 37.5881 20.7471 37.4465 20.7251C37.2855 20.7424 37.1213 20.7999 36.9615 20.746C36.7173 20.6754 36.4668 20.6294 36.2125 20.6137C36.0123 20.6179 35.8648 20.4687 35.6808 20.4196C35.4506 20.3447 35.2076 20.395 34.9715 20.3793C34.6904 20.3568 34.4108 20.3191 34.1329 20.2731C34.082 20.114 34.0197 19.9591 33.9425 19.8111C34.1254 19.8456 34.3121 19.8561 34.4983 19.8529C34.6711 19.6813 34.6888 19.4234 34.5739 19.2167C34.436 18.8594 34.0149 18.7872 33.6957 18.6548C33.6458 18.5554 33.5996 18.4544 33.5562 18.3529C34.0444 18.3372 34.5906 18.4146 35.0134 18.1211C35.1078 17.7994 34.8449 17.5064 34.5519 17.4017C34.2794 17.3018 33.995 17.2385 33.7107 17.1799C33.7713 17.0522 33.9312 16.9962 33.9967 16.8675C34.2676 16.4165 34.3604 15.8839 34.3808 15.368C34.3969 15.0096 34.2005 14.6753 33.8963 14.4817L33.8883 14.4828C33.634 14.2871 33.334 14.1458 33.025 14.0532L33.0347 14.0448C32.8018 13.98 32.6049 13.8392 32.3968 13.7241C31.4101 13.2449 30.3086 13.1005 29.2404 12.8917C29.0279 12.8399 28.8096 12.8158 28.5928 12.786C28.3278 12.7415 28.0182 12.6683 27.7821 12.8342C27.9286 12.8791 28.0917 12.9498 28.2457 12.9027C28.323 12.9142 28.4008 12.9241 28.4791 12.932C28.471 12.9555 28.4555 13.0016 28.448 13.0246C28.6814 13.1277 28.9169 13.247 29.1776 13.2611C29.5065 13.2852 29.8365 13.271 30.1659 13.2773C30.3521 13.3265 30.5345 13.3872 30.7142 13.4552C30.4594 13.5096 30.1959 13.5033 29.939 13.4698C29.756 13.429 29.5833 13.3453 29.3933 13.3349C29.4776 13.4384 29.5951 13.5054 29.7136 13.5661C29.6299 13.6221 29.5334 13.654 29.4368 13.6796C29.212 13.6582 28.9861 13.6399 28.7608 13.6294C28.6524 13.6069 28.5419 13.6038 28.4324 13.6116C28.2269 13.6315 28.0343 13.5447 27.8326 13.5253C27.2752 13.4562 26.7113 13.4207 26.1656 13.281C25.8083 13.1904 25.4494 13.0842 25.0802 13.0549C25.1763 13.1423 25.3077 13.1679 25.4284 13.2082C25.2997 13.2093 25.1715 13.2119 25.0432 13.2187C25.0985 13.3458 25.2396 13.3872 25.3544 13.4473C25.4998 13.5211 25.6559 13.5844 25.8244 13.5734C26.0454 13.6545 26.2847 13.7116 26.5229 13.6896C26.5718 13.7126 26.6227 13.732 26.6753 13.7466C26.5541 13.7712 26.4317 13.789 26.3116 13.8152C26.0031 13.8345 25.6999 13.9177 25.3887 13.9088C25.3008 13.8622 25.1988 13.8643 25.1022 13.8633C24.8184 13.8638 24.5292 13.8497 24.2524 13.9255C24.2932 13.9575 24.3334 13.9888 24.3742 14.0213C24.3779 14.0396 24.3844 14.0762 24.3876 14.0945C24.7353 14.2259 25.1124 14.1866 25.4757 14.1694C25.6135 14.1484 25.7777 14.1751 25.8856 14.0684C26.4623 14.0051 27.0412 13.8476 27.6298 13.8633C27.8599 13.8617 28.0708 13.9648 28.2951 14.0009C28.3541 14.0312 28.4185 14.0532 28.4818 14.0773C28.1148 14.0747 27.7784 14.2771 27.4087 14.2311C26.9736 14.2342 26.5369 14.1704 26.1039 14.2233C25.6103 14.2138 25.1157 14.3033 24.6221 14.2557C24.4031 14.184 24.1719 14.1401 23.9428 14.1181C23.6697 13.9711 23.3285 13.9794 23.0318 13.8806C22.8135 13.7796 22.69 14.0375 22.542 14.1437C22.6541 14.2588 22.8016 14.3342 22.9148 14.4488C22.8419 14.4435 22.7689 14.4367 22.6965 14.4304C22.7416 14.4906 22.7872 14.5508 22.8333 14.6115C22.8097 14.6214 22.7625 14.6408 22.7389 14.6502C22.7094 14.692 22.6788 14.7323 22.6487 14.7737C22.7271 14.8338 22.8059 14.894 22.8853 14.9531C22.8419 15.0347 22.7941 15.1148 22.7448 15.1928C22.1943 15.0018 21.6057 15.0316 21.0322 15.0463C20.7199 14.4629 20.5005 13.8382 20.28 13.2182C20.1705 12.9519 20.287 12.662 20.2081 12.391C20.163 12.2068 20.0364 12.0509 20.0085 11.8626C19.9398 11.4126 19.8465 10.9663 19.7172 10.5289C19.6619 10.3317 19.5932 10.1365 19.5675 9.93248C19.5273 9.65518 19.5487 9.37265 19.4961 9.0964C19.3094 8.24724 19.1275 7.38657 18.7445 6.59601C18.1672 5.4345 17.4488 4.33421 17.026 3.10416C16.9423 2.90011 16.9047 2.66309 16.7368 2.50404C16.614 2.38528 16.5544 2.22047 16.4321 2.10171C15.998 1.65227 15.3547 1.52147 14.7828 1.3169C14.3418 1.13326 13.904 0.938625 13.4538 0.779571C13.0482 0.514836 12.6158 0.262652 12.1276 0.179981C11.8185 0.130805 11.5229 0.0136076 11.2069 0.0109863C11.084 0.0198755 10.9231 0.00157391 10.8367 0.102547C10.8351 0.333797 11.0422 0.509599 11.2654 0.541514C11.5406 0.581795 11.7955 0.688529 12.0573 0.774863C12.2869 0.836606 12.4484 1.0213 12.6571 1.12384C11.8652 1.1322 11.0604 1.2651 10.3399 1.59629C10.2519 1.65384 10.1081 1.69989 10.1044 1.82022C10.188 1.97614 10.3823 2.08286 10.5636 2.03368C10.8233 2.01066 11.0497 1.84481 11.3158 1.86468C11.5889 1.87881 11.862 1.71087 12.1265 1.82597C12.2805 1.88195 12.4457 1.84428 12.6051 1.84219C12.119 1.94998 11.6409 2.08862 11.1538 2.1896C10.9456 2.24296 10.7112 2.28272 10.5609 2.44597C10.4756 2.50822 10.5679 2.60397 10.6275 2.64269C10.8238 2.8007 11.0942 2.73425 11.3206 2.69134C11.6367 2.60606 11.9655 2.5888 12.2869 2.52863C12.5241 2.48573 12.7682 2.5056 13.0064 2.46846C13.0236 2.48049 13.0584 2.50351 13.0761 2.51503C12.9533 2.51241 12.8315 2.52549 12.7134 2.5574C12.4017 2.63955 12.0734 2.60816 11.7579 2.66728C11.6179 2.73478 11.6812 2.95766 11.7987 3.02149C12.0487 3.15072 12.3368 3.07381 12.6051 3.08322C12.8905 3.0895 13.1754 3.04398 13.4603 3.07486C13.5697 3.11253 13.655 3.21245 13.7779 3.21193C14.0274 3.21612 14.2812 3.21245 14.5194 3.2967C14.8257 3.35424 15.1208 3.50806 15.44 3.46255C15.4744 3.68491 15.5511 3.89733 15.6021 4.11603C15.8317 4.9903 15.8752 5.89439 15.9878 6.78645C16.1016 7.68898 16.3226 8.57842 16.6515 9.42968C16.7824 9.74621 16.857 10.0795 16.9337 10.4112C16.9702 10.6006 17.1419 10.7319 17.1714 10.9218C17.1956 11.0432 17.2304 11.162 17.2685 11.2797C17.3812 11.6219 17.3763 11.985 17.4198 12.3392C17.4713 12.9833 17.5368 13.6258 17.5947 14.2693C17.6049 14.6335 17.6414 15.0028 17.5829 15.3644C17.4472 15.7275 17.3082 16.0906 17.2063 16.4652C16.7969 16.4673 16.3854 16.4469 15.9798 16.5123C15.6311 16.5201 15.2876 16.6242 14.9979 16.8131C14.3874 17.1757 13.9898 17.8234 13.882 18.5057C13.794 18.9164 13.8331 19.3527 13.6604 19.7446C13.5257 20.081 13.3782 20.4133 13.2424 20.7497C13.0278 21.2907 12.8873 21.8557 12.6818 22.3999C12.5015 22.8807 12.3234 23.3772 12.3282 23.8962C12.3282 24.161 12.2429 24.4152 12.1469 24.6601C11.9339 25.2168 11.7895 25.7955 11.5878 26.3563C11.3619 27.0396 11.1328 27.7287 11.0567 28.4465C11.0191 28.7013 11.0293 28.9687 10.9214 29.2088C10.8383 29.4008 10.7798 29.6007 10.7337 29.8037C10.6736 30.1108 10.416 30.3369 10.3538 30.6435C10.312 30.8349 10.2808 31.0322 10.1805 31.2054C9.95571 31.6103 9.94498 32.0817 9.91065 32.5301C9.89884 32.7588 9.80817 32.978 9.82051 33.2087C9.83553 33.5697 9.85699 33.9302 9.87255 34.2912C9.24268 34.7187 8.59671 35.1236 7.96844 35.5532C6.21187 36.7461 4.55832 38.074 2.89242 39.382C2.17671 39.9345 1.51303 40.5487 0.905153 41.2116C0.702885 41.491 0.469493 41.7573 0.355756 42.0859C0.0397461 42.7054 0.00165319 43.4332 0.152415 44.1008C0.354683 44.8563 1.02802 45.3638 1.69008 45.7347C2.05223 45.9534 2.47501 46.0392 2.89296 46.0821C3.88177 46.2736 4.84911 46.5582 5.83846 46.7492C6.21134 46.8094 6.55256 46.9731 6.9115 47.0804C7.71789 47.3347 8.53501 47.5617 9.32584 47.8621C10.2143 48.1974 11.0733 48.6029 11.9516 48.9629C12.6582 49.2841 13.3846 49.5667 14.0644 49.9413C14.5499 50.2107 15.0521 50.4571 15.506 50.7779C15.9336 51.075 16.3773 51.3508 16.7894 51.6689C17.0764 51.92 17.3887 52.1419 17.7031 52.36C18.1033 52.6373 18.5416 52.8576 18.9456 53.1297C19.3834 53.4295 19.7225 53.8386 20.075 54.2258C20.2408 54.4078 20.3798 54.6229 20.4205 54.8672C20.4908 55.3062 20.5718 55.7462 20.7199 56.1679C20.8068 56.3835 20.7113 56.633 20.8251 56.8418C20.8997 56.9349 21.0021 57.0505 21.1389 57.015C21.316 56.9914 21.4142 56.8235 21.4952 56.6864C21.5553 56.5582 21.7119 56.5033 21.7592 56.3673C21.7983 56.2736 21.7688 56.1721 21.7667 56.0763C21.9389 55.8922 21.9045 55.6191 21.7785 55.4208C22.0784 55.403 22.102 55.0462 21.992 54.8384C22.0977 54.771 22.1728 54.6689 22.2061 54.5502C22.263 54.3942 22.1707 54.2404 22.1551 54.0861C22.1766 53.9605 22.2066 53.836 22.227 53.7109C23.0683 54.8426 23.7158 56.0936 24.4391 57.2965C24.8098 57.9452 25.2331 58.5652 25.5631 59.236C25.819 59.7545 26.1018 60.262 26.3142 60.7998C26.5057 61.2733 26.7279 61.7358 26.9951 62.1738C27.1399 62.4207 27.2483 62.6891 27.4232 62.9193C27.6974 63.2939 27.9608 63.6774 28.273 64.0233C28.5671 64.3644 28.9233 64.6605 29.1422 65.0582C29.3595 65.4427 29.5655 65.8336 29.7758 66.2218C29.9899 66.6717 30.1627 67.1426 30.2614 67.6302C30.2989 67.829 30.4433 67.986 30.4964 68.1791C30.5329 68.3936 30.4942 68.6248 30.593 68.8279C30.7196 68.9879 30.9819 69.0036 31.1123 68.8383C31.2153 68.696 31.3194 68.5385 31.3457 68.3638C31.3221 68.133 31.3666 67.8861 31.2459 67.6758C31.402 67.524 31.3924 67.3147 31.299 67.1342C31.3462 67.0453 31.4004 66.9569 31.4111 66.8564C31.468 66.2641 31.5345 65.6572 31.3902 65.0723C31.2572 64.4633 31.0774 63.8616 31.0163 63.2406C30.99 62.6975 31.1944 62.1821 31.3071 61.6589C31.4069 61.154 31.4165 60.6167 31.2459 60.1259C31.0527 59.7602 30.5978 59.6064 30.1997 59.5933C29.8595 59.6535 29.536 59.822 29.1814 59.79C28.9614 59.7131 28.8707 59.484 28.7741 59.2972C28.61 58.9404 28.3991 58.6066 28.236 58.2492C27.7328 57.2096 27.4575 56.0858 27.0508 55.0101C26.8089 54.3241 26.5025 53.6518 26.4006 52.9272C26.3201 52.3056 26.0379 51.7364 25.7787 51.1713C25.4708 50.589 25.1172 50.0255 24.6773 49.529C24.2143 48.9854 23.6413 48.5464 23.1369 48.042C22.5451 47.4932 22.066 46.8209 21.7817 46.0727C21.6084 45.7112 21.5724 45.3104 21.4785 44.9269C21.192 43.8072 20.9034 42.6834 20.4608 41.6108C20.2907 41.1049 20.046 40.6283 19.8132 40.1485C19.3223 39.1863 18.8609 38.21 18.3968 37.2353C18.8598 36.4882 19.4832 35.8059 19.7 34.9384C19.9961 33.8915 19.9484 32.7792 19.7611 31.7176C19.5921 30.8512 19.3866 29.99 19.1216 29.1466C19.0245 28.7243 18.8013 28.3152 18.8769 27.8705C19.0003 27.1056 19.5846 26.5133 20.1946 26.0649C21.0826 25.435 22.059 24.9238 23.0849 24.5424C23.3687 24.4289 23.6675 24.353 23.9471 24.2279C24.4782 23.9946 24.9976 23.7309 25.5496 23.5462C25.944 23.4248 26.3598 23.4102 26.767 23.3647C27.2697 23.3824 27.7698 23.3286 28.2693 23.2825C28.8133 23.3374 29.323 23.5786 29.8761 23.5739C30.4298 23.6603 30.9926 23.6383 31.5463 23.5666C31.7808 23.5248 32.0013 23.3866 32.247 23.4269C33.0974 23.5248 33.9521 23.5828 34.8084 23.6106C35.685 23.6519 36.5708 23.5755 37.4389 23.7304C38.1021 23.8413 38.7684 23.9323 39.4391 23.9873C40.062 24.0139 40.6865 24.0176 41.3099 23.9909C43.0257 23.7973 44.7286 23.4808 46.4552 23.3861C46.7551 23.3631 47.0625 23.3804 47.3549 23.2987C47.4198 23.4144 47.4869 23.5337 47.5947 23.6174C47.8227 23.7968 48.0352 23.9941 48.2648 24.1714C48.421 24.2871 48.4923 24.4718 48.62 24.6114C48.7311 24.7396 48.9178 24.7637 49.0342 24.8851C49.2016 25.0541 49.3577 25.2367 49.4736 25.4444C49.5788 25.638 49.736 25.8002 49.8336 25.9985C49.935 26.18 50.0981 26.3715 50.3278 26.3788C50.4002 26.3882 50.5354 26.4087 50.5327 26.2967C50.53 26.0539 50.3015 25.8865 50.236 25.6626C50.2151 25.3711 50.2618 25.0734 50.1797 24.7878C50.2038 24.8239 50.2285 24.8594 50.2537 24.8961C50.2398 25.1252 50.2044 25.4936 50.5102 25.5496C50.6164 25.6013 50.7049 25.4904 50.6915 25.3931C50.7999 25.3476 50.772 25.1503 50.7301 25.0583C50.8149 24.7637 50.7387 24.4456 50.6888 24.1484C50.647 23.8308 50.449 23.5666 50.2569 23.3186C50.6438 23.3877 50.9657 23.6226 51.2613 23.8622C51.3874 23.9716 51.5607 23.9522 51.7163 23.9412C51.8182 23.7654 51.7104 23.5718 51.6063 23.4238ZM16.5345 47.8961C15.7748 47.5466 15.0382 47.1479 14.3482 46.6802C13.5085 46.1198 12.6861 45.5343 11.8271 45.0017C11.4483 44.7694 11.091 44.5062 10.7626 44.2091C9.9895 43.519 9.01947 43.0899 8.05213 42.7253C7.85093 42.6389 7.6154 42.6264 7.43406 42.5019C7.93731 42.3255 8.43842 42.1403 8.92129 41.9153C9.30598 41.7061 9.72446 41.5622 10.1038 41.3419C10.6398 41.0777 11.1339 40.7428 11.6339 40.42C11.8764 40.2746 12.1152 40.1229 12.3475 39.9612C12.9447 40.9495 13.5633 41.9258 14.2253 42.8739C15.4314 44.6402 16.982 46.1946 17.8946 48.1415C17.4273 48.3125 16.9471 48.1059 16.5345 47.8961ZM34.4946 17.8395C34.3046 17.9724 34.097 18.0822 33.8711 18.1435C33.7821 17.9619 33.5487 17.8144 33.6023 17.5946C33.9055 17.6543 34.2 17.749 34.4946 17.8395ZM34.2183 15.338C34.2279 15.6514 34.1619 15.9633 34.0686 16.2615C34.0026 16.4739 33.8443 16.6377 33.678 16.7805C33.6699 16.4875 33.7198 16.1945 33.6807 15.9021C33.6259 15.4427 33.5476 14.9776 33.3529 14.5527C33.6587 14.795 34.0165 14.9933 34.2183 15.338ZM32.2659 14.2032C32.5615 14.2472 32.8308 14.3774 33.112 14.469C33.3679 14.9833 33.4709 15.563 33.5068 16.1302C33.2241 15.8544 33.208 15.4416 32.9778 15.134C32.8759 14.9603 32.7375 14.8107 32.5926 14.671C32.4612 14.5307 32.3705 14.3618 32.2659 14.2032ZM32.6355 14.8996L32.709 14.9263C32.7954 15.0194 32.8651 15.1267 32.9338 15.2329C32.9859 15.3344 33.0385 15.4359 33.0894 15.5384C32.9156 15.3412 32.7289 15.1481 32.6355 14.8996ZM33.2697 18.9157C33.3158 18.8623 33.362 18.809 33.4092 18.7567C33.4736 18.9042 33.5294 19.0549 33.5793 19.2082C33.5042 19.192 33.4296 19.1773 33.3545 19.1642C33.3287 19.0805 33.2997 18.9978 33.2697 18.9157ZM33.4366 19.7366C33.5095 19.7361 33.5938 19.8507 33.5653 19.9229C33.4661 19.9841 33.3958 19.8088 33.4366 19.7366ZM33.5095 20.0484C33.5428 20.0228 33.6093 19.9726 33.6426 19.9475C33.7048 20.0301 33.7654 20.1144 33.825 20.2002C33.7086 20.1745 33.5648 20.1714 33.5095 20.0484ZM33.8121 18.99C33.9543 19.0659 34.0922 19.1501 34.2188 19.2495C34.1136 19.2495 34.0079 19.2589 33.9044 19.2401C33.8647 19.16 33.8389 19.0742 33.8121 18.99Z" fill="black"/>
<path d="M38.1107 60.3671C38.1225 60.4367 38.1606 60.4477 38.225 60.4006C38.2121 60.3295 38.174 60.3179 38.1107 60.3671Z" fill="black"/>
</svg>
